<svg width="520" height="140" viewBox="0 0 520 140" fill="none" xmlns="http://www.w3.org/2000/svg">
<path d="M409.043 57.6706C409.767 57.8902 410.587 58 411.495 58C413.222 58 415.288 57.6007 417.74 56.8122H417.769C419.593 56.1434 420.935 54.8558 421.774 52.9094C422.267 51.5519 421.861 50.8233 421.437 50.454C420.906 49.9848 420.153 49.875 419.149 50.1445C417.865 50.5837 416.524 50.7734 415.134 50.7035H415.018L414.902 50.7235C414.873 50.7235 414.554 50.7734 413.666 50.414C412.634 49.9948 411.804 49.905 411.041 50.1745C409.313 50.9331 408.039 52.2606 407.209 54.1771C406.92 55.0055 406.929 55.7442 407.248 56.363C407.566 57.0018 408.174 57.441 409.024 57.6706H409.043Z" fill="#222222"/>
<path d="M519.938 77.8195C519.748 76.8683 519.316 76.3176 518.654 76.1774C517.651 75.9671 516.878 76.8583 516.307 77.6693C511.431 84.0676 505.431 89.4346 498.489 93.58C492.921 96.674 488.817 97.7254 486.319 96.7241C485.035 96.2134 484.152 95.132 483.631 93.4398C483.48 92.9291 483.37 92.3884 483.299 91.8177C483.229 91.2169 483.209 90.5761 483.249 89.9152C483.299 89.1042 483.31 88.4633 483.31 87.9527C483.31 87.6323 483.35 87.0415 483.54 85.9801C483.741 84.8486 483.841 84.3981 483.891 84.2178C483.932 84.0576 484.092 83.4368 484.333 82.1251C484.554 80.9436 484.624 80.5531 484.644 80.3728C487.794 66.3246 492.71 52.7169 499.241 39.9704C501.378 36.1154 503.455 32.3104 505.471 28.6056C506.154 27.5242 505.762 26.2025 504.308 24.6805C503.144 23.4589 501.84 22.4676 500.435 21.7267C499.181 21.0658 498.318 20.8655 497.646 21.0858C497.245 21.216 496.924 21.4864 496.753 21.8368C486.279 41.4723 476.839 57.8436 468.682 70.5401C467.649 68.187 466.174 65.9841 464.288 63.9615C461.74 61.2179 458.92 60.2567 455.971 61.0878C454.396 61.4483 452.881 62.3594 451.326 63.8614C449.871 65.2732 448.507 67.1256 447.283 69.3786C447.032 69.8391 446.791 70.2797 446.56 70.7103C446.49 70.7603 446.42 70.8104 446.34 70.8805C441.494 75.146 436.187 79.5117 430.528 83.8874C429.977 84.368 428.813 85.2792 427.077 86.6109L423.154 89.6148C422.342 90.2356 421.148 91.1068 419.382 92.3484C417.707 93.5399 416.282 94.4711 415.158 95.122C413.764 95.933 412.46 96.674 411.145 97.3749C409.671 98.1659 408.206 98.8268 406.801 99.3375C405.417 99.8381 404.032 100.219 402.648 100.459C401.193 100.759 401.053 100.299 400.993 100.098C400.812 99.5177 400.732 98.3061 401.374 95.7928C402.497 91.2369 404.203 86.8613 406.45 82.7459C409.169 77.2788 412.249 71.9519 415.58 66.9053L415.71 66.7151L415.74 66.4848C415.971 64.8026 413.724 64.0516 412.911 63.7913C410.754 63.2406 407.775 62.7099 406.681 64.4522L404.474 67.7665C403.561 69.1382 402.608 70.7403 401.635 72.5427C401.595 72.5827 401.554 72.6228 401.514 72.6628C400.672 73.584 399.197 75.2562 396.408 78.4603C393.849 81.3942 391.853 83.617 390.308 85.2391C388.713 86.9113 386.686 88.8538 384.298 91.0166C381.941 93.1394 379.473 94.8416 376.985 96.0732C374.517 97.2948 371.948 98.1459 369.38 98.6165C369.089 98.6566 368.236 98.7767 367.253 97.0044C366.089 94.2809 365.668 91.5173 365.979 88.5635C366.691 82.7559 368.437 77.1787 371.186 71.9018C372.009 69.9593 369.791 67.9166 368.076 66.5749C365.949 64.8126 364.574 64.1417 363.491 64.362C362.959 64.4622 362.518 64.7926 362.267 65.2632C360.852 67.7564 359.287 70.2096 357.612 72.5727C357.552 72.4525 357.492 72.3224 357.431 72.2022C356.689 70.6502 356.137 69.4887 355.766 68.7477C355.385 67.9867 354.813 66.9754 354.07 65.7338C353.288 64.4221 352.616 63.5009 352.024 62.9001C351.452 62.3194 350.71 61.7587 349.766 61.1679C348.733 60.517 347.7 60.2467 346.686 60.3468C345.794 60.4369 344.79 60.7473 343.607 61.2981C342.473 61.8287 341.239 62.6598 339.904 63.8113C338.289 65.3433 336.604 67.1056 334.748 69.2183C332.962 71.251 331.106 73.604 329.049 76.4077C327.013 79.1913 325.347 81.9549 324.103 84.6083C322.839 87.3118 321.906 90.1155 321.334 92.9291C320.722 95.913 320.953 98.5965 322.006 100.879C323.24 103.783 324.705 105.836 326.491 107.178C328.066 108.359 329.792 108.95 331.628 108.95C331.929 108.95 332.23 108.93 332.531 108.9C334.567 108.69 336.684 108.039 338.821 106.957C340.958 105.876 343.215 104.324 345.523 102.341C347.85 100.339 350.017 98.2761 351.974 96.1934C353.418 94.6614 354.913 92.9892 356.528 91.1168C357.351 98.6365 361.274 103.633 368.216 105.966C371.637 107.098 375.129 106.947 378.6 105.505C381.981 104.104 385.382 101.5 388.713 97.7654C390.8 95.4224 392.605 93.2796 394.13 91.3571C393.759 93.63 393.739 95.8529 394.09 97.9957C394.682 101.63 396.568 104.294 399.698 105.896C401.203 106.697 402.818 107.168 404.504 107.298C404.785 107.318 405.066 107.328 405.357 107.328C406.791 107.328 408.306 107.047 409.881 106.507C411.607 105.906 413.182 105.295 414.547 104.694C415.891 104.104 417.576 103.122 419.553 101.781C421.389 100.529 422.783 99.5477 423.586 98.9269L423.917 98.6666C424.669 98.0858 425.783 97.2247 427.308 96.0632C431.963 92.0179 436.448 87.7224 440.741 83.2566C440.37 84.1778 440.039 85.0389 439.748 85.8099C439.217 87.2317 438.705 88.974 438.183 91.1468C437.682 93.2495 437.461 95.3022 437.541 97.2447C437.621 99.1873 438.063 100.97 438.845 102.562C439.668 104.905 441.203 106.677 443.41 107.849C444.865 108.609 446.38 109 447.925 109C448.747 109 449.58 108.89 450.413 108.68C454.285 107.808 458.93 103.663 464.599 96.0332C467.518 92.1581 470.669 87.6423 473.999 82.5757C473.889 85.4494 474.17 88.3131 474.852 91.1568C475.625 93.9905 477.059 96.6039 479.116 98.9169C481.183 101.25 483.691 102.992 486.55 104.094C489.459 105.215 492.399 105.475 495.288 104.875C499.402 103.923 503.956 100.879 508.842 95.8229C513.708 90.7864 517.34 85.5095 519.647 80.1225C519.958 79.3916 520.069 78.6406 519.958 77.8095L519.938 77.8195ZM465.883 74.8557C463.405 78.6606 461.027 82.1251 458.81 85.159H458.8C450.182 97.3749 447.383 99.7079 446.55 100.128C446.4 99.6378 446.299 97.8756 448.597 92.1381C450.704 86.8813 452.931 82.2653 455.238 78.3602L456.342 76.2074C456.934 75.0459 457.466 74.1147 457.857 73.4238C458.238 72.7429 458.76 72.062 459.432 71.3411C460.004 70.7303 460.586 70.3298 461.128 70.1395C461.128 70.1395 461.439 70.1395 462.211 70.8004C463.054 71.5213 463.917 72.4325 464.779 73.4939C465.221 74.0346 465.622 74.5252 465.883 74.8557V74.8557ZM354.933 76.1173C351.853 80.1726 348.372 84.1878 344.57 88.0528C340.557 92.1481 337.055 95.3823 334.176 97.6653C331.828 99.5277 330.715 100.088 330.233 100.259C330.233 100.219 330.213 100.179 330.213 100.138C330.213 100.098 330.213 99.8782 330.434 99.0971C330.624 98.4463 330.795 97.9156 330.955 97.5351C331.116 97.1346 331.357 96.5939 331.668 95.923C332.029 95.162 332.24 94.6814 332.3 94.4711C334.457 89.2644 337.346 84.348 340.898 79.8121C342.413 77.6393 344.168 75.3964 346.115 73.1434C348.011 70.9306 348.823 70.2196 349.134 69.9893C349.425 70.1496 350.168 70.6903 351.803 72.3825C353.519 74.1748 354.442 75.3563 354.933 76.1073V76.1173Z" fill="#222222"/>
<path d="M188.056 89.4966C188.588 88.6755 188.879 88.0646 188.99 87.4537C189.07 86.5825 188.658 86.1218 188.407 85.9215C187.654 85.3207 186.579 85.561 185.815 85.8014C183.545 86.5825 181.837 87.7041 180.732 89.1461C174.575 94.9043 174.283 95.0044 173.048 95.4351C172.405 95.6554 171.541 95.9658 169.873 96.8571C168.578 97.3077 167.272 97.5981 165.865 97.7684C164.519 97.9186 163.143 97.8986 161.757 97.7083C160.561 97.538 159.617 97.0574 158.854 96.2462C158.12 95.4551 157.769 94.3535 157.769 92.8714C157.769 92.1804 157.839 91.5095 157.99 90.8085C158.14 90.1075 158.422 89.3164 158.833 88.4551C159.275 87.5238 159.627 86.8128 159.868 86.3221C160.109 85.8414 160.531 85.0503 161.134 83.9688C161.616 83.0975 162.088 82.2563 162.249 82.026L162.309 81.9259C162.44 81.6655 162.852 80.9945 163.605 79.873C164.419 78.6612 164.941 77.79 165.263 77.119C165.624 76.368 165.936 75.5268 166.187 74.6055C166.498 73.4538 166.408 72.4124 165.915 71.5211C165.484 70.74 164.76 70.1291 163.726 69.6384C163.153 68.9875 161.646 68.9074 158.251 69.2379C157.055 69.348 156.121 69.4381 155.388 69.4982C158.15 66.524 159.617 64.0004 159.838 61.8474C160.059 60.3052 159.858 59.1535 159.205 58.3223C158.673 57.6414 157.879 57.2508 156.784 57.1407C154.343 57.0606 151.591 58.2022 148.647 60.5355C146.407 62.2579 144.418 64.5612 142.57 67.5555C140.601 70.75 140.29 73.4939 141.646 75.7171L141.706 75.8072C134.272 83.7084 125.382 89.7169 115.267 93.6425C112.022 94.8242 108.516 95.4851 104.839 95.6053C101.193 95.7255 97.8076 95.1346 94.7638 93.8428C92.1219 92.7312 90.3539 91.169 89.3695 89.1061C92.0215 87.5338 94.0406 86.3321 95.4369 85.5009C96.9638 84.5897 99.2742 83.0875 102.298 81.0546C105.322 79.0117 107.753 77.1691 109.531 75.5668C111.289 73.9846 113.046 72.0318 114.754 69.7786C116.512 67.4553 117.667 65.142 118.18 62.9189C119.234 58.813 117.647 56.67 116.13 55.5985C114.041 54.1264 111.359 53.7358 108.154 54.4569C102.559 55.6686 96.6825 59.9046 90.1731 67.4153C88.375 69.4782 86.7577 71.6813 85.3614 73.9846C84.6783 74.4553 83.9851 75.0862 83.302 75.8773C79.0127 80.7242 74.1909 85.2205 68.9572 89.2363C63.7235 93.262 58.4397 96.3063 53.2763 98.2891C50.333 99.3206 48.0125 99.8814 46.3852 99.9515C45.4509 99.9915 44.2354 99.9114 43.8336 99.3005C43.4117 98.6696 43.2008 97.7383 43.2008 96.5366C43.2008 95.2548 43.462 93.8128 44.0144 92.1203C44.6373 90.1676 45.1496 88.385 45.5715 86.6526C46.0738 84.5596 46.4555 82.8672 46.7468 81.335C47.1084 79.4724 47.008 77.78 46.4655 76.3379C46.0034 75.0261 44.798 73.574 41.6739 74.0847C39.6347 74.4152 37.5553 75.1062 35.4959 76.1377C33.4768 77.1491 31.7691 78.2206 30.413 79.3122C26.0533 82.727 21.8543 86.3822 17.8863 90.2277L44.4163 25.3255C44.9788 23.6331 43.4017 22.0608 42.8894 21.5401C41.7341 20.3785 40.4282 19.4271 39.0118 18.7161C37.6858 18.0451 36.8521 17.8649 36.2092 18.0952C35.8475 18.2354 35.5663 18.5058 35.4156 18.8563L0.196377 105.599C-0.305893 106.751 0.156196 108.053 1.5726 109.465C2.73787 110.627 4.03372 111.578 5.45013 112.289C6.41448 112.77 7.11766 113 7.67016 113C7.88111 113 8.07198 112.97 8.25279 112.9C8.61443 112.76 8.8957 112.489 9.03634 112.149L9.73951 110.506C14.0992 103.747 19.1922 97.518 24.888 91.9902C27.8212 89.2062 31.0056 86.5324 34.3709 84.0289C36.2594 82.6168 37.1233 82.3164 37.4548 82.2563C37.4548 82.3465 37.4548 82.4967 37.4347 82.707C37.3644 83.418 37.1133 84.4795 36.6813 85.8815C36.2493 87.2735 35.7672 88.6054 35.2448 89.8371C34.6823 91.159 34.2302 92.571 33.8485 94.1633C33.4668 95.7355 33.2558 97.1675 33.2056 98.5395C33.1554 99.9415 33.4567 101.353 34.0996 102.735C34.7526 104.137 35.8274 105.309 37.284 106.22C43.5524 110.266 53.0754 107.532 66.4157 97.8385C71.4284 94.1132 76.21 90.0574 80.7103 85.7112C80.7003 85.7914 80.6701 85.8615 80.6601 85.9416C80.0674 89.2863 80.1176 92.3306 80.8007 95.0145C81.524 97.8485 83.4125 100.202 86.4061 102.004C89.3393 103.767 93.2671 104.708 98.0788 104.788C98.3601 104.788 98.6313 104.788 98.9126 104.788C107.049 104.788 115.307 102.365 123.464 97.5881C131.801 92.7112 139.536 86.5625 146.437 79.3322C146.658 79.1119 146.819 78.9116 146.94 78.6913C147.141 78.461 147.311 78.2406 147.472 78.0303H150.888C151.47 78.0303 152.193 78.0103 153.027 77.9703C153.821 77.9302 154.444 77.9102 154.876 77.9102C155.308 77.9102 155.729 77.9202 156.192 77.9703C156.423 77.9903 156.563 78.0203 156.634 78.0303C156.634 78.0604 156.654 78.0904 156.664 78.1305C156.664 78.1305 156.704 78.3107 156.523 78.7514C156.322 79.232 156.021 79.883 155.659 80.594C155.006 81.7256 154.413 82.8772 153.841 84.109C153.298 85.2706 152.726 86.5625 152.113 88.0045C151.49 89.4465 150.988 90.8285 150.606 92.1003C150.225 93.3621 149.913 94.714 149.662 96.1461C149.391 97.6883 149.351 98.9601 149.541 100.052C149.722 101.113 150.064 102.185 150.536 103.236C151.088 104.448 152.003 105.349 153.258 105.89C154.403 106.391 155.76 106.741 157.266 106.941C157.739 107.001 158.251 107.042 158.793 107.042C160.069 107.042 161.516 106.861 163.103 106.511C169.311 105.429 175.318 102.335 180.974 97.3177C181.898 96.4966 182.691 95.8056 183.364 95.2147C186.75 92.2505 187.523 91.5796 188.076 89.5167L188.056 89.4966ZM100.44 74.5854C97.9482 76.4581 95.9191 77.8601 94.2515 78.8916C92.8954 79.7227 91.1375 80.7642 89.0179 81.986C89.3293 80.7041 89.7914 79.4423 90.3941 78.2306L90.4142 78.1806C91.7703 75.006 93.7191 71.9417 96.2104 69.0576C98.6414 66.2336 101.193 64.3809 103.754 63.5398C105.06 63.1792 106.005 63.0491 106.698 63.0491C107.391 63.0491 107.823 63.1792 108.094 63.3295C108.516 63.5598 108.978 64.0004 108.757 65.2922C108.546 66.524 107.763 67.8559 106.427 69.2679C104.809 71.0404 102.79 72.833 100.429 74.6055L100.44 74.5854Z" fill="#222222"/>
<path d="M323.482 41.2932C322.108 32.6023 316.942 25.4997 310.01 22.7726C304.253 20.505 297.953 21.5339 292.787 25.5497L292.697 25.6196C287.752 29.4556 283.699 34.5003 279.787 39.3752L279.627 39.575C277.42 42.3221 275.595 45.3889 273.819 48.3558C273.618 48.6955 273.418 49.0251 273.217 49.3648C273.328 48.7954 273.428 48.226 273.538 47.6566C274.22 43.9904 274.922 40.2044 275.384 36.4383C276.507 27.2379 277.159 17.5081 271.682 8.54746C268.914 4.0122 264.159 0.875483 258.943 0.156235C254.229 -0.493086 249.765 0.895462 246.365 4.06215C245.713 4.67151 245.442 4.8713 245.211 5.04113C244.629 5.48067 244.308 5.72042 240.868 9.47649C231.449 19.7657 224.417 32.7422 218.76 43.1613C218.489 43.6508 218.017 44.5898 217.446 45.7286C217.075 46.4578 216.593 47.4268 216.072 48.4357C216.643 46.7175 217.406 44.5398 218.409 41.7527C219.111 39.8048 219.011 37.9167 218.108 36.3084C217.315 34.8799 215.47 32.9819 211.186 32.0629L210.314 31.8731L210.023 32.7222C209.913 33.0618 193.261 85.7867 181.485 128.912C179.589 135.844 183.552 137.942 188.136 139.64L189.099 140L189.44 139.041C189.64 138.472 189.831 137.922 190.011 137.383C190.362 136.344 190.704 135.355 191.075 134.386C198.839 114.267 208.247 91.9902 220.696 64.2892C227.015 50.2239 235.602 36.8678 243.907 23.9414L244.659 22.7626C245.813 24.7505 247.277 26.4487 249.023 27.8073C252.353 30.4146 256.546 31.7332 261.471 31.7332C262.554 31.7332 263.718 31.6533 265.002 31.5035C262.243 55.7181 255.342 79.4234 249.073 99.802C246.956 106.665 247.809 108.223 255.182 110.89L256.064 111.21L256.446 110.361C257.91 107.074 259.355 103.778 260.799 100.481C263.909 93.3688 267.128 86.0165 270.519 78.8939C276.327 66.6867 282.947 53.8401 292.025 42.3621C293.259 44.8095 294.904 46.8574 296.94 48.4457C300.27 51.053 304.463 52.3716 309.388 52.3716C310.261 52.3716 311.194 52.3217 312.227 52.2118C310.903 61.2124 309.258 71.6715 307.071 82.0806C304.503 94.3877 301.314 106.795 298.234 118.782C297.361 122.169 296.499 125.545 295.636 128.932C294.944 131.659 295.115 133.806 296.148 135.515C297.261 137.343 299.287 138.542 302.537 139.301L303.51 139.53L303.741 138.562C306.209 128.442 308.766 119.022 311.234 109.911C314.915 96.3457 318.396 83.5291 321.516 68.8644C323.171 61.0626 324.866 49.9442 323.502 41.2832L323.482 41.2932ZM302.898 40.524C300.431 38.616 298.635 35.2795 298.264 33.4414C301.183 30.8641 305.306 30.6843 309.158 32.9919C312.909 35.2595 313.321 37.1176 313.31 40.544C313.31 40.8936 313.24 41.2633 313.16 41.6628C309.81 42.3122 305.527 42.5719 302.898 40.524ZM265.082 20.485L265.042 20.8446C261.802 21.9235 258.191 21.6538 255.994 20.1353L255.794 19.9855C253.416 18.1874 250.748 15.4103 250.126 13.7021C252.042 11.9139 253.767 10.4055 256.024 9.946C258.833 9.35661 263.287 11.5044 264.811 15.1506C265.463 16.7189 265.453 16.8588 265.082 20.495V20.485Z" fill="#222222"/>
</svg>
