<svg width="72" height="72" viewBox="0 0 72 72" fill="none" xmlns="http://www.w3.org/2000/svg">
<g id="j&#38;j_logo">
<rect id="Rectangle 3852" width="72" height="72" rx="10.8" fill="#EB1700"/>
<g id="Vector">
<path fill-rule="evenodd" clip-rule="evenodd" d="M20.4028 41.2274C20.4028 45.8608 18.0685 49.4046 12.1193 49.4046C6.15428 49.4046 3.83984 45.8608 3.83984 41.2274V39.7131L8.25796 38.604V42.0023C8.25796 45.2275 9.41518 47.1115 12.1193 47.1115C14.8275 47.1115 15.9688 45.3495 15.9688 42.372V24.0667H20.4028V41.2274Z" fill="white"/>
<path fill-rule="evenodd" clip-rule="evenodd" d="M33.5617 23.52C37.8367 23.52 40.2784 25.6518 40.2784 28.3304C40.2784 30.2144 39.1172 31.5556 36.413 33.0188L36.4846 33.1564C37.5861 32.7356 39.2802 32.2951 40.7754 32.2951C43.6228 32.2951 45.4401 34.1083 45.4401 36.8065C45.4401 38.954 44.3386 41.4398 42.4138 43.7132L46.9711 48.6966V48.8736H41.3799L39.2245 46.5648C36.592 48.4174 33.6691 49.44 31.1598 49.44C26.8132 49.44 23.9977 46.3918 23.9977 42.7417C23.9977 39.9963 25.6004 37.2981 29.0919 35.6265L29.0561 35.5557C26.9922 33.3334 26.2088 31.4848 26.2088 29.6519C26.2088 26.2497 28.6306 23.52 33.5458 23.52H33.5617ZM42.4457 38.7062C42.4457 35.835 40.6681 34.1791 37.781 34.1791C36.7669 34.1791 35.554 34.3561 34.3093 34.8477L41.3083 42.4979C42.0917 41.2982 42.4457 39.9963 42.4457 38.7062ZM36.8027 28.8063C36.8027 26.6037 35.5182 25.404 33.4543 25.404C31.3865 25.404 30.0702 26.5683 30.0702 28.6136C30.0702 29.7227 30.444 30.6392 31.8159 32.1181L33.347 33.829C35.8046 32.7356 36.8027 30.8162 36.8027 28.8063ZM38.1747 45.4045L30.106 36.6452C28.7539 37.6167 27.9347 39.308 27.9347 41.1566C27.9347 44.083 30.0344 46.848 33.4543 46.848C34.9854 46.848 36.6596 46.2856 38.1747 45.4045Z" fill="white"/>
<path fill-rule="evenodd" clip-rule="evenodd" d="M65.2799 41.2274C65.2799 45.8608 62.9654 49.4046 57.0004 49.4046C51.0512 49.4046 48.7169 45.8608 48.7169 41.2274V39.6935L53.1509 38.604V42.0023C53.1509 45.2275 54.2922 47.0958 57.0004 47.0958C59.7045 47.0958 60.8617 45.3337 60.8617 42.3563V24.0471H65.2799V41.2274Z" fill="white"/>
</g>
</g>
</svg>
