<?xml version="1.0" encoding="UTF-8" standalone="no"?>
<!-- Created with Inkscape (http://www.inkscape.org/) -->
<svg
   xmlns:svg="http://www.w3.org/2000/svg"
   xmlns="http://www.w3.org/2000/svg"
   version="1.0"
   width="729.20001"
   height="203.97"
   id="svg2">
  <defs
     id="defs4">
    <clipPath
       id="clipPath2418">
      <path
         d="M 120.335,746.984 L 474.665,746.984 L 474.665,95.016 L 120.335,95.016 L 120.335,746.984 z"
         id="path2420" />
    </clipPath>
    <clipPath
       id="clipPath2424">
      <path
         d="M 0,841.98 L 595.2,841.98 L 595.2,0 L 0,0 L 0,841.98 z"
         id="path2426" />
    </clipPath>
    <clipPath
       id="clipPath2442">
      <path
         d="M 148.681,718.638 L 454.823,718.638 L 454.823,523.047 L 148.681,523.047 L 148.681,718.638 z"
         id="path2444" />
    </clipPath>
    <clipPath
       id="clipPath2454">
      <path
         d="M 120.335,746.984 L 474.665,746.984 L 474.665,95.016 L 120.335,95.016 L 120.335,746.984 z"
         id="path2456" />
    </clipPath>
    <clipPath
       id="clipPath2460">
      <path
         d="M 0,841.98 L 595.2,841.98 L 595.2,0 L 0,0 L 0,841.98 z"
         id="path2462" />
    </clipPath>
    <clipPath
       id="clipPath2476">
      <path
         d="M 148.681,523.047 L 454.823,523.047 L 454.823,239.583 L 148.681,239.583 L 148.681,523.047 z"
         id="path2478" />
    </clipPath>
    <clipPath
       id="clipPath2488">
      <path
         d="M 120.335,746.984 L 474.665,746.984 L 474.665,95.016 L 120.335,95.016 L 120.335,746.984 z"
         id="path2490" />
    </clipPath>
    <clipPath
       id="clipPath2494">
      <path
         d="M 0,841.98 L 595.2,841.98 L 595.2,0 L 0,0 L 0,841.98 z"
         id="path2496" />
    </clipPath>
    <clipPath
       id="clipPath2530">
      <path
         d="M 120.335,746.984 L 474.665,746.984 L 474.665,95.016 L 120.335,95.016 L 120.335,746.984 z"
         id="path2532" />
    </clipPath>
    <clipPath
       id="clipPath2536">
      <path
         d="M 0,841.98 L 595.2,841.98 L 595.2,0 L 0,0 L 0,841.98 z"
         id="path2538" />
    </clipPath>
    <clipPath
       id="clipPath2546">
      <path
         d="M -10.059,180.055 L 134.328,180.055 L 134.328,138.156 L -10.059,138.156 L -10.059,180.055 z"
         id="path2548" />
    </clipPath>
    <clipPath
       id="clipPath2552">
      <path
         d="M 120.335,746.984 L 474.665,746.984 L 474.665,95.016 L 120.335,95.016 L 120.335,746.984 z"
         id="path2554" />
    </clipPath>
    <clipPath
       id="clipPath2558">
      <path
         d="M 0,841.98 L 595.2,841.98 L 595.2,0 L 0,0 L 0,841.98 z"
         id="path2560" />
    </clipPath>
    <clipPath
       id="clipPath2576">
      <path
         d="M 120.335,746.984 L 474.665,746.984 L 474.665,95.016 L 120.335,95.016 L 120.335,746.984 z"
         id="path2578" />
    </clipPath>
    <clipPath
       id="clipPath2582">
      <path
         d="M 0,841.98 L 595.2,841.98 L 595.2,0 L 0,0 L 0,841.98 z"
         id="path2584" />
    </clipPath>
  </defs>
  <g
     transform="translate(1.2639971,-275.20206)"
     id="layer1">
    <g
       transform="translate(9.9992876,10.002331)"
       id="g2596">
      <path
         d="M 67.834493,345.77084 C 63.980373,338.58693 56.591056,334.92741 45.823302,334.92741 C 33.596064,334.92741 24.704019,339.85723 20.525568,344.27352 C 20.525568,343.18161 20.525568,336.55987 20.525568,336.55987 L -1.2639971,336.55987 L -1.2639971,397.38254 L 21.228283,397.38254 L 21.228283,365.17118 C 21.228283,355.44128 29.044634,351.97636 36.352869,351.97636 C 39.871848,351.97636 48.044962,352.91151 48.044962,361.54409 L 48.044962,397.38254 L 70.537243,397.38254 L 70.537243,365.16577 C 70.537243,355.44128 78.234673,351.97636 85.429392,351.97636 C 89.883523,351.97636 97.359328,353.22503 97.359328,361.54409 L 97.359328,397.38254 L 119.85161,397.38254 L 119.85161,356.92239 C 119.85161,337.0788 101.6567,334.92741 93.829537,334.92741 C 82.964484,334.92741 73.996762,338.68964 67.834493,345.77084"
         id="path2504"
         style="fill:#1b1c20;fill-opacity:1;fill-rule:nonzero;stroke:none" />
      <path
         d="M 335.58506,316.5325 L 313.35225,316.5325 L 313.35225,397.38254 L 335.84993,397.38254 L 335.84993,368.66854 C 335.84993,354.14937 346.49336,351.97636 352.83941,351.97636 C 361.64497,351.97636 365.93153,355.77102 365.93153,363.58196 L 365.93153,397.38254 L 388.42922,397.38254 L 388.42922,357.59267 C 388.42922,336.56528 366.9802,334.92741 360.40711,334.92741 C 348.88259,334.92741 339.79054,339.58695 335.84993,344.09514 C 335.84993,342.80322 335.84993,316.5325 335.84993,316.5325 L 335.58506,316.5325"
         id="path2506"
         style="fill:#1b1c20;fill-opacity:1;fill-rule:nonzero;stroke:none" />
      <path
         d="M 266.01089,334.9112 C 257.55128,334.9112 250.70252,336.44636 242.94563,343.80865 C 242.94563,342.79241 242.94563,336.57068 242.94563,336.57068 L 221.16147,336.57068 L 221.16147,415.918 L 243.65915,415.918 C 243.65915,415.918 243.65915,394.15546 243.65915,392.96085 C 247.9349,397.41498 255.49719,399.51772 267.42713,399.51772 C 288.40046,399.51772 303.62235,386.07424 303.62235,367.56581 C 303.62235,347.42493 289.20588,334.9112 266.01089,334.9112 z M 261.62703,384.63638 C 252.32957,384.63638 242.94563,379.45791 242.94563,367.90636 C 242.94563,356.3494 252.32957,351.17634 261.62703,351.17634 C 270.99476,351.17634 280.43816,356.3494 280.43816,367.90636 C 280.43816,379.45791 270.99476,384.63638 261.62703,384.63638"
         id="path2508"
         style="fill:#1b1c20;fill-opacity:1;fill-rule:nonzero;stroke:none" />
      <path
         d="M 438.22467,334.43551 C 420.21355,334.43551 403.13218,336.92204 400.09969,354.94397 L 400.04564,355.25749 L 422.06764,355.25749 L 422.14331,355.09533 C 424.8785,348.56008 428.85154,347.87358 437.27331,347.87358 C 450.87895,347.87358 452.76006,350.95472 452.76006,354.2791 C 452.76006,358.30079 451.46274,359.1981 445.02479,359.64135 L 422.90008,361.07922 C 414.13237,361.62517 395.91043,362.76573 395.91043,379.65791 C 395.91043,391.3446 407.80793,399.49609 424.85147,399.49609 C 432.18133,399.49609 445.55453,398.47446 453.73845,391.87975 C 453.75467,392.73382 453.85738,397.77715 453.85738,397.77715 L 475.27396,397.77715 L 475.27937,355.86291 C 475.27937,341.04644 463.84133,334.43551 438.22467,334.43551 z M 453.46818,373.36051 C 453.46818,382.60391 442.70043,387.44183 432.06781,387.44183 C 424.4893,387.44183 419.7703,384.53367 419.7703,379.86332 C 419.7703,375.31189 422.54873,373.41456 429.9975,372.84158 C 430.00291,372.84158 442.0842,371.84156 442.0842,371.84156 C 445.61399,371.54426 449.67893,371.0956 453.46818,369.6145 C 453.46818,370.23613 453.46818,373.36051 453.46818,373.36051"
         id="path2510"
         style="fill:#1b1c20;fill-opacity:1;fill-rule:nonzero;stroke:none" />
      <path
         d="M 212.47483,369.78207 C 212.47483,347.64655 196.96105,334.43551 170.98222,334.43551 C 145.05204,334.43551 128.3004,346.93302 128.3004,366.2739 C 128.3004,387.7013 143.45742,399.49609 170.98222,399.49609 C 191.39879,399.49609 204.80443,392.79328 210.83696,379.57143 L 211.3667,378.40384 L 187.22574,378.40384 L 186.97709,378.77682 C 183.99866,383.17689 178.62019,385.40396 170.98222,385.40396 C 157.43064,385.40396 151.93324,377.56599 151.55486,372.42536 C 152.13865,372.42536 212.47483,372.42536 212.47483,372.42536 L 212.47483,369.78207 z M 150.90079,360.92246 C 150.94944,359.0954 154.66302,347.97629 170.50654,347.97629 C 185.22571,347.97629 189.8366,357.41969 189.87444,360.92246 C 189.33929,360.92246 151.43594,360.92246 150.90079,360.92246"
         id="path2512"
         style="fill:#1b1c20;fill-opacity:1;fill-rule:nonzero;stroke:none" />
      <path
         d="M 524.04237,341.57077 C 543.2427,316.85142 565.39984,294.54834 589.99486,275.20206 L 524.04237,275.20206 L 524.04237,341.57077"
         id="path2514"
         style="fill:#fdca00;fill-opacity:1;fill-rule:nonzero;stroke:none" />
      <path
         d="M 524.04237,341.57077 L 524.04237,420.17753 C 555.99968,358.40349 606.33028,307.66748 667.75296,275.20206 L 589.99486,275.20206 C 565.39984,294.54834 543.2427,316.85142 524.04237,341.57077"
         id="path2516"
         style="fill:#ee7900;fill-opacity:1;fill-rule:nonzero;stroke:none" />
      <path
         d="M 524.04237,420.17753 L 524.04237,459.1674 L 552.62124,459.1674 C 582.53527,389.3716 638.34164,333.31117 707.93744,303.05119 L 707.93744,275.20206 L 667.75296,275.20206 C 606.33028,307.66748 555.99968,358.40349 524.04237,420.17753"
         id="path2518"
         style="fill:#d8000b;fill-opacity:1;fill-rule:nonzero;stroke:none" />
      <path
         d="M 552.62124,459.1674 L 599.64368,459.1674 C 623.68193,412.6747 661.61231,374.5281 707.93744,350.20335 L 707.93744,303.05119 C 638.34164,333.31117 582.53527,389.3716 552.62124,459.1674"
         id="path2520"
         style="fill:#2e1c85;fill-opacity:1;fill-rule:nonzero;stroke:none" />
      <path
         d="M 599.64368,459.1674 L 648.87696,459.1674 C 664.4502,435.64807 684.53703,415.38286 707.93744,399.65285 L 707.93744,350.20335 C 661.61231,374.5281 623.68193,412.6747 599.64368,459.1674"
         id="path2522"
         style="fill:#0076c0;fill-opacity:1;fill-rule:nonzero;stroke:none" />
      <path
         d="M 648.87696,459.1674 L 707.93744,459.1674 L 707.93744,399.65285 C 684.53703,415.38286 664.4502,435.64807 648.87696,459.1674"
         id="path2524"
         style="fill:#009836;fill-opacity:1;fill-rule:nonzero;stroke:none" />
    </g>
  </g>
</svg>
