<svg width="36" height="56" viewBox="0 0 36 56" fill="none" xmlns="http://www.w3.org/2000/svg">
<rect width="36" height="6" rx="3" fill="#042941"/>
<rect y="10" width="36" height="36" rx="8" fill="#13B89C"/>
<path d="M26.6306 31.1767C24.3843 33.1679 21.5074 35.7757 18 39C14.3211 35.601 11.4014 32.9496 9.24086 31.0457C7.08029 29.1425 6 26.7734 6 23.9386C6 22.2904 6.56714 20.8887 7.70143 19.7336C8.83514 18.5778 10.2109 18 11.8286 18C13.38 18 14.57 18.3595 15.3986 19.0786C16.2271 19.797 17.0943 20.7274 18 21.8697C18.9057 20.7274 19.7729 19.797 20.6014 19.0786C21.43 18.3595 22.62 18 24.1714 18C25.7891 18 27.1649 18.5778 28.2986 19.7336C29.4329 20.8887 30 22.2904 30 23.9386C30 26.7734 28.8769 29.1861 26.6306 31.1767Z" fill="url(#paint0_linear_190_6635)"/>
<rect y="50" width="36" height="6" rx="3" fill="#042941"/>
<defs>
<linearGradient id="paint0_linear_190_6635" x1="6" y1="39" x2="40.6686" y2="22.8956" gradientUnits="userSpaceOnUse">
<stop stop-color="#042941"/>
<stop offset="1" stop-color="#13B89C"/>
</linearGradient>
</defs>
</svg>
