<svg width="36" height="56" viewBox="0 0 36 56" fill="none" xmlns="http://www.w3.org/2000/svg">
<path fill-rule="evenodd" clip-rule="evenodd" d="M14.7273 35.9059V39.3647H21.2727V35.9059C25.5818 35.1373 29.1136 33.0647 31.8682 29.6882C34.6227 26.3118 36 22.4 36 17.9529C36 12.9569 34.2409 8.71569 30.7227 5.22941C27.2045 1.74314 22.9636 0 18 0C13.0364 0 8.79545 1.74314 5.27727 5.22941C1.75909 8.71569 0 12.9569 0 17.9529C0 22.4 1.37727 26.3118 4.13182 29.6882C6.88636 33.0647 10.4182 35.1373 14.7273 35.9059Z" fill="#13B89C"/>
<path d="M14.7273 49.4118V52.7059C14.7273 54.5252 16.1925 56 18 56C19.8075 56 21.2727 54.5252 21.2727 52.7059V49.4118H24.5455C26.3529 49.4118 27.8182 47.9369 27.8182 46.1176C27.8182 44.2984 26.3529 42.8235 24.5455 42.8235H21.2727V39.3647H14.7273V42.8235H11.4545C9.64707 42.8235 8.18182 44.2984 8.18182 46.1176C8.18182 47.9369 9.64707 49.4118 11.4545 49.4118H14.7273Z" fill="white"/>
<path d="M18 6.3C14.8307 6.3 12.1259 7.46167 9.88554 9.785C7.64518 12.1083 6.525 14.9133 6.525 18.2C6.525 21.4867 7.64518 24.2917 9.88554 26.615C12.1259 28.9383 14.8307 30.1 18 30.1C21.1693 30.1 23.8741 28.9383 26.1145 26.615C28.3548 24.2917 29.475 21.4867 29.475 18.2C29.475 14.9133 28.3548 12.1083 26.1145 9.785C23.8741 7.46167 21.1693 6.3 18 6.3Z" fill="url(#paint0_linear_190_6693)"/>
<path fill-rule="evenodd" clip-rule="evenodd" d="M9.88554 9.785C12.1259 7.46167 14.8307 6.3 18 6.3C21.1693 6.3 23.8741 7.46167 26.1145 9.785C28.3548 12.1083 29.475 14.9133 29.475 18.2C29.475 21.4867 28.3548 24.2917 26.1145 26.615C23.8741 28.9383 21.1693 30.1 18 30.1C14.8307 30.1 12.1259 28.9383 9.88554 26.615C7.64518 24.2917 6.525 21.4867 6.525 18.2C6.525 14.9133 7.64518 12.1083 9.88554 9.785Z" fill="url(#paint1_linear_190_6693)"/>
<defs>
<linearGradient id="paint0_linear_190_6693" x1="6.525" y1="30.1" x2="41.4633" y2="16.4062" gradientUnits="userSpaceOnUse">
<stop stop-color="#042941"/>
<stop offset="1" stop-color="#13B89C"/>
</linearGradient>
<linearGradient id="paint1_linear_190_6693" x1="6.525" y1="30.1" x2="41.4633" y2="16.4062" gradientUnits="userSpaceOnUse">
<stop stop-color="#042941"/>
<stop offset="1" stop-color="#13B89C"/>
</linearGradient>
</defs>
</svg>
