<svg width="23" height="16" viewBox="0 0 23 16" fill="none" xmlns="http://www.w3.org/2000/svg">
<g clip-path="url(#clip0_192_8696)">
<rect width="22.4" height="16" rx="1" fill="#009EDB"/>
<mask id="mask0_192_8696" style="mask-type:luminance" maskUnits="userSpaceOnUse" x="0" y="0" width="23" height="16">
<rect width="22.4" height="16" rx="1.6" fill="white"/>
</mask>
<g mask="url(#mask0_192_8696)">
</g>
<path d="M12.3482 12.0648C12.2904 12.131 12.2155 12.1928 12.1449 12.2498C11.6887 11.7783 11.1531 11.2558 10.644 11.2558C10.3284 11.2558 10.1011 11.4961 9.83592 11.6656C9.46788 11.9008 8.96306 12.0333 8.53046 11.8607C8.29778 11.7723 8.07233 11.6422 7.90385 11.4307C8.24434 11.6656 8.75423 11.6972 9.13864 11.5377C9.56353 11.3614 9.99598 11.1273 10.4802 11.1273C11.194 11.1273 11.8723 11.6101 12.3482 12.0648ZM7.07278 10.582C7.54537 11.12 8.31612 10.9469 8.94701 11.0813C9.03482 11.1 9.1173 11.1291 9.21156 11.1147C9.13658 11.0671 9.03714 11.0618 8.95051 11.0291C8.46102 10.8447 8.3847 10.3208 8.11681 9.96028C8.45898 10.1877 8.74245 10.4992 9.06241 10.7918C9.28508 10.9955 9.56252 11.0827 9.85027 11.1412C9.78113 11.1665 9.69068 11.1605 9.61621 11.179C9.09936 11.3072 8.52633 11.5096 7.97638 11.3281C7.62145 11.211 7.25212 10.9336 7.07278 10.582ZM6.31526 9.33698C6.61004 10.0044 7.35065 10.0566 7.84309 10.4661C7.93672 10.5439 8.02956 10.6156 8.13241 10.6635L8.13771 10.6582C8.02408 10.5554 7.90112 10.4328 7.81309 10.3049C7.53164 9.89598 7.62531 9.337 7.40829 8.90343C7.60546 9.13951 7.79038 9.38259 7.90391 9.65289C8.0866 10.0879 8.14867 10.5841 8.55841 10.9146C8.11496 10.7683 7.60336 10.7974 7.20401 10.5359C6.78426 10.2609 6.39523 9.82697 6.31526 9.33698ZM5.99949 7.98673C6.04212 8.57473 6.66811 8.88882 6.96662 9.37217C7.03037 9.47541 7.09596 9.58197 7.18856 9.66534C7.17413 9.60275 7.12261 9.54727 7.09425 9.48585C6.99853 9.27845 6.95519 9.03846 6.97909 8.79167C7.00818 8.49141 7.13335 8.21258 7.08531 7.8967C7.34259 8.45205 7.25959 9.14632 7.40829 9.74678C7.44119 9.87963 7.52208 9.99588 7.57192 10.1217C7.31913 9.92939 6.98785 9.75869 6.71037 9.53997C6.44202 9.32845 6.20908 9.08053 6.08801 8.75793C6.00078 8.52549 5.97807 8.24822 5.99949 7.98673ZM6.01698 6.90332C6.04717 6.77209 6.07027 6.63626 6.12737 6.51588C6.01928 7.07056 6.38829 7.47123 6.51428 7.95113C6.56176 8.13197 6.578 8.32411 6.65114 8.49287C6.65795 8.49652 6.66386 8.48943 6.66807 8.48398C6.48602 7.97325 6.75289 7.50125 7.01288 7.09868C7.0812 6.99287 7.11412 6.86965 7.14602 6.74508C7.17413 6.97628 7.12493 7.24392 7.08215 7.48249C7.02708 7.78964 6.92211 8.07752 6.83868 8.37387C6.78374 8.559 6.79822 8.76795 6.82641 8.96191L6.7999 8.94077C6.60634 8.58343 6.22444 8.30428 6.10911 7.91426C6.01694 7.60255 5.95317 7.24244 6.01698 6.90332ZM6.22113 6.30666C6.22113 5.8869 6.38457 5.54449 6.62974 5.23189C6.63685 5.22834 6.64192 5.22121 6.65109 5.22286C6.38122 5.63342 6.62686 6.15164 6.59218 6.61729L6.55658 7.0952C6.56187 7.09868 6.56187 7.11303 6.57441 7.10753C6.59036 7.05425 6.59519 6.99757 6.60447 6.94255C6.66944 6.55728 7.00775 6.2891 7.29468 6.0171C7.3603 5.95497 7.41138 5.87909 7.44424 5.7949C7.42039 5.98683 7.36685 6.18357 7.28069 6.35798C7.05985 6.80509 6.6333 7.166 6.55658 7.6741C6.51939 7.18714 6.22113 6.82513 6.22113 6.30666ZM6.93255 4.89072C7.06825 4.74024 7.22036 4.62302 7.40144 4.57668C7.04981 4.81845 7.06891 5.25058 6.96125 5.61189C6.92189 5.744 6.86403 5.86778 6.83327 6.00432L6.84218 6.01141C6.90066 5.85706 7.00104 5.70868 7.13182 5.58529C7.37914 5.35197 7.75098 5.21072 7.87336 4.86941C7.86777 5.34372 7.46345 5.70428 7.09418 5.9832C6.92853 6.10833 6.7878 6.2763 6.70191 6.45239C6.71626 6.32133 6.72277 6.21229 6.71108 6.08437C6.67318 5.67003 6.64858 5.20554 6.93255 4.89072ZM8.35976 4.09326C8.0988 4.32225 7.92469 4.617 7.72419 4.88196C7.55746 5.10233 7.32867 5.23887 7.13191 5.42379C7.23811 5.20344 7.25773 4.95095 7.39261 4.73777C7.62325 4.37323 8.00446 4.23175 8.35976 4.09326Z" fill="white"/>
<path d="M9.65177 12.0648C9.70965 12.131 9.78455 12.1928 9.85515 12.2498C10.3113 11.7783 10.8469 11.2558 11.356 11.2558C11.6716 11.2558 11.8989 11.4961 12.1641 11.6656C12.5321 11.9008 13.0369 12.0333 13.4695 11.8607C13.7022 11.7723 13.9277 11.6422 14.0962 11.4307C13.7557 11.6656 13.2458 11.6972 12.8614 11.5377C12.4365 11.3614 12.004 11.1273 11.5198 11.1273C10.806 11.1273 10.1277 11.6101 9.65177 12.0648ZM14.9272 10.582C14.4546 11.12 13.6839 10.9469 13.053 11.0813C12.9652 11.1 12.8827 11.1291 12.7884 11.1147C12.8634 11.0671 12.9629 11.0618 13.0495 11.0291C13.539 10.8447 13.6153 10.3208 13.8832 9.96028C13.541 10.1877 13.2575 10.4992 12.9376 10.7918C12.7149 10.9955 12.4375 11.0827 12.1497 11.1412C12.2189 11.1665 12.3093 11.1605 12.3838 11.179C12.9006 11.3072 13.4737 11.5096 14.0236 11.3281C14.3786 11.211 14.7479 10.9336 14.9272 10.582ZM15.6847 9.33698C15.39 10.0044 14.6494 10.0566 14.1569 10.4661C14.0633 10.5439 13.9704 10.6156 13.8676 10.6635L13.8623 10.6582C13.9759 10.5554 14.0989 10.4328 14.1869 10.3049C14.4684 9.89598 14.3747 9.337 14.5917 8.90343C14.3945 9.13951 14.2096 9.38259 14.0961 9.65289C13.9134 10.0879 13.8513 10.5841 13.4416 10.9146C13.885 10.7683 14.3966 10.7974 14.796 10.5359C15.2157 10.2609 15.6048 9.82697 15.6847 9.33698ZM16.0005 7.98673C15.9579 8.57473 15.3319 8.88882 15.0334 9.37217C14.9696 9.47541 14.904 9.58197 14.8114 9.66534C14.8259 9.60275 14.8774 9.54727 14.9058 9.48585C15.0015 9.27845 15.0448 9.03846 15.0209 8.79167C14.9918 8.49141 14.8667 8.21258 14.9147 7.8967C14.6574 8.45205 14.7404 9.14632 14.5917 9.74678C14.5588 9.87963 14.4779 9.99588 14.4281 10.1217C14.6809 9.92939 15.0121 9.75869 15.2896 9.53997C15.558 9.32845 15.7909 9.08053 15.912 8.75793C15.9992 8.52549 16.0219 8.24822 16.0005 7.98673ZM15.983 6.90332C15.9528 6.77209 15.9297 6.63626 15.8726 6.51588C15.9807 7.07056 15.6117 7.47123 15.4857 7.95113C15.4382 8.13197 15.422 8.32411 15.3489 8.49287C15.3421 8.49652 15.3361 8.48943 15.3319 8.48398C15.514 7.97325 15.2471 7.50125 14.9871 7.09868C14.9188 6.99287 14.8859 6.86965 14.854 6.74508C14.8259 6.97628 14.8751 7.24392 14.9179 7.48249C14.9729 7.78964 15.0779 8.07752 15.1613 8.37387C15.2163 8.559 15.2018 8.76795 15.1736 8.96191L15.2001 8.94077C15.3937 8.58343 15.7756 8.30428 15.8909 7.91426C15.9831 7.60255 16.0468 7.24244 15.983 6.90332ZM15.7789 6.30666C15.7789 5.8869 15.6154 5.54449 15.3703 5.23189C15.3632 5.22834 15.3581 5.22121 15.3489 5.22286C15.6188 5.63342 15.3731 6.15164 15.4078 6.61729L15.4434 7.0952C15.4381 7.09868 15.4381 7.11303 15.4256 7.10753C15.4096 7.05425 15.4048 6.99757 15.3955 6.94255C15.3306 6.55728 14.9923 6.2891 14.7053 6.0171C14.6397 5.95497 14.5886 5.87909 14.5558 5.7949C14.5796 5.98683 14.6332 6.18357 14.7193 6.35798C14.9402 6.80509 15.3667 7.166 15.4434 7.6741C15.4806 7.18714 15.7789 6.82513 15.7789 6.30666ZM15.0675 4.89072C14.9318 4.74024 14.7796 4.62302 14.5986 4.57668C14.9502 4.81845 14.9311 5.25058 15.0387 5.61189C15.0781 5.744 15.136 5.86778 15.1667 6.00432L15.1578 6.01141C15.0993 5.85706 14.999 5.70868 14.8682 5.58529C14.6209 5.35197 14.249 5.21072 14.1266 4.86941C14.1322 5.34372 14.5366 5.70428 14.9058 5.9832C15.0715 6.10833 15.2122 6.2763 15.2981 6.45239C15.2837 6.32133 15.2772 6.21229 15.2889 6.08437C15.3268 5.67003 15.3514 5.20554 15.0675 4.89072ZM13.6402 4.09326C13.9012 4.32225 14.0753 4.617 14.2758 4.88196C14.4425 5.10233 14.6713 5.23887 14.8681 5.42379C14.7619 5.20344 14.7423 4.95095 14.6074 4.73777C14.3767 4.37323 13.9955 4.23175 13.6402 4.09326Z" fill="white"/>
<path d="M14.1871 8.83475L14.11 8.79268C13.9474 9.12802 13.7317 9.43496 13.4714 9.70169L13.0211 9.25137C13.2417 9.02405 13.4196 8.76602 13.5506 8.48714L13.4739 8.44518C13.345 8.72026 13.1713 8.97201 12.9599 9.19011L12.5519 8.7822C12.7246 8.60297 12.8648 8.39514 12.9663 8.16796L12.8902 8.12643C12.7926 8.34637 12.6575 8.54766 12.4909 8.72129L12.0401 8.27049C12.1638 8.13967 12.2615 7.98659 12.3281 7.81936L12.252 7.77783C12.1895 7.93786 12.097 8.08447 11.9794 8.20975L11.5703 7.80065C11.6864 7.67152 11.7548 7.50647 11.764 7.33303H12.3431C12.3384 7.48541 12.3075 7.63586 12.252 7.77783L12.3281 7.81936C12.3897 7.66436 12.4237 7.49974 12.4284 7.333H13.0669C13.0614 7.60661 13.0013 7.87636 12.8902 8.12643L12.9663 8.16796C13.0824 7.90799 13.1465 7.62546 13.1522 7.33296H13.7302C13.7246 7.71768 13.6372 8.0968 13.4738 8.44516L13.5506 8.48712C13.7184 8.12995 13.8096 7.73847 13.8156 7.33298H14.454C14.4477 7.85546 14.3246 8.35017 14.11 8.79268L14.1871 8.8347C14.4179 8.3593 14.5405 7.83432 14.5405 7.29029C14.5405 6.82765 14.4518 6.37883 14.2834 5.96245L14.2043 5.99646C14.3629 6.38938 14.4489 6.81193 14.4542 7.24762H13.8157C13.8105 6.90004 13.7422 6.56298 13.6173 6.24878L13.5388 6.28243C13.6593 6.58618 13.7253 6.91181 13.7304 7.24762H13.1522C13.1475 6.99545 13.0985 6.74606 13.0073 6.5109L12.9288 6.54463C13.0155 6.76911 13.0622 7.00703 13.067 7.24762H12.4285C12.4241 7.09367 12.3949 6.94144 12.342 6.79682L12.2635 6.83051C12.312 6.96443 12.3389 7.10523 12.3432 7.24762H11.7641C11.7549 7.07418 11.6865 6.90912 11.5703 6.78L11.9799 6.37049C12.1064 6.50499 12.2021 6.66119 12.2635 6.83053L12.342 6.79684C12.2762 6.61774 12.1745 6.4525 12.0402 6.31016L12.4916 5.85874C12.6843 6.05926 12.8313 6.29207 12.9288 6.54463L13.0073 6.5109C12.9055 6.24857 12.7524 6.00669 12.552 5.79841L12.9608 5.38955C13.2139 5.65066 13.4084 5.95362 13.5388 6.28245L13.6173 6.24878C13.4826 5.91013 13.282 5.59813 13.0211 5.32933L13.4725 4.87784C13.7918 5.20488 14.038 5.58438 14.2043 5.99648L14.2834 5.96247C14.1077 5.52763 13.845 5.12825 13.5034 4.78663C13.1605 4.44373 12.7593 4.18043 12.3226 4.00468L12.2912 4.08476C12.7042 4.25112 13.0845 4.49766 13.4121 4.81751L12.9607 5.26897C12.6965 5.01287 12.3903 4.81435 12.0579 4.67985L12.0268 4.75926C12.3482 4.88966 12.6444 5.08167 12.9004 5.32999L12.4917 5.73877C12.293 5.54759 12.0638 5.39915 11.8154 5.29753L11.7842 5.37692C12.0219 5.47431 12.2411 5.61637 12.4314 5.7991L11.98 6.2505C11.853 6.13083 11.7078 6.03689 11.5509 5.97139L11.5197 6.05084C11.6675 6.11289 11.8029 6.20097 11.9196 6.31087L11.5101 6.72038C11.38 6.6038 11.2168 6.53623 11.0424 6.52671V5.94758C11.2065 5.95244 11.3683 5.98745 11.5197 6.05086L11.5509 5.97139C11.3914 5.90476 11.2196 5.86744 11.0424 5.86224V5.22377C11.3009 5.22897 11.5514 5.2815 11.7843 5.37694L11.8154 5.29753C11.5728 5.19827 11.3117 5.1437 11.0424 5.1385V4.56012C11.3852 4.56536 11.7176 4.63372 12.0268 4.75907L12.0579 4.67966C11.7389 4.55045 11.3961 4.48006 11.0424 4.47482V3.83628C11.4772 3.84157 11.899 3.92727 12.2912 4.08519L12.3227 4.00511C11.9077 3.83802 11.4605 3.75 10.9998 3.75C10.4305 3.75 9.89267 3.88581 9.4157 4.12549L9.45461 4.19996C9.91615 3.9687 10.4268 3.84271 10.9571 3.83631V4.47484C10.5384 4.48083 10.1264 4.58074 9.75144 4.76721L9.79023 4.84146C10.1493 4.66372 10.5457 4.56633 10.9571 4.56005V5.13822C10.6455 5.1441 10.3389 5.21803 10.0588 5.35481L10.0978 5.4294C10.363 5.30071 10.6545 5.22959 10.9571 5.22349V5.86201C10.7623 5.86762 10.5707 5.91326 10.3943 5.99607L10.4335 6.07097C10.5961 5.99543 10.7734 5.95295 10.9571 5.94726V6.5265C10.8695 6.53132 10.7834 6.55121 10.7026 6.5853L10.7418 6.66013C10.8237 6.62667 10.9113 6.60952 10.9998 6.60964C11.1817 6.60964 11.3527 6.68048 11.4813 6.80909C11.61 6.93772 11.6808 7.10881 11.6808 7.29072C11.6808 7.66624 11.3754 7.97184 10.9998 7.97184C10.8178 7.97184 10.6468 7.90098 10.5181 7.77235C10.3895 7.64366 10.3187 7.47264 10.3187 7.29072C10.3187 7.10879 10.3895 6.93772 10.5181 6.80909C10.582 6.74507 10.6581 6.69443 10.7418 6.66013L10.7026 6.58528C10.6246 6.61822 10.5527 6.66385 10.4897 6.72031L10.08 6.31057C10.1842 6.21233 10.3036 6.13143 10.4335 6.07095L10.3943 5.99605C10.2568 6.06058 10.1305 6.14653 10.02 6.25069L9.56813 5.7988C9.72426 5.64869 9.903 5.52403 10.0978 5.42938L10.0588 5.35479C9.8565 5.45349 9.67085 5.58317 9.50855 5.73915L9.09905 5.32969C9.30265 5.13201 9.53583 4.96729 9.79018 4.84144L9.7514 4.76719C9.48957 4.89712 9.24946 5.06684 9.0396 5.27031L8.58725 4.81794C8.84271 4.5684 9.13528 4.35993 9.45456 4.19996L9.41567 4.12549C8.72626 4.47194 8.16503 5.03653 7.82324 5.72865L7.89743 5.76868C8.05886 5.44043 8.27133 5.13988 8.52694 4.87823L8.97933 5.33062C8.76765 5.5486 8.59251 5.7993 8.46066 6.07305L8.53457 6.11295C8.66069 5.84948 8.82978 5.60545 9.03868 5.39002L9.4482 5.79951C9.28216 5.97229 9.14602 6.1715 9.04536 6.38897L9.11942 6.42893C9.21601 6.21855 9.34732 6.02593 9.50785 5.85913L9.95972 6.31102C9.84331 6.43445 9.74974 6.57756 9.68336 6.7337L9.75802 6.77409C9.82017 6.62501 9.90878 6.4884 10.0196 6.37086L10.4293 6.78058C10.3168 6.90631 10.2454 7.06885 10.2355 7.24799H9.6562C9.66107 7.08513 9.69557 6.92453 9.75802 6.77405L9.68334 6.73366C9.61415 6.8966 9.57602 7.07104 9.5709 7.24799H8.93247C8.93823 6.96067 9.00267 6.68323 9.1194 6.42889L9.04532 6.38893C8.92035 6.65842 8.8529 6.951 8.84727 7.24801H8.26904C8.27512 6.84873 8.36671 6.46355 8.53455 6.11291L8.46066 6.07301C8.28891 6.42966 8.19014 6.82776 8.18387 7.24801H7.54531C7.55159 6.72655 7.67345 6.22407 7.89739 5.76865L7.8232 5.72863C7.59041 6.20014 7.45898 6.73024 7.45898 7.29068C7.45898 7.6335 7.50795 7.96853 7.60147 8.28862L7.68509 8.26756C7.59608 7.964 7.54905 7.64967 7.54531 7.33335H8.18376C8.18746 7.59714 8.22812 7.8591 8.30455 8.1116L8.38733 8.09076C8.3133 7.84802 8.27303 7.59366 8.26904 7.33335H8.84716C8.85118 7.54248 8.88557 7.74992 8.94925 7.94915L9.03219 7.92823C8.97009 7.73587 8.9365 7.53544 8.9325 7.33335H9.57093C9.5752 7.48293 9.60292 7.63092 9.65308 7.7719L9.73606 7.75095C9.68747 7.61687 9.66051 7.47592 9.6562 7.33337H10.2354C10.2446 7.50681 10.3129 7.67186 10.4291 7.80099L10.0196 8.21054C9.89322 8.07609 9.79757 7.92008 9.73604 7.75098L9.65308 7.7719C9.71861 7.95569 9.82189 8.12527 9.95923 8.27083L9.50782 8.72227C9.28825 8.49367 9.12754 8.22275 9.03236 7.9284L8.94943 7.94933C9.04826 8.25841 9.21679 8.54274 9.44769 8.78273L9.03885 9.19159C8.73312 8.87632 8.51229 8.50023 8.38753 8.09087L8.30474 8.11173C8.43331 8.53578 8.66176 8.92552 8.97852 9.25188L8.52709 9.70333C8.12756 9.29395 7.84219 8.80261 7.68531 8.26771L7.60167 8.28877C7.76624 8.85189 8.06983 9.36812 8.49626 9.79444C8.78504 10.0833 9.11512 10.3158 9.47298 10.4871L9.51534 10.412C9.17668 10.2506 8.8634 10.0331 8.5874 9.76361L9.0388 9.31221C9.26972 9.53667 9.53741 9.71986 9.83025 9.85383L9.87236 9.7791C9.58968 9.65084 9.32825 9.47397 9.0992 9.25192L9.508 8.84311C9.6996 9.02745 9.91959 9.17194 10.1578 9.27315L10.1999 9.19855C9.96853 9.10144 9.75454 8.96179 9.56848 8.78303L10.0199 8.33159C10.165 8.46845 10.3339 8.57151 10.5169 8.63711L10.5596 8.56154C10.3811 8.4997 10.2178 8.40078 10.0803 8.27128L10.4898 7.86173C10.6199 7.9784 10.783 8.04592 10.9574 8.05548V8.6347C10.8219 8.63053 10.6878 8.60587 10.5596 8.56157L10.5169 8.63713C10.6585 8.68778 10.8071 8.71574 10.9574 8.71997V9.35836C10.6932 9.35308 10.4373 9.29838 10.2001 9.19888L10.158 9.27347C10.4081 9.37978 10.6783 9.43831 10.9574 9.4437V10.0218C10.577 10.016 10.2096 9.93236 9.87256 9.77943L9.83044 9.85413C10.1803 10.014 10.5621 10.1012 10.9574 10.1071V10.7455C10.4504 10.7394 9.96097 10.6245 9.51556 10.4123L9.47317 10.4874C9.94391 10.7127 10.4628 10.8319 11.0001 10.8319C11.5637 10.8319 12.1068 10.7001 12.5956 10.4529L12.5552 10.3746C12.0994 10.6054 11.5863 10.7389 11.0427 10.7455V10.1072C11.4737 10.1008 11.8885 9.99748 12.2634 9.80895L12.2235 9.73169C11.8569 9.91651 11.4532 10.0157 11.0427 10.0218V9.44366C11.366 9.43743 11.6773 9.35987 11.9592 9.21922L11.9196 9.14235C11.6469 9.27852 11.3474 9.3523 11.0427 9.35834V8.71995C11.2486 8.71394 11.4469 8.66437 11.6273 8.57605L11.588 8.49962C11.4178 8.58275 11.232 8.62877 11.0427 8.63464V8.05548C11.2162 8.04632 11.3813 7.97793 11.5104 7.86173L11.9195 8.27087C11.821 8.36327 11.7093 8.44038 11.588 8.49962L11.6273 8.57605C11.7566 8.51278 11.8755 8.43037 11.9802 8.33161L12.4309 8.78235C12.2797 8.92752 12.1073 9.04891 11.9196 9.14235L11.9592 9.21922C12.1548 9.12171 12.3345 8.99499 12.492 8.84341L12.8999 9.25128C12.7001 9.44483 12.472 9.60683 12.2235 9.73171L12.2634 9.80897C12.5199 9.68002 12.7552 9.51261 12.9611 9.31253L13.4114 9.76284C13.1602 10.008 12.8713 10.2145 12.5552 10.3746L12.5956 10.4529C12.9313 10.283 13.2378 10.0609 13.5037 9.79477C13.7878 9.51076 14.017 9.18663 14.1875 8.83556L14.1871 8.83475Z" fill="white"/>
<path d="M11.181 6.47162L11.182 6.49725L11.2035 6.49622L11.2023 6.47076L11.181 6.47162ZM11.1496 6.43668H11.1781V6.45842H11.1496V6.43668ZM11.1232 6.43284L11.1262 6.41133L11.1012 6.40774L11.0982 6.42908L11.1232 6.43284ZM11.077 6.42179L11.0521 6.41818L11.0551 6.39661L11.08 6.40022L11.077 6.42179ZM10.8712 6.39307H10.8997V6.41483H10.8712V6.39307ZM10.8339 6.44001L10.8369 6.41848L10.812 6.4149L10.809 6.43642L10.8339 6.44001ZM10.8115 6.46925L10.7829 6.46199L10.7881 6.44089L10.8167 6.44818L10.8115 6.46925ZM10.7604 6.49604L10.7568 6.47428L10.778 6.47074L10.7816 6.49248L10.7604 6.49604ZM7.9568 8.76723H7.97835L7.97463 8.71292L7.94603 8.70196V8.68387H7.9282V8.7201H7.9568V8.76723ZM8.17831 8.92661L8.20323 8.94489L8.2283 8.99923L8.214 9.0245L8.17479 8.98829L8.14617 8.94848L8.13186 8.91587L8.10676 8.8506L8.1603 8.87588L8.17831 8.92661ZM9.02834 10.0141L9.00325 10.0286L8.98896 10.0069L8.95328 9.99601L8.94973 9.96339L8.92111 9.91982L8.96404 9.92717L9.01034 9.96698L9.02834 10.0141ZM10.8891 6.70477H10.8498L10.8426 6.62506L10.8641 6.6105V6.57064H10.739L10.7355 6.53081L10.7534 6.51991L10.7248 6.50904L10.7033 6.538L10.6963 6.57064L10.6605 6.57792V6.59601H10.6355V6.64311L10.5355 6.72647L10.3355 6.71927C10.3212 6.75187 10.2855 6.71562 10.2855 6.71562C10.2784 6.69388 10.2284 6.71562 10.2284 6.71562C10.2284 6.75552 10.1605 6.69751 10.1605 6.69751L10.0355 6.60686C9.96406 6.54164 9.85694 6.62502 9.85337 6.64311C9.85694 6.69388 9.77124 6.654 9.77124 6.654C9.77124 6.654 9.69982 6.63228 9.68908 6.66129C9.6784 6.69025 9.63188 6.68305 9.63188 6.68305L9.62473 6.69753L9.589 6.70477L9.58191 6.72649L9.53902 6.7338L9.64615 6.73015C9.67472 6.72652 9.63541 6.79179 9.61757 6.78816L9.56764 6.79179L9.54972 6.80988H9.50332L9.48189 6.83893L9.41407 6.83527C9.41407 6.83527 9.37475 6.86791 9.37836 6.87876C9.38193 6.88965 9.3712 6.92229 9.36046 6.92229C9.34974 6.92229 9.32832 6.95488 9.33547 6.96575C9.34265 6.97664 9.31405 7.01289 9.31405 7.01289L9.30694 7.04918L9.28552 7.05638V7.15426L9.24264 7.18327V7.22675L9.17831 7.29563L9.18549 7.3536L9.13195 7.41161L9.13904 7.46962L9.10689 7.48049L9.0998 7.50584L9.08552 7.58194L9.12122 7.5856C9.13904 7.57833 9.13549 7.63273 9.12122 7.63995C9.10689 7.64722 9.0676 7.66168 9.08908 7.67616C9.11053 7.69072 9.03193 7.68707 9.03193 7.66531C9.03193 7.64361 8.98905 7.62545 8.97837 7.63271C8.96763 7.63993 8.94975 7.6001 8.94975 7.6001C8.91048 7.56024 8.78904 7.60371 8.78904 7.60371L8.77112 7.6617C8.73189 7.66898 8.70688 7.73421 8.70688 7.73421C8.67474 7.7451 8.64976 7.78491 8.66048 7.79581C8.67118 7.8067 8.64258 7.81031 8.64258 7.81031V7.89008L8.62475 7.91544L8.62827 8.00241C8.64976 8.00241 8.64619 8.04233 8.64619 8.04233C8.61046 8.04594 8.61755 8.09307 8.61755 8.09307L8.54259 8.11843L8.52832 8.14017L8.43546 8.13652L8.41048 8.16191L8.3854 8.13652H8.20684L8.19975 8.11841L8.16402 8.1111L8.16041 8.07129L8.10687 8.07488L8.09617 8.09664L8.039 8.10023C8.04257 8.1365 7.98185 8.1909 7.97476 8.17644C7.96752 8.16191 7.92826 8.12199 7.94616 8.11482C7.96404 8.10751 8.01049 8.10023 8.01049 8.10023V8.07488L7.87829 8.07129L7.86405 8.09305L7.81042 8.09664V8.15465L7.78545 8.16191C7.76756 8.17274 7.78898 8.21266 7.78898 8.21266C7.81399 8.23801 7.78545 8.27785 7.78545 8.27785C7.76397 8.29961 7.80327 8.33953 7.80327 8.33953C7.83186 8.34673 7.78543 8.36849 7.78543 8.36849C7.79252 8.40472 7.81401 8.41561 7.81401 8.41561C7.79252 8.45183 7.82834 8.46992 7.82834 8.46992L7.83186 8.53163L7.85687 8.54613V8.58592L7.87114 8.61132H7.92829L7.92472 8.52071C7.8747 8.4627 7.96754 8.4482 7.97117 8.4699C7.97478 8.49167 8.01405 8.50256 8.01405 8.50256C8.02121 8.55696 8.08195 8.58953 8.09974 8.53522C8.11761 8.48077 8.1319 8.51345 8.14262 8.53878C8.15334 8.5642 8.22111 8.62582 8.22111 8.62582H8.27473L8.28191 8.67659C8.3426 8.67294 8.36042 8.68028 8.38542 8.76356C8.41048 8.84688 8.4783 8.86864 8.4783 8.86864L8.52832 8.86503C8.52832 8.82159 8.57834 8.87234 8.57834 8.89412C8.57834 8.91578 8.67474 8.99917 8.67474 8.99917L8.77115 9.02087L8.86052 9.09346L8.92833 9.0862H8.95695C8.97476 9.02452 9.06051 9.08977 9.0676 9.11155C9.07482 9.1333 9.13195 9.16956 9.13901 9.15139C9.14621 9.1333 9.18549 9.14419 9.19264 9.1985C9.19977 9.25295 9.22474 9.24205 9.22474 9.24205L9.42835 9.23842L9.49977 9.17674L9.68196 9.17317C9.77478 9.16954 9.71763 9.04265 9.69984 9.04265C9.66768 9.0173 9.71052 8.91219 9.71052 8.91219L9.4498 8.66935C9.38908 8.66935 9.44264 8.58231 9.44264 8.58231C9.48905 8.55329 9.4319 8.50625 9.4319 8.50625C9.43908 8.46268 9.40689 8.41193 9.40689 8.41193C9.34265 8.36845 9.36048 8.28504 9.36048 8.28504V8.22703C9.30694 8.17633 9.38192 8.16902 9.38192 8.16902C9.40689 8.12562 9.36403 8.09297 9.36403 8.09297L9.36048 8.04583L9.30333 8.03855L9.29624 7.86817L9.16765 7.68338C9.1426 7.67607 9.16048 7.63261 9.16048 7.63261C9.19262 7.61447 9.15328 7.57103 9.15328 7.57103L9.14974 7.49126L9.22472 7.48395L9.24259 7.45501H9.2783L9.27476 7.36076C9.29259 7.31364 9.33543 7.33899 9.33543 7.33899L9.38543 7.34264L9.41405 7.28824L9.42113 7.24474L9.38188 7.24115C9.33902 7.21575 9.36044 7.12154 9.36044 7.12154C9.42831 7.02 9.50684 7.07801 9.50684 7.07801L9.5569 7.07442C9.63186 7.12513 9.56399 7.21938 9.56399 7.21938C9.5497 7.24115 9.5569 7.31001 9.5569 7.31001L9.57473 7.42596L9.52828 7.46588C9.48903 7.48765 9.48903 7.53837 9.53189 7.54924C9.56044 7.55283 9.54972 7.62173 9.50684 7.5746C9.4426 7.5746 9.54263 7.63261 9.51404 7.61804C9.57834 7.6507 9.56399 7.58908 9.56399 7.58908L9.64978 7.5202C9.68194 7.49484 9.73909 7.5746 9.73909 7.58549C9.73909 7.59634 9.88193 7.58906 9.88193 7.58906C9.9212 7.61443 9.93547 7.67972 9.93547 7.67972C9.97481 7.62891 10.0569 7.67603 9.99623 7.70508C10.0533 7.74132 10.0533 7.77391 10.0533 7.77391C10.0998 7.75943 10.0998 7.79568 10.0998 7.80657C10.0998 7.81744 10.1141 7.75221 10.1141 7.75221C10.0605 7.71232 10.1855 7.69781 10.1498 7.77033L10.1283 7.80298L10.1641 7.83194L10.1676 7.91535C10.2462 7.90804 10.2248 7.81018 10.2248 7.81018L10.2605 7.80296C10.2605 7.7703 10.2855 7.78844 10.2855 7.78844C10.2605 7.66518 10.3427 7.64348 10.3427 7.64348C10.3891 7.63261 10.3926 7.53468 10.3926 7.53468C10.3605 7.5202 10.3783 7.46947 10.4141 7.513C10.4497 7.55642 10.3926 7.42594 10.3926 7.42594L10.3641 7.40059L10.3248 7.39698L10.3212 7.3571H10.2569L10.2462 7.40787L10.2212 7.41511L10.214 7.40059L10.2034 7.44046H10.1391L10.1355 7.39698L10.1748 7.38611L10.1891 7.36436L10.1998 7.30635H10.2462L10.3069 7.28824C10.3105 7.22662 10.3427 7.24115 10.3427 7.24115L10.3641 7.25924L10.3962 7.28461L10.3998 7.30631L10.3783 7.31718L10.3748 7.34623L10.3855 7.38609H10.4141C10.4248 7.32808 10.4998 7.32808 10.5212 7.36434L10.5427 7.3136C10.4927 7.28824 10.5418 7.24832 10.556 7.26648C10.5703 7.28461 10.6034 7.21936 10.6034 7.21936C10.6034 7.21936 10.6284 7.25198 10.6034 7.20847C10.5784 7.16496 10.6212 7.14324 10.6212 7.14324C10.6141 7.09975 10.6677 7.10699 10.6677 7.10699L10.6713 7.04903L10.6212 7.04535C10.6106 7.0961 10.5677 7.05264 10.5891 7.04177C10.6106 7.03087 10.6319 7.00911 10.6319 7.00911V6.97286L10.6534 6.96562L10.6569 6.92938H10.7105L10.7569 6.90763L10.7677 6.8895L10.8177 6.88589L10.8891 6.82062L10.882 6.79166C10.8391 6.79166 10.882 6.759 10.882 6.759L10.8891 6.70477Z" fill="white"/>
<path d="M9.44964 7.42277L9.38533 7.41553L9.38894 7.44088H9.40677C9.4353 7.49165 9.41034 7.61487 9.41034 7.61487C9.41034 7.61487 9.36752 7.61845 9.36034 7.59675C9.35325 7.57501 9.33534 7.64389 9.3496 7.65476C9.36389 7.66559 9.41393 7.65476 9.41749 7.69466C9.42102 7.7345 9.44964 7.66927 9.44964 7.66927V7.42277Z" fill="white"/>
<path d="M9.46385 7.82859L9.47109 7.79596L9.44601 7.78522L9.44954 7.73086L9.47109 7.72712L9.47463 7.70166L9.42092 7.73806L9.38525 7.71636V7.80331L9.44247 7.87932L9.46385 7.82859ZM9.47816 7.92289L9.45323 7.92648L9.44954 7.95553L9.47816 7.95912V7.92289ZM9.44601 8.10773L9.41572 8.11132V8.13678L9.44601 8.13319V8.10773ZM9.48813 8.02166C9.4965 8.02166 9.50323 8.01481 9.50323 8.00634C9.50325 8.00434 9.50288 8.00235 9.50214 8.00048C9.50139 7.99862 9.50028 7.99693 9.49888 7.9955C9.49748 7.99407 9.4958 7.99293 9.49396 7.99214C9.49211 7.99136 9.49013 7.99095 9.48813 7.99094C9.48612 7.99095 9.48413 7.99136 9.48229 7.99214C9.48044 7.99292 9.47876 7.99406 9.47735 7.99549C9.47595 7.99693 9.47484 7.99862 9.47409 8.00048C9.47333 8.00234 9.47296 8.00433 9.47298 8.00634C9.47298 8.01481 9.47977 8.02166 9.48813 8.02166Z" fill="white"/>
<path d="M9.5133 8.0974C9.52173 8.0974 9.52856 8.09057 9.52856 8.08215C9.52856 8.07372 9.52173 8.06689 9.5133 8.06689C9.50488 8.06689 9.49805 8.07372 9.49805 8.08215C9.49805 8.09057 9.50488 8.0974 9.5133 8.0974Z" fill="white"/>
<path d="M9.51428 7.68334C9.5227 7.68334 9.52953 7.67651 9.52953 7.66809C9.52953 7.65966 9.5227 7.65283 9.51428 7.65283C9.50585 7.65283 9.49902 7.65966 9.49902 7.66809C9.49902 7.67651 9.50585 7.68334 9.51428 7.68334Z" fill="white"/>
<path d="M10.7532 7.22684V7.158H10.7319L10.7283 7.13254L10.6889 7.12895L10.6818 7.14706H10.664L10.6603 7.17611H10.6819L10.6854 7.19781L10.6711 7.21231L10.664 7.23042L10.6354 7.23777L10.5711 7.29943L10.5676 7.32831L10.5497 7.35377L10.5283 7.40808L10.4533 7.41167L10.439 7.47694L10.4496 7.53126L10.5139 7.55672L10.5211 7.52049L10.5425 7.50956L10.5462 7.47336L10.5603 7.4479L10.5819 7.42261L10.589 7.39356L10.6246 7.37186L10.6675 7.36453L10.6854 7.34283L10.6926 7.29943L10.6952 7.26682L10.7105 7.24495L10.7532 7.22684ZM10.8282 7.37917V7.32842L10.821 7.28128L10.7675 7.25593L10.7282 7.29217L10.721 7.34294V7.37553L10.6853 7.3828L10.6781 7.48066L10.6496 7.49155L10.6532 7.5278L10.5746 7.54954L10.5675 7.59666L10.5389 7.61477L10.5246 7.65828L10.5067 7.7634C10.5067 7.7634 10.5389 7.82502 10.5567 7.79602C10.5746 7.76704 10.6032 7.7634 10.6032 7.7634L10.6139 7.73801L10.7103 7.74164C10.7175 7.70172 10.7639 7.71629 10.7639 7.7344C10.7639 7.75251 10.7996 7.73799 10.7996 7.73799L10.8246 7.69813H10.8639L10.8674 7.65467L10.8853 7.64378V7.5785C10.9425 7.56039 10.9353 7.50603 10.9353 7.50603L10.9497 7.48792L10.9425 7.46257C10.9139 7.45168 10.9281 7.42626 10.946 7.43352C10.9639 7.44076 10.921 7.40089 10.921 7.40089C10.8996 7.41906 10.8818 7.37917 10.8818 7.37917H10.8282ZM10.8853 7.81768C10.8818 7.86116 10.8282 7.87569 10.8282 7.87569L10.7889 7.86481L10.7675 7.84668L10.7639 7.79591L10.796 7.79232L10.8032 7.81409L10.8853 7.81768ZM11.0783 7.58585C11.086 7.61746 11.0853 7.53504 11.0996 7.53871C11.1139 7.54232 11.1032 7.48801 11.1032 7.48801L11.0389 7.53506C11.0711 7.53871 11.0746 7.57137 11.0783 7.58585ZM11.2675 7.39721C11.2818 7.42987 11.2783 7.47699 11.3318 7.51323C11.3499 7.52546 11.3211 7.5495 11.3032 7.53858C11.2853 7.52773 11.2354 7.44794 11.2354 7.44794V7.40084C11.2461 7.37186 11.2613 7.38316 11.2675 7.39721ZM11.3139 8.48825L11.2925 8.4809L11.2676 8.49916L11.2782 8.50995L11.2888 8.52806L11.3139 8.48825ZM11.1782 8.44117V8.48479V8.44117ZM11.7233 8.37055L11.7118 8.35227L11.6834 8.37021L11.6947 8.38866L11.7233 8.37055ZM12.7283 9.14438L12.7605 9.15884L12.764 9.22046C12.8069 9.26394 12.9462 9.22772 12.9462 9.21683C12.9462 9.20594 12.939 9.08274 12.939 9.08274L12.9211 9.06458L12.9176 8.97392C12.9319 8.9268 12.8497 8.8579 12.8426 8.87251C12.8354 8.88695 12.789 8.87603 12.789 8.89058C12.789 8.90504 12.7605 8.97755 12.7747 9.00294C12.789 9.02834 12.764 9.02834 12.7605 9.05369C12.7569 9.07904 12.7212 9.12262 12.7283 9.14438ZM12.6497 8.99936C12.6429 9.02681 12.6176 9.04284 12.6033 9.03195C12.5889 9.02106 12.6211 9.05004 12.6283 9.06461C12.6354 9.07907 12.6568 9.07907 12.664 9.06461C12.6711 9.05002 12.6675 9.01749 12.6747 9.00299C12.6818 8.98846 12.6533 8.98485 12.6497 8.99933V8.99936ZM12.4836 8.33439H12.5086V8.4033H12.4836V8.33439ZM12.8534 7.63656C12.8378 7.61544 12.9248 7.57855 12.9391 7.62208C12.9533 7.66552 12.9391 7.65832 12.9248 7.65469C12.9104 7.65104 12.8748 7.66554 12.8534 7.63656ZM12.9264 7.17235L12.9657 7.17953L12.9695 7.15817L12.9301 7.15099L12.9264 7.17235ZM12.8301 7.1884L12.8036 7.20344L12.7803 7.18874L12.769 7.20701L12.7977 7.22514L12.8031 7.22855L12.8084 7.22546L12.83 7.21334L12.8327 7.22L12.8525 7.21197L12.8453 7.19388L12.8408 7.18243L12.8301 7.1884ZM12.964 6.33155H12.9104C12.9104 6.33155 12.9283 6.33879 12.8783 6.29165C12.8282 6.24456 12.7962 6.30255 12.7962 6.30255L12.739 6.30979V6.3678L12.7104 6.37865L12.714 6.41491L12.7533 6.4113C12.7533 6.4113 12.7533 6.45479 12.764 6.43668C12.7748 6.41855 12.864 6.44027 12.8569 6.4838C12.854 6.50167 12.9462 6.549 12.9355 6.60699C12.9819 6.61427 12.9712 6.66141 12.9712 6.66141L13.0319 6.66865L13.0498 6.63241L13.0676 6.63604V6.61427L13.0282 6.6034L13.0212 6.48738L12.9962 6.46927L13.0033 6.44027L12.9747 6.42937L12.989 6.38228L12.964 6.33155ZM13.1211 6.70131L13.0925 6.69772L13.0281 6.70859L12.9925 6.77745C12.9925 6.77745 13.0103 6.78833 13.0246 6.8137C13.0389 6.83909 13.046 6.98766 13.0032 7.01308C12.9603 7.03845 13.0068 7.02391 13.0068 7.02391L12.9996 7.10366C13.0103 7.13993 13.0281 7.12184 13.0389 7.10366C13.0497 7.08561 13.0604 7.08196 13.0746 7.06383C13.0889 7.04567 13.1103 7.01308 13.1139 6.98769C13.1175 6.96233 13.1353 6.92248 13.1246 6.91159C13.1139 6.90071 13.1353 6.84999 13.1353 6.84999C13.1353 6.84999 13.1496 6.82094 13.1353 6.79198C13.1211 6.76295 13.1389 6.73032 13.1496 6.71581L13.1211 6.70131ZM13.1642 6.84919L13.1679 6.82019L13.1892 6.82294L13.1856 6.85194L13.1642 6.84919ZM13.163 6.94936L13.1438 6.93962L13.1546 6.9179L13.1737 6.92761L13.163 6.94936ZM13.1318 6.66156L13.1175 6.62891C13.1175 6.62891 13.1175 6.59997 13.1246 6.5854C13.1318 6.57092 13.1103 6.55646 13.0997 6.55281C13.0889 6.54915 13.0925 6.52019 13.0889 6.50567C13.0854 6.49119 13.0604 6.48031 13.0604 6.48031C13.0604 6.48031 13.0532 6.42596 13.0532 6.41509C13.0532 6.40421 13.0211 6.38973 13.0318 6.37882C13.0425 6.36795 13.0497 6.35347 13.0604 6.34618C13.0711 6.33894 13.0497 6.28817 13.0675 6.29907C13.0854 6.30996 13.0854 6.32807 13.0925 6.34257C13.0997 6.35705 13.0889 6.40782 13.1068 6.41872C13.1246 6.42955 13.1032 6.46577 13.1318 6.46577C13.1604 6.46577 13.1425 6.53469 13.1425 6.53469C13.1425 6.53469 13.1353 6.5854 13.1532 6.58905C13.1711 6.59268 13.1604 6.67967 13.1604 6.67967L13.1318 6.66156ZM12.8998 6.07416C12.9104 6.08864 12.9319 6.09951 12.9319 6.11406C12.9319 6.12856 12.9247 6.13941 12.9462 6.14304C12.9676 6.14665 12.9819 6.13939 12.989 6.15752C12.9962 6.17563 12.9962 6.20464 12.9926 6.21914C12.989 6.23367 12.9962 6.25539 13.014 6.25539C13.0319 6.25539 13.0355 6.25904 13.0355 6.26991C13.0355 6.28076 13.0569 6.23001 13.0569 6.23001C13.039 6.21553 13.0247 6.18288 13.0247 6.18288C13.0247 6.18288 13.0069 6.13215 13.0069 6.12491C13.0069 6.11765 12.9819 6.11038 12.9712 6.10677C12.9605 6.10312 12.9426 6.07053 12.9426 6.07053L12.8998 6.07418V6.07416ZM12.9354 6.04172C12.9247 6.02717 12.914 6.01632 12.8997 6.0091C12.8855 6.00182 12.8747 5.99458 12.8604 5.99458C12.8461 5.99458 12.8319 5.98006 12.8389 5.96197C12.8461 5.94383 12.8282 5.93659 12.8282 5.92207C12.8282 5.90759 12.8389 5.90759 12.8568 5.91846C12.8747 5.92935 12.8711 5.93294 12.8855 5.95112C12.8997 5.96921 12.9068 5.98734 12.9211 5.98371C12.9354 5.98006 12.9461 6.01632 12.9604 6.00545C12.9747 5.99458 12.9711 6.0308 12.9711 6.0308L12.9354 6.04172ZM12.5175 6.45122C12.5372 6.47125 12.4104 6.46568 12.4104 6.45122C12.4104 6.43674 12.4212 6.38602 12.4532 6.39682C12.4854 6.40774 12.4889 6.33162 12.4889 6.33162C12.4889 6.33162 12.4604 6.3352 12.4854 6.32072C12.5104 6.30624 12.4854 6.28448 12.4747 6.27361C12.464 6.26271 12.4532 6.2446 12.4532 6.2446H12.5033C12.5247 6.23008 12.5318 6.16124 12.5318 6.16124C12.5746 6.17572 12.5961 6.14672 12.5961 6.14672C12.5961 6.14672 12.6033 6.16846 12.6176 6.18663C12.6319 6.20473 12.5818 6.21199 12.5997 6.22288C12.6176 6.23375 12.6247 6.26634 12.6176 6.27719C12.6104 6.28809 12.5711 6.28085 12.5711 6.26634C12.5711 6.25184 12.5568 6.28448 12.5711 6.30261C12.5853 6.32072 12.5532 6.34608 12.5461 6.34608C12.5389 6.34608 12.4926 6.35336 12.5318 6.37508C12.5711 6.39682 12.614 6.386 12.614 6.386C12.614 6.386 12.6461 6.38234 12.6568 6.4005C12.6676 6.41861 12.6533 6.42224 12.6354 6.42224C12.6176 6.42224 12.5318 6.41496 12.5318 6.41496C12.5318 6.41496 12.5068 6.44035 12.5175 6.45122ZM12.2889 6.48388C12.3069 6.48025 12.3496 6.4766 12.3568 6.48749C12.364 6.49834 12.3318 6.51284 12.3318 6.51284L12.2889 6.52011C12.2747 6.50197 12.2711 6.48751 12.2889 6.48388ZM12.7498 6.17944C12.7783 6.16496 12.839 6.16496 12.8355 6.14319C12.832 6.12145 12.8712 6.11419 12.8712 6.11419L12.8819 6.15767L12.9141 6.17942L12.9177 6.21929C12.9177 6.21929 12.9283 6.21205 12.8891 6.22294C12.8498 6.23382 12.8748 6.25191 12.8748 6.25191L12.7891 6.25554L12.7783 6.21927L12.7498 6.17944ZM12.6104 5.98371C12.6321 5.98371 12.6033 6.06707 12.6603 6.05983C12.7175 6.05255 12.664 6.08518 12.7068 6.08881C12.7497 6.09247 12.7389 6.0562 12.7532 6.03085C12.7675 6.00547 12.7604 5.99095 12.7354 5.98371C12.7103 5.97647 12.7103 5.97647 12.7032 5.94742C12.6961 5.91846 12.6675 5.91117 12.6675 5.91117L12.6568 5.86771L12.6104 5.89669L12.5639 5.95831C12.5639 6.00547 12.5889 5.98371 12.6104 5.98371ZM12.7049 6.29L12.7156 6.26826L12.7348 6.27801L12.7241 6.29975L12.7049 6.29ZM12.6675 6.25549H12.6889V6.28087H12.6675V6.25549ZM12.6855 5.77251L12.6891 5.80512L12.6678 5.80753L12.6642 5.77496L12.6855 5.77251ZM12.6248 6.11047H12.6462V6.12862H12.6248V6.11047ZM12.5685 6.1101L12.5664 6.08843L12.6021 6.08486L12.6042 6.10652L12.5685 6.1101ZM12.2739 6.4587L12.2542 6.45013L12.265 6.42478L12.2846 6.43333L12.2739 6.4587ZM12.1617 6.39272L12.1597 6.37113L12.1954 6.36754L12.1975 6.38913L12.1617 6.39272ZM11.4635 6.3896L11.4646 6.4113L11.543 6.40772L11.542 6.38602L11.4635 6.3896ZM11.411 6.41749L11.4038 6.3849L11.4248 6.38019L11.4319 6.41277L11.411 6.41749ZM11.3959 6.43994L11.3892 6.41932L11.3999 6.41569L11.4066 6.43633L11.3959 6.43994ZM11.5746 6.37882L11.571 6.40417L11.6102 6.40782C11.6102 6.40782 11.6281 6.42235 11.6281 6.43318C11.6281 6.44407 11.6531 6.45492 11.6674 6.45492C11.6817 6.45492 11.721 6.42591 11.721 6.42591C11.721 6.42591 11.7388 6.37517 11.7246 6.37878C11.7102 6.38239 11.6817 6.40415 11.6782 6.38239C11.6745 6.36064 11.6317 6.37151 11.6317 6.37151L11.5746 6.37882ZM11.7531 6.33886C11.7531 6.34971 11.746 6.36421 11.7674 6.36786C11.7889 6.37145 11.8282 6.35338 11.8317 6.3751C11.8353 6.39685 11.8353 6.41139 11.8639 6.42228C11.8924 6.43311 11.9103 6.43676 11.9317 6.43676C11.9531 6.43676 11.9996 6.42946 11.9996 6.42946C11.9996 6.42946 12.0501 6.43737 12.0603 6.44761C12.0996 6.48747 12.1245 6.49834 12.1353 6.48023C12.146 6.4621 12.1317 6.42226 12.1282 6.40776C12.1246 6.39321 12.0745 6.32435 12.0567 6.33886C12.0389 6.35338 12.0353 6.33886 12.0031 6.34971C11.971 6.36058 11.9031 6.35336 11.8996 6.33886C11.896 6.32433 11.846 6.31716 11.846 6.30261C11.846 6.28809 11.8103 6.27 11.8139 6.29172C11.8174 6.31346 11.7889 6.32433 11.7816 6.31714C11.7745 6.30987 11.7531 6.33886 11.7531 6.33886ZM12.5747 5.87478L12.5997 5.79507C12.5641 5.78781 12.5711 5.74797 12.5711 5.74797C12.5676 5.71532 12.5176 5.67909 12.4997 5.68996C12.4819 5.70081 12.489 5.61382 12.489 5.61382C12.489 5.61382 12.5212 5.59212 12.5354 5.60297C12.5497 5.61382 12.414 5.42174 12.3854 5.43986C12.3569 5.45799 12.2926 5.42174 12.2962 5.38909C12.2997 5.35649 12.1676 5.24772 12.1676 5.24772C12.1676 5.24772 12.1247 5.21877 12.1176 5.24052C12.1105 5.26224 12.0962 5.27676 12.1176 5.28759C12.139 5.29851 12.1354 5.2695 12.1604 5.29483C12.1854 5.32021 12.2319 5.35284 12.214 5.37461C12.1961 5.39639 12.1747 5.40361 12.1747 5.40361L12.1998 5.43262H12.239L12.2462 5.49421C12.2462 5.49421 12.289 5.51598 12.2997 5.54135C12.3105 5.5667 12.3105 5.58123 12.2997 5.59575C12.289 5.61023 12.2677 5.63561 12.2712 5.66094C12.2747 5.68631 12.3033 5.6972 12.3033 5.6972L12.3319 5.70086L12.3534 5.71173V5.75889C12.3819 5.7516 12.4283 5.79144 12.4247 5.81686C12.4212 5.84221 12.4318 5.82771 12.4676 5.8531C12.5033 5.87845 12.4926 5.88211 12.5176 5.90024C12.5426 5.91829 12.5641 5.90744 12.5747 5.87478Z" fill="white"/>
<path d="M11.9856 5.38164C11.9821 5.36711 11.9749 5.31634 11.9964 5.31998C12.0178 5.32363 12.0035 5.31998 12.0285 5.33087C12.0535 5.34176 12.0571 5.31276 12.0571 5.31276H12.0964L12.1463 5.35259L12.1392 5.38525L12.1035 5.38884C12.0857 5.35987 12.0499 5.37075 12.0571 5.39614C12.0642 5.42149 12.0392 5.46861 12.025 5.4722C12.0107 5.47585 11.9642 5.47585 11.9678 5.45413C11.9714 5.43236 11.9856 5.38164 11.9856 5.38164ZM11.9571 5.28367V5.25468C11.9571 5.25468 11.9534 5.2257 11.9356 5.2257C11.9178 5.2257 11.8856 5.20398 11.8927 5.18945C11.8999 5.17493 11.832 5.16045 11.832 5.16045C11.832 5.16045 11.7714 5.10244 11.7928 5.10974C11.8142 5.11696 11.8035 5.08433 11.8035 5.08433C11.8035 5.08433 11.7606 5.09157 11.7499 5.08798C11.7392 5.08433 11.7427 5.05171 11.7427 5.05171C11.7427 5.05171 11.6999 5.04084 11.6999 5.05171C11.6999 5.06261 11.7142 5.06261 11.7213 5.08431C11.7285 5.10605 11.7249 5.14232 11.7571 5.14956C11.7892 5.15682 11.7963 5.16404 11.8 5.17856C11.8035 5.19308 11.8428 5.19667 11.8428 5.19667L11.8714 5.21118L11.9571 5.28367ZM11.5608 4.88499L11.5322 4.87781V4.91047L11.5714 4.91404L11.5608 4.88499ZM11.5607 4.76179C11.5233 4.73343 11.6106 4.78356 11.6106 4.78356C11.6392 4.78356 11.657 4.8053 11.657 4.81622C11.657 4.82707 11.6963 4.82346 11.6963 4.82346L11.7 4.79804L11.6713 4.76179L11.6464 4.74372C11.6464 4.74372 11.6071 4.74007 11.6071 4.7292C11.6071 4.71835 11.5749 4.77269 11.5607 4.76179ZM12.2177 4.78349C12.2072 4.81521 12.2034 4.85964 12.1855 4.85964C12.1677 4.85964 12.1748 4.9068 12.1748 4.9068C12.1748 4.9068 12.2213 4.9068 12.2356 4.91038C12.2498 4.91397 12.2498 4.95022 12.2498 4.95022C12.3034 4.94663 12.3249 5.01912 12.3177 5.03723C12.3105 5.05534 12.3391 5.05534 12.3391 5.05534C12.3391 5.05534 12.3391 5.11335 12.332 5.12783C12.3249 5.14236 12.3784 5.15323 12.3927 5.17497C12.407 5.19674 12.3855 5.26921 12.3748 5.27284C12.3641 5.27649 12.4034 5.28732 12.3998 5.30545C12.3962 5.32361 12.4105 5.30545 12.4141 5.33446C12.4176 5.36346 12.4248 5.42506 12.4248 5.42506L12.4748 5.42871C12.482 5.38162 12.5741 5.37979 12.5891 5.3852C12.6498 5.40695 12.6963 5.5012 12.6963 5.52292C12.6963 5.54467 12.657 5.54834 12.657 5.54834L12.6641 5.6534C12.7248 5.67156 12.7748 5.75857 12.7677 5.77308C12.7606 5.78756 12.8105 5.78397 12.8105 5.78397C12.8177 5.71865 12.8784 5.74044 12.8819 5.7622C12.8856 5.78397 12.8962 5.83108 12.8962 5.83108L12.9141 5.86366L12.9391 5.88903L12.9784 5.88542L12.9891 5.90719L13.0355 5.91447C13.0355 5.91447 13.0749 5.95791 13.0784 5.96883C13.082 5.97965 13.1356 5.97607 13.1498 5.97965C13.1641 5.98331 13.1856 5.99418 13.1891 6.01231C13.1927 6.03044 13.2142 6.05943 13.2142 6.05943C13.2142 6.05943 13.257 6.07032 13.2606 6.08478C13.2641 6.09926 13.282 6.1319 13.282 6.1319L13.3176 6.1609L13.3213 6.19356L13.3605 6.19719L13.3713 6.24063L13.4355 6.23705L13.4713 6.21167C13.5177 6.18632 13.5499 6.15366 13.5534 6.13916C13.557 6.12466 13.5641 6.07032 13.5999 6.08119C13.6355 6.09206 13.6106 6.00142 13.6106 6.00142C13.6106 6.00142 13.5606 5.96517 13.5641 5.94702C13.5677 5.92893 13.5142 5.8927 13.5177 5.87818C13.5213 5.86366 13.4713 5.83469 13.4748 5.82019C13.4784 5.80567 13.4498 5.76579 13.4498 5.76579L13.3962 5.71509L13.3891 5.68243L13.3463 5.67884L13.2606 5.57371L13.2641 5.54469L13.2391 5.54108V5.50122L13.2142 5.4867L13.1748 5.48307L13.0963 5.39612L13.0891 5.35622H13.0499L13.057 5.28008C13.082 5.24744 13.0677 5.18584 13.0677 5.18584C13.0677 5.18584 13.0176 5.2112 12.9927 5.20033C12.9677 5.1895 13.0034 5.16408 13.0034 5.16408V5.1351L12.982 5.11335C12.982 5.11335 12.9212 5.12064 12.9177 5.10977C12.9141 5.09887 12.9034 5.05176 12.9034 5.05176L12.8998 4.99009L12.8749 4.97929L12.8712 4.9575L12.832 4.96111V4.91762L12.8105 4.91038L12.7891 4.89951L12.7856 4.85598L12.707 4.8524L12.682 4.81615L12.6534 4.77264L12.5641 4.7654L12.5427 4.7437L12.507 4.7364L12.482 4.72553L12.4713 4.74368L12.4034 4.74727L12.3999 4.76903C12.3642 4.78715 12.2213 4.77262 12.2177 4.78349ZM12.5928 4.68939C12.5872 4.66077 12.6643 4.63503 12.6821 4.65673C12.7 4.6785 12.75 4.68217 12.7571 4.79091C12.7597 4.82984 12.6928 4.75105 12.6928 4.75105L12.6392 4.73292C12.6107 4.72563 12.5963 4.70757 12.5928 4.68939ZM11.5453 4.73367L11.5258 4.72486L11.5401 4.6922L11.5596 4.70103L11.5453 4.73367ZM11.3606 4.37764L11.3141 4.3305V4.29065L11.2998 4.2761L11.2856 4.2254L11.2392 4.21089L11.1927 4.22898L11.1427 4.26162L11.0892 4.26893L11.0606 4.3015L11.1749 4.31233L11.1963 4.34864L11.2785 4.35588L11.332 4.41023C11.3785 4.42476 11.3892 4.40299 11.3606 4.37764ZM11.3535 4.19996C11.3457 4.1681 11.2999 4.23981 11.3465 4.25427C11.3929 4.26886 11.4392 4.25427 11.4392 4.25427L11.45 4.23255L11.6285 4.2362C11.6429 4.22168 11.65 4.19994 11.65 4.19994C11.65 4.19994 11.6928 4.18541 11.7106 4.19265C11.7285 4.19996 11.7143 4.14195 11.6964 4.14919C11.6785 4.15643 11.6428 4.1528 11.6428 4.1528H11.5785C11.575 4.12745 11.5178 4.1383 11.5143 4.1528C11.5106 4.1673 11.4893 4.17091 11.4893 4.17091L11.4071 4.17819C11.4 4.19996 11.3572 4.21444 11.3535 4.19996ZM10.9999 4.81164C11.0548 4.82906 11.0749 4.81615 11.0785 4.80167C11.0821 4.78717 11.0856 4.78351 11.107 4.77993C11.1285 4.77627 11.1035 4.73281 11.0821 4.73642C11.0606 4.74005 11.0392 4.72918 11.0357 4.71107C11.032 4.69296 10.9963 4.64582 10.9927 4.68206C10.9892 4.71833 10.9678 4.71833 10.9713 4.7437C10.9749 4.76901 10.9856 4.80706 10.9999 4.81164ZM10.5893 4.85246C10.5867 4.83963 10.6607 4.83798 10.6715 4.84881C10.6822 4.8597 10.675 4.87781 10.7072 4.87781C10.7393 4.87781 10.725 4.89958 10.7215 4.91047C10.7179 4.92132 10.6822 4.91771 10.6786 4.90686C10.675 4.89597 10.6214 4.89229 10.6214 4.89229C10.6214 4.89229 10.5929 4.87053 10.5893 4.85246ZM11.7742 4.12755L11.7816 4.12145L11.8175 4.09245L11.804 4.07547L11.7757 4.09836L11.7576 4.07988L11.7424 4.09524L11.7673 4.12061L11.7742 4.12755ZM11.6128 4.03152L11.6522 4.00612L11.6407 3.98779L11.6071 4.00949L11.5842 3.99501L11.5729 4.01345L11.6015 4.03154L11.6071 4.03519L11.6128 4.03152ZM11.5017 4.81104L11.5197 4.79941L11.4948 4.7596L11.4919 4.75518L11.4867 4.75466L11.451 4.7509L11.4489 4.7726L11.4795 4.77567L11.5017 4.81104ZM10.3107 5.76579L10.3143 5.80569H10.3678C10.3893 5.80569 10.35 5.78032 10.35 5.78032C10.35 5.78032 10.3071 5.78397 10.3107 5.76579ZM10.3788 5.76697L10.3925 5.75022L10.4139 5.76826L10.4002 5.78502L10.3788 5.76697ZM9.72803 5.08882L9.74322 5.07343L9.76464 5.0952L9.74945 5.11058L9.72803 5.08882ZM10.7505 9.78976L10.7683 9.77167L10.7788 9.76107L10.7655 9.75424L10.7298 9.73613L10.7202 9.75559L10.7426 9.76687L10.7352 9.77439L10.7505 9.78976ZM10.4795 9.52994L10.4919 9.51232L10.4781 9.50226L10.4889 9.4932L10.4753 9.47646L10.4537 9.49457L10.4431 9.50362L10.4544 9.51182L10.4795 9.52994ZM13.1447 8.80557C13.14 8.78709 13.1191 8.77953 13.1168 8.77875L13.11 8.79942V8.79929C13.1117 8.79994 13.1141 8.80123 13.1166 8.80286L13.121 8.82166C13.1195 8.82384 13.118 8.82593 13.1163 8.82793L13.132 8.84265C13.1434 8.82989 13.1477 8.81751 13.1447 8.80557ZM13.1428 8.73454L13.1455 8.70192L13.1803 8.70738L13.1776 8.73712L13.1428 8.73454ZM14.0054 8.4545C14.0206 8.44483 14.0402 8.42728 14.0375 8.46812C14.0348 8.50888 14.0188 8.49532 14.0054 8.50888C13.992 8.5225 13.984 8.46812 14.0054 8.4545ZM14.1872 8.30067C14.1869 8.29996 14.1867 8.29744 14.1865 8.29562C14.186 8.28962 14.1853 8.28148 14.181 8.27293L14.1619 8.28264C14.1642 8.2875 14.1647 8.29263 14.1651 8.29755C14.1657 8.30389 14.1664 8.31115 14.1725 8.31575C14.1763 8.31867 14.1811 8.31951 14.1869 8.31839L14.1828 8.29734C14.1845 8.29762 14.1866 8.29912 14.1872 8.30067ZM14.1395 8.3185C14.1433 8.3336 14.1479 8.3485 14.1532 8.36315L14.1733 8.3555C14.1731 8.3553 14.1653 8.33405 14.1602 8.31317L14.1395 8.3185ZM14.0615 8.40401L14.0401 8.40186C14.0385 8.41899 14.0425 8.44011 14.0594 8.44354L14.0636 8.42223C14.0638 8.42223 14.064 8.42236 14.064 8.42236C14.0623 8.42081 14.0607 8.41205 14.0615 8.40401ZM13.9676 7.97152C13.9671 7.96818 13.9658 7.96502 13.9637 7.96235C13.9617 7.95968 13.959 7.95758 13.9559 7.95626C13.94 7.9493 13.9133 7.96084 13.9002 7.96973L13.912 7.98782C13.9256 7.97865 13.9434 7.97422 13.9474 7.97624C13.947 7.97611 13.9465 7.97547 13.9464 7.97506L13.9676 7.97152ZM12.9784 6.81347C12.9641 6.82799 12.932 6.83523 12.932 6.83523L12.9212 6.87511L12.9034 6.88959C12.9034 6.88959 12.907 6.90046 12.9034 6.92584C12.8999 6.95119 12.8677 6.96571 12.8677 6.96571L12.8534 6.98385C12.8534 6.98385 12.7673 6.98851 12.757 6.98385C12.7248 6.96934 12.7463 6.92584 12.7677 6.92947C12.7891 6.93312 12.7641 6.86783 12.7641 6.86783L12.7927 6.86422C12.7927 6.86422 12.7962 6.79895 12.807 6.79895C12.8177 6.79895 12.8034 6.77722 12.7891 6.76633C12.7748 6.7555 12.757 6.71926 12.7426 6.72287C12.7284 6.72645 12.6712 6.72287 12.6712 6.72287L12.6605 6.74463L12.6212 6.75185C12.6212 6.75185 12.6246 6.77989 12.6177 6.78812C12.5962 6.81347 12.5141 6.86783 12.5498 6.77725L12.5605 6.75552V6.72287L12.4963 6.71928C12.4963 6.71928 12.4641 6.70839 12.4641 6.69388C12.4641 6.67938 12.4605 6.66129 12.4605 6.66129L12.3855 6.57793L12.2962 6.56706L12.2891 6.5489L12.2356 6.54166C12.1712 6.50907 12.1141 6.53803 12.1248 6.59241C12.1355 6.64683 12.1533 6.66855 12.1177 6.66855C12.0819 6.66855 12.0748 6.63955 12.0748 6.63955C12.0748 6.63955 12.0463 6.62865 12.0463 6.64316C12.0463 6.65768 12.0355 6.68666 12.0463 6.70117C12.0569 6.71563 12.0319 6.73739 12.0212 6.72652C12.0106 6.71563 11.982 6.68308 11.9891 6.67218C11.9962 6.66131 11.9391 6.59241 11.9962 6.58156C12.0534 6.57067 11.9927 6.53803 12.0141 6.53083L12.0427 6.51631H12.0712L12.0891 6.50179L12.0427 6.49459L12.0141 6.49094L11.9605 6.48733C11.907 6.52357 11.8963 6.56708 11.8963 6.56708C11.8677 6.62144 11.7999 6.54531 11.8249 6.51633C11.8498 6.48733 11.7463 6.51268 11.7284 6.52718C11.7105 6.54168 11.6569 6.53444 11.6569 6.53444C11.6463 6.5671 11.5963 6.53085 11.6105 6.50909C11.6248 6.48733 11.6248 6.47282 11.6248 6.47282L11.607 6.46919L11.5856 6.50907C11.5356 6.50907 11.5212 6.53803 11.5319 6.55619C11.5427 6.57428 11.5177 6.55255 11.5105 6.57793C11.5034 6.60328 11.5141 6.60328 11.5356 6.61417C11.557 6.62507 11.5248 6.62507 11.5391 6.64316C11.5534 6.66131 11.5963 6.64316 11.5713 6.66855C11.5463 6.6939 11.4962 6.68308 11.4962 6.68308C11.4927 6.71563 11.4248 6.70843 11.4177 6.69756C11.4105 6.68669 11.357 6.62141 11.357 6.62141L11.289 6.6178C11.282 6.5671 11.3212 6.59245 11.3355 6.55255C11.3499 6.51268 11.357 6.44747 11.357 6.44747C11.357 6.44747 11.2998 6.44384 11.2962 6.46195C11.2927 6.48009 11.257 6.49096 11.257 6.49096C11.257 6.49096 11.2284 6.50181 11.2391 6.51631C11.2498 6.53085 11.2177 6.53803 11.2177 6.53803C11.2177 6.53803 11.2232 6.56145 11.2141 6.57069C11.1856 6.59969 11.1141 6.57428 11.1034 6.56343L11.0605 6.54529L11.0176 6.51631L10.9677 6.53801L10.9534 6.55255H10.8998L10.8963 6.596L10.9927 6.60685L10.9998 6.69657L10.9605 6.68303H10.9355L10.9248 6.66127L10.9034 6.65762V6.73735L10.9248 6.7555L10.9427 6.77357L10.9784 6.77722L10.9856 6.82069L11.0748 6.82436L11.0856 6.84245L11.1392 6.84611L11.2427 6.95117L11.2356 6.98382L11.2177 6.9947C11.2249 7.02007 11.1713 7.00559 11.1713 7.00559V7.02729L11.1962 7.03094L11.2213 7.0454L11.257 6.9838C11.2963 6.95845 11.3141 6.9947 11.3177 7.01644C11.3213 7.03818 11.2998 7.03455 11.2998 7.03455V7.08534L11.3213 7.09254C11.357 7.13605 11.307 7.16144 11.307 7.16144L11.2962 7.19767C11.2855 7.2303 11.2462 7.22302 11.2462 7.22302L11.232 7.24478L11.1891 7.25568L11.2739 7.26653C11.282 7.23752 11.3033 7.23028 11.3141 7.24478C11.3248 7.25931 11.3248 7.28468 11.3248 7.28468L11.3463 7.28829L11.3427 7.32814L11.3641 7.33543V7.4514L11.3891 7.48041C11.432 7.46232 11.432 7.4913 11.4105 7.50576C11.3891 7.52022 11.4033 7.58551 11.4033 7.58551L11.3855 7.6036V7.63263L11.3641 7.64713V7.68699C11.3284 7.66888 11.2855 7.67607 11.2747 7.68699C11.2427 7.66522 11.1748 7.67249 11.1748 7.69064C11.1962 7.71965 11.1498 7.72689 11.1498 7.72689L11.1248 7.75589C11.1427 7.79214 11.107 7.79572 11.107 7.79572V7.86463L11.0641 7.9045L11.0677 7.99874C11.0677 8.02411 11.1212 8.02772 11.1319 8.01324C11.1426 7.99874 11.1855 8.04224 11.1855 8.04224H11.2176L11.2248 7.97697L11.2033 7.9661V7.86097L11.2391 7.82108C11.282 7.8066 11.2677 7.9154 11.2677 7.92625C11.2712 7.9661 11.289 7.96249 11.3069 7.95521C11.3427 7.94073 11.314 7.99515 11.2855 7.99148C11.257 7.98789 11.2748 8.02772 11.2748 8.02772L11.2927 8.035L11.2605 8.06036L11.232 8.09301L11.1962 8.0821L11.1534 8.07853L11.1391 8.05309L11.1141 8.04949L11.1105 8.10019L11.0927 8.12195L11.0498 8.1655C11.107 8.1655 11.0426 8.2053 11.0283 8.2053C11.0605 8.21619 11.0248 8.24885 10.9427 8.22349V8.24882L10.914 8.25248L10.9391 8.28142L10.9676 8.28507L10.9569 8.34667C10.9569 8.39378 10.8391 8.36113 10.8283 8.3503L10.8248 8.41555L10.8033 8.41911L10.8069 8.46267L10.8033 8.52431L10.8426 8.51704V8.54244L10.9391 8.54607L11.0784 8.39739L11.1605 8.37932C11.1676 8.34301 11.2033 8.38659 11.2033 8.38659C11.2391 8.38287 11.2462 8.40829 11.2462 8.40829L11.2927 8.41555C11.3319 8.42646 11.3082 8.43027 11.3105 8.4446C11.314 8.4663 11.3319 8.45906 11.3319 8.45906L11.3391 8.41194L11.3605 8.41555L11.3391 8.39017L11.2997 8.37202L11.2569 8.35393C11.2283 8.31407 11.2641 8.32131 11.2927 8.32497H11.3391C11.3391 8.32497 11.3927 8.39741 11.3927 8.41555C11.3927 8.43372 11.4177 8.43733 11.4177 8.43733L11.4498 8.43368L11.4605 8.45903H11.4926L11.5034 8.48073H11.5677L11.5712 8.44814L11.5105 8.43733L11.5069 8.40102L11.4641 8.39015C11.4498 8.32858 11.4748 8.31044 11.4926 8.33947L11.5141 8.34301L11.5069 8.28866L11.5319 8.28139L11.5248 8.20525L11.5034 8.19805V8.17266L11.5926 8.17635C11.5855 8.12915 11.5962 8.10743 11.5962 8.10743H11.6212L11.6248 8.12561L11.734 8.13592L11.8113 8.04729C11.8074 8.04053 11.819 8.03638 11.8106 8.0277C11.7998 8.01683 11.7855 8.0277 11.7676 8.01683C11.7498 8.00602 11.7676 7.94434 11.764 7.92986C11.7605 7.91537 11.8248 7.89355 11.8141 7.92623C11.8034 7.95888 11.8141 7.97336 11.8141 7.97336C11.8605 7.92986 11.8998 7.97695 11.8963 7.98784C11.8926 7.99872 11.9212 8.00961 11.939 7.99872C11.9569 7.98784 11.9784 8.03137 11.9712 8.05307C11.964 8.07479 11.8998 8.07121 11.8963 8.04944C11.8926 8.02768 11.8819 8.03496 11.8748 8.04585C11.8676 8.05673 11.8355 8.06394 11.8177 8.05305C11.814 8.05086 11.8123 8.04906 11.8113 8.04729L11.734 8.13592L11.739 8.13641C11.7819 8.16183 11.7605 8.19442 11.7462 8.20169C11.7319 8.20893 11.7069 8.20893 11.7069 8.20893L11.6998 8.22345L11.6069 8.23067L11.5997 8.26696C11.5533 8.25963 11.5355 8.31042 11.5462 8.33575C11.5569 8.3611 11.5462 8.38287 11.5462 8.38287L11.5855 8.40102L11.6355 8.38659C11.6426 8.35028 11.6747 8.34301 11.7033 8.32131C11.7319 8.29955 11.7783 8.3611 11.764 8.39015C11.7498 8.41911 11.7498 8.43001 11.7498 8.43001L11.7533 8.46267L11.7176 8.47712L11.689 8.49165L11.6854 8.50978H11.589L11.5712 8.52787L11.5247 8.53159L11.5104 8.55329L11.4783 8.55694C11.4783 8.55694 11.4247 8.58232 11.4462 8.6113C11.4676 8.64033 11.3569 8.63669 11.3318 8.5968C11.3247 8.633 11.2854 8.60041 11.2854 8.60041L11.2461 8.58951L11.2426 8.5352C11.2354 8.49891 11.1676 8.49891 11.1712 8.52433C11.1747 8.5497 11.0426 8.5352 11.0426 8.5352L10.9997 8.55602L10.9604 8.57871L10.9568 8.5968L10.8925 8.60404L10.864 8.61856L10.8533 8.5968H10.8247L10.7961 8.63672C10.7212 8.64037 10.6497 8.68383 10.6568 8.70197C10.664 8.72006 10.6283 8.73828 10.6283 8.73828L10.5961 8.74902L10.5748 8.78168L10.5319 8.7962L10.5247 8.87234L10.5033 8.8868V8.91946L10.4783 8.92666V8.94481L10.4426 8.94844L10.464 9.00282L10.4926 9.01735C10.5426 9.02454 10.5212 9.08623 10.5212 9.08623L10.5497 9.08979L10.564 9.12965L10.5926 9.18766C10.6033 9.23121 10.6355 9.22032 10.6497 9.21668C10.664 9.21312 10.6782 9.26017 10.6782 9.26017L10.8211 9.26382C10.8211 9.26382 10.814 9.27833 10.839 9.28557C10.864 9.29276 11.0283 9.30009 11.0355 9.28922C11.0283 9.25656 11.1247 9.2493 11.164 9.2783C11.2033 9.30727 11.2568 9.28922 11.2568 9.28922L11.3104 9.35438L11.3462 9.43416L11.4069 9.45225L11.4497 9.46316L11.464 9.52478L11.4961 9.52841L11.5069 9.56831C11.5462 9.59729 11.4961 9.65893 11.4961 9.65893V9.73864L11.5247 9.75317L11.5211 9.78219L11.5676 9.82925L11.6212 9.83294L11.7569 9.9779L11.864 10.0105L11.8818 10.0685L11.9105 10.0649L11.9319 10.0468L12.0176 10.0432L12.0605 10.0032L12.1069 9.99603L12.5033 9.65893L12.4676 9.63715V9.55744C12.5319 9.51034 12.5354 9.42692 12.4747 9.41968C12.4287 9.41418 12.4498 9.3653 12.4926 9.35806L12.5176 9.34723V9.31457L12.5997 9.23849V9.18048L12.4212 9.03181C12.3426 9.00286 12.4212 8.82884 12.4747 8.83247C12.5283 8.83605 12.4712 8.56425 12.4712 8.56425L12.4426 8.54979L12.4498 8.46275H12.4105L12.3462 8.54616L12.3283 8.6041C12.3212 8.68031 12.0997 8.66572 12.089 8.65485C12.0783 8.64396 12.0033 8.61136 12.0033 8.61136C12.0033 8.61136 11.9461 8.56425 11.9354 8.57877C11.9247 8.59329 11.8748 8.56062 11.8748 8.57151C11.8748 8.5824 11.8283 8.54618 11.8283 8.54618L11.7569 8.52078L11.8105 8.50987L11.7998 8.4664L11.8926 8.51352C11.9033 8.52796 11.9497 8.52441 11.9497 8.52441L11.964 8.54255C11.964 8.54255 11.9926 8.53887 12.0105 8.56066C12.0284 8.58242 12.1212 8.56429 12.1212 8.56429L12.1462 8.58599L12.1854 8.60051L12.2962 8.60417L12.2997 8.53533L12.3212 8.51356L12.3176 8.47001L12.3426 8.44831V8.41209L12.3641 8.40483L12.3676 8.32512L12.3854 8.32149V8.14748L12.3319 8.09671C12.3283 8.11486 12.2712 8.11486 12.2712 8.11486C12.2712 8.11486 12.2569 8.14022 12.2462 8.14022C12.2355 8.14022 12.2605 8.17279 12.2533 8.19457C12.2462 8.21627 12.2176 8.21627 12.2176 8.21627L12.164 8.23082L12.1497 8.24897H12.0926L12.0855 8.20186L12.1497 8.1837L12.1854 8.16561L12.2033 8.1293C12.2068 8.09312 12.2497 8.09671 12.2497 8.09671C12.2497 8.09671 12.3319 8.02783 12.3354 7.99526C12.3391 7.96262 12.3676 7.872 12.4176 7.872H12.5105C12.5461 7.85745 12.5354 7.81036 12.5354 7.81036L12.5819 7.80316L12.589 7.82851C12.589 7.82851 12.6534 7.83575 12.6605 7.82488C12.6676 7.81405 12.6819 7.78863 12.6998 7.79953C12.7176 7.81038 12.7748 7.77413 12.7748 7.77413C12.7783 7.74876 12.8676 7.75963 12.8676 7.75963L12.8784 7.72704C12.8784 7.72704 12.8177 7.64368 12.8069 7.64368C12.7962 7.64368 12.7391 7.59286 12.7319 7.61102C12.6748 7.59654 12.6784 7.51676 12.6784 7.51676L12.6569 7.46606C12.6569 7.43701 12.6034 7.37539 12.5926 7.3827C12.539 7.34282 12.5783 7.29568 12.5926 7.29205C12.6069 7.28846 12.6427 7.23769 12.6427 7.23769L12.6605 7.18692L12.7212 7.16888L12.7284 7.12172L12.6963 7.11808C12.6963 7.11808 12.7319 7.05283 12.7498 7.05283C12.7677 7.05283 12.8856 7.05283 12.8962 7.04555C12.9069 7.03835 12.9283 6.98034 12.9283 6.96947C12.9283 6.95858 12.957 6.95495 12.9676 6.9513C12.9784 6.94771 13.0033 6.9187 13.0105 6.9042C13.0177 6.88959 12.9927 6.79897 12.9784 6.81347H12.9784Z" fill="white"/>
<path d="M10.9996 8.12039C11.0049 8.11502 11.0103 8.13672 11.021 8.13401C11.0317 8.13128 11.0371 8.15305 11.0264 8.15305C11.0156 8.15305 11.0156 8.16667 11.0156 8.1721C11.0156 8.17754 11.0156 8.1911 11.0076 8.19926C10.9996 8.20743 10.9915 8.20197 10.9808 8.19655C10.9701 8.19112 10.9648 8.19112 10.9513 8.19112C10.938 8.19112 10.9486 8.21288 10.9486 8.21288C10.9486 8.21288 10.8924 8.21015 10.9031 8.20197C10.9138 8.19389 10.9245 8.1911 10.9165 8.18564C10.9085 8.1802 10.9165 8.17481 10.9165 8.16394C10.9165 8.15303 10.9433 8.1585 10.9352 8.15032C10.9273 8.14215 10.9354 8.11061 10.9486 8.12855L10.9567 8.1095C10.9486 8.10135 10.954 8.0986 10.938 8.09325C10.9219 8.08782 10.9352 8.05516 10.9352 8.05516L10.938 8.03342C10.9433 8.00628 10.9968 8.00353 10.9996 8.02796C11.0022 8.05245 10.9996 8.06878 10.9996 8.06878L11.0157 8.07418C11.0157 8.07418 11.0129 8.09057 10.9996 8.09057C10.9861 8.09057 10.9996 8.09863 10.9915 8.10683L10.9996 8.12037V8.12039ZM10.8228 8.14768C10.8308 8.13135 10.8495 8.06066 10.871 8.08243C10.8923 8.10419 10.9058 8.08243 10.9058 8.08243C10.9058 8.08243 10.9165 8.09334 10.9111 8.11508C10.9058 8.13678 10.9004 8.15857 10.887 8.16128C10.8736 8.164 10.8629 8.17217 10.8469 8.1749C10.8308 8.17763 10.8228 8.14768 10.8228 8.14768Z" fill="white"/>
</g>
<defs>
<clipPath id="clip0_192_8696">
<rect width="22.4" height="16" rx="1" fill="white"/>
</clipPath>
</defs>
</svg>
