<svg width="65" height="64" viewBox="0 0 65 64" fill="none" xmlns="http://www.w3.org/2000/svg">
<g id="ic-medication">
<path id="Vector" d="M15.6719 18.0807V20.1624V53.2036V55.2845H15.7565V53.7561C15.8582 54.0782 16.0514 54.381 16.3345 54.6642C16.7744 55.1041 17.2619 55.3268 17.7959 55.3268H47.4541C47.9881 55.3268 48.4756 55.1041 48.9155 54.6642C49.3554 54.2243 49.5781 53.7371 49.5781 53.2036V20.1624C49.5781 19.6289 49.3554 19.1418 48.9155 18.7019C48.4756 18.2614 47.9882 18.0384 47.4541 18.0384H17.7959C17.2619 18.0384 16.7744 18.2614 16.3345 18.7019C16.0514 18.985 15.8582 19.2878 15.7565 19.6099V18.0807H15.6719ZM34.7067 38.722H34.6645V38.7643V47.1775H30.5856V38.7643V38.722H30.5433H22.1302V34.644H30.5433H30.5856V34.6017V26.1886H34.6645V34.6017V34.644H34.7067H43.1199V38.722H34.7067ZM13.9668 16.3341L13.9668 16.3341C15.0288 15.2715 16.3044 14.7408 17.7959 14.7408H47.4541C48.9456 14.7408 50.2212 15.2715 51.2833 16.3341L51.3132 16.3042L51.2833 16.3341C52.3453 17.3961 52.8757 18.6715 52.8757 20.1624V53.2036C52.8757 54.6946 52.3453 55.9699 51.2833 57.0319C50.2212 58.094 48.9456 58.6244 47.4541 58.6244H17.7959C16.3044 58.6244 15.0288 58.094 13.9668 57.0319C12.9047 55.9699 12.3743 54.6946 12.3743 53.2036V20.1624C12.3743 18.6715 12.9047 17.3961 13.9668 16.3341ZM13.9352 8.67321V5.37561H51.3148V8.67321H13.9352Z" fill="#13B89C" stroke="#13B89C" stroke-width="0.0845541"/>
</g>
</svg>
