<svg width="65" height="64" viewBox="0 0 65 64" fill="none" xmlns="http://www.w3.org/2000/svg">
<g id="ic-service">
<path id="Vector" d="M19.3335 37V27H21.3335V37H19.3335Z" fill="#13B89C" stroke="#13B89C" stroke-width="2"/>
<path id="Vector_2" d="M46.3335 26H42.3335V38H46.3335V26Z" fill="#13B89C"/>
<path id="Vector_3" d="M30.3335 22H26.3335V48H30.3335V22Z" fill="#13B89C"/>
<path id="Vector_4" d="M38.3335 18H34.3335V44H38.3335V18Z" fill="#13B89C"/>
<path id="Vector_5" d="M44.3335 14C46.5426 14 48.3335 12.2091 48.3335 10C48.3335 7.79086 46.5426 6 44.3335 6C42.1244 6 40.3335 7.79086 40.3335 10C40.3335 12.2091 42.1244 14 44.3335 14Z" fill="#13B89C"/>
<path id="Vector_6" d="M20.3335 58C22.5426 58 24.3335 56.2091 24.3335 54C24.3335 51.7909 22.5426 50 20.3335 50C18.1244 50 16.3335 51.7909 16.3335 54C16.3335 56.2091 18.1244 58 20.3335 58Z" fill="#13B89C"/>
<path id="Vector_7" d="M44.5167 56H28.3335V52H44.5167L56.3331 32L50.9347 22.8642L54.3801 20.829L59.7785 29.9648C60.5187 31.2196 60.5187 32.7802 59.7785 34.0352L47.9601 54.0352C47.2453 55.2462 45.9249 56 44.5167 56Z" fill="#13B89C"/>
<path id="Vector_8" d="M10.287 43.1718L4.88865 34.035C4.14845 32.7802 4.14845 31.2196 4.88865 29.9646L16.707 9.96464C17.4238 8.75264 18.7422 7.99984 20.1504 7.99984H36.3336V11.9998H20.1504L8.33405 31.9998L13.7324 41.1366L10.287 43.1718Z" fill="#13B89C"/>
</g>
</svg>
