<svg width="65" height="64" viewBox="0 0 65 64" fill="none" xmlns="http://www.w3.org/2000/svg">
<path d="M40.5837 24.5434L40.6092 24.5728L40.5837 24.5434C38.5507 26.3121 35.9488 28.6269 32.7778 31.4877C29.4518 28.4718 26.8109 26.1181 24.8551 24.4267L24.8297 24.4561L24.8551 24.4267C22.9029 22.7388 21.9278 20.6396 21.9278 18.1266C21.9278 16.6689 22.4384 15.4304 23.4603 14.4091L23.4603 14.4091C24.4817 13.3872 25.7201 12.8766 27.1778 12.8766C28.5802 12.8766 29.6497 13.1956 30.392 13.8278L30.392 13.8278C31.1416 14.4657 31.9267 15.2924 32.7475 16.3084L32.7778 16.3459L32.808 16.3084C33.6288 15.2924 34.414 14.4657 35.1635 13.8278L35.1635 13.8278C35.9059 13.1956 36.9754 12.8766 38.3778 12.8766C39.8355 12.8766 41.0739 13.3872 42.0953 14.4091L42.0953 14.4091C43.1172 15.4304 43.6278 16.6689 43.6278 18.1266C43.6278 20.6391 42.6142 22.7774 40.5837 24.5434ZM50.9337 55.0449L50.9337 55.0448C51.3006 54.6774 51.4833 54.2083 51.4833 53.6407V7.69267C51.4833 7.12505 51.3006 6.65591 50.9337 6.28852L50.9337 6.28849C50.5663 5.92163 50.0972 5.73889 49.5296 5.73889H16.026C15.4584 5.73889 14.9892 5.92163 14.6219 6.28849L14.6218 6.28853C14.255 6.65591 14.0722 7.12505 14.0722 7.69267V53.6407C14.0722 54.2083 14.255 54.6774 14.6218 55.0448L14.6219 55.0449C14.9892 55.4117 15.4584 55.5944 16.026 55.5944H49.5296C50.0972 55.5944 50.5663 55.4117 50.9337 55.0449ZM43.6278 45.4234V48.4568H21.9278V45.4234H43.6278ZM43.6278 37.2871V40.3205H21.9278V37.2871H43.6278ZM49.5296 58.6278H16.026C14.6035 58.6278 13.4179 58.1518 12.4664 57.2003C11.5149 56.2488 11.0389 55.0631 11.0389 53.6407V7.69267C11.0389 6.2702 11.5149 5.08459 12.4664 4.13306C13.4179 3.18153 14.6035 2.70556 16.026 2.70556H49.5296C50.952 2.70556 52.1376 3.18153 53.0892 4.13306C54.0407 5.08459 54.5167 6.2702 54.5167 7.69267V53.6407C54.5167 55.0631 54.0407 56.2488 53.0892 57.2003C52.1376 58.1518 50.952 58.6278 49.5296 58.6278Z" fill="#13B89C" stroke="#13B89C" stroke-width="0.0777778"/>
</svg>
