<svg width="37" height="36" viewBox="0 0 37 36" fill="none" xmlns="http://www.w3.org/2000/svg">
<g clip-path="url(#clip0_250_5194)">
<path d="M32.0817 32.625H34.5004L27.7504 15.75H25.1067L18.3567 32.625H20.7754L22.5754 28.125H30.2817L32.0817 32.625ZM23.4754 25.875L26.4229 18.495L29.3817 25.875H23.4754Z" fill="#004860"/>
<path d="M21 7.875V5.625H13.125V2.25H10.875V5.625H3V7.875H15.0825C14.4592 10.446 13.2285 12.8302 11.4938 14.8275C10.3629 13.4252 9.49056 11.8329 8.9175 10.125H6.555C7.26316 12.4162 8.40936 14.5481 9.93 16.4025C8.24938 18.0327 6.28113 19.3372 4.125 20.25L4.96875 22.3425C7.39153 21.3195 9.59809 19.846 11.4712 18C13.3104 19.8712 15.5166 21.342 17.9513 22.32L18.75 20.25C16.5815 19.4118 14.6175 18.1191 12.99 16.4587C15.1439 14.004 16.6587 11.0555 17.4 7.875H21Z" fill="#004860"/>
</g>
<defs>
<clipPath id="clip0_250_5194">
<rect width="36" height="36" fill="white" transform="translate(0.75)"/>
</clipPath>
</defs>
</svg>
