<svg width="56" height="56" viewBox="0 0 56 56" fill="none" xmlns="http://www.w3.org/2000/svg">
<path d="M19.875 24.75C16.7333 24.75 14.0521 25.8604 11.8313 28.0813C9.61042 30.3021 8.5 32.9833 8.5 36.125C8.5 39.2667 9.61042 41.9479 11.8313 44.1687C14.0521 46.3896 16.7333 47.5 19.875 47.5C23.0167 47.5 25.6979 46.3896 27.9188 44.1687C30.1396 41.9479 31.25 39.2667 31.25 36.125C31.25 32.9833 30.1396 30.3021 27.9188 28.0813C25.6979 25.8604 23.0167 24.75 19.875 24.75Z" fill="#042941"/>
<path d="M50.75 21.5C52.5449 21.5 54 20.0449 54 18.25V4.925C54 3.30957 52.6904 2 51.075 2H37.75C35.9551 2 34.5 3.45507 34.5 5.25C34.5 7.04493 35.9551 8.5 37.75 8.5H42.8688C45.1844 8.5 46.3422 8.5 46.9211 9.07891C47.5 9.65781 47.5 10.8156 47.5 13.1313V18.25C47.5 20.0449 48.9551 21.5 50.75 21.5Z" fill="url(#paint0_linear_190_6634)"/>
<path fill-rule="evenodd" clip-rule="evenodd" d="M42.8688 17.7118L34.5812 25.9688C35.6104 27.4854 36.3958 29.0969 36.9375 30.8031C37.4792 32.5094 37.75 34.2833 37.75 36.125C37.75 41.1083 36.0167 45.3333 32.55 48.8C29.0833 52.2667 24.8583 54 19.875 54C14.8917 54 10.6667 52.2667 7.2 48.8C3.73333 45.3333 2 41.1083 2 36.125C2 31.1417 3.73333 26.9167 7.2 23.45C10.6667 19.9833 14.8917 18.25 19.875 18.25C21.6625 18.25 23.4229 18.5073 25.1562 19.0219C26.8896 19.5365 28.4875 20.3354 29.95 21.4188L38.2375 13.1313L42.8688 17.7118ZM19.875 24.75C16.7333 24.75 14.0521 25.8604 11.8313 28.0813C9.61042 30.3021 8.5 32.9833 8.5 36.125C8.5 39.2667 9.61042 41.9479 11.8313 44.1687C14.0521 46.3896 16.7333 47.5 19.875 47.5C23.0167 47.5 25.6979 46.3896 27.9188 44.1687C30.1396 41.9479 31.25 39.2667 31.25 36.125C31.25 32.9833 30.1396 30.3021 27.9188 28.0813C25.6979 25.8604 23.0167 24.75 19.875 24.75Z" fill="#13B89C"/>
<path d="M47.5 13.1313C47.5 10.8156 47.5 9.65781 46.9211 9.07891C46.3422 8.5 45.1844 8.5 42.8688 8.5L38.2375 13.1313L42.8688 17.7118L47.5 13.1313Z" fill="#042941"/>
<path d="M50.75 21.5C52.5449 21.5 54 20.0449 54 18.25V4.925C54 3.30957 52.6904 2 51.075 2H37.75C35.9551 2 34.5 3.45507 34.5 5.25C34.5 7.04493 35.9551 8.5 37.75 8.5H42.8688C45.1844 8.5 46.3422 8.5 46.9211 9.07891C47.5 9.65781 47.5 10.8156 47.5 13.1313V18.25C47.5 20.0449 48.9551 21.5 50.75 21.5Z" fill="#042941"/>
<path d="M19.875 24.7525C16.7333 24.7525 14.052 25.8629 11.8312 28.0838C9.61037 30.3046 8.49996 32.9859 8.49996 36.1275C8.49996 39.2692 9.61037 41.9504 11.8312 44.1713C14.052 46.3921 16.7333 47.5025 19.875 47.5025C23.0166 47.5025 25.6979 46.3921 27.9187 44.1713C30.1395 41.9504 31.25 39.2692 31.25 36.1275C31.25 32.9859 30.1395 30.3046 27.9187 28.0838C25.6979 25.8629 23.0166 24.7525 19.875 24.7525Z" fill="url(#paint1_linear_190_6634)"/>
<path fill-rule="evenodd" clip-rule="evenodd" d="M11.8312 28.0838C14.052 25.8629 16.7333 24.7525 19.875 24.7525C23.0166 24.7525 25.6979 25.8629 27.9187 28.0838C30.1395 30.3046 31.25 32.9859 31.25 36.1275C31.25 39.2692 30.1395 41.9504 27.9187 44.1713C25.6979 46.3921 23.0166 47.5025 19.875 47.5025C16.7333 47.5025 14.052 46.3921 11.8312 44.1713C9.61037 41.9504 8.49996 39.2692 8.49996 36.1275C8.49996 32.9859 9.61037 30.3046 11.8312 28.0838Z" fill="url(#paint2_linear_190_6634)"/>
<defs>
<linearGradient id="paint0_linear_190_6634" x1="28" y1="2" x2="28" y2="54" gradientUnits="userSpaceOnUse">
<stop stop-color="#042941"/>
<stop offset="1" stop-color="#13B89C"/>
</linearGradient>
<linearGradient id="paint1_linear_190_6634" x1="8.5" y1="47.5025" x2="42.7893" y2="33.5653" gradientUnits="userSpaceOnUse">
<stop stop-color="#042941"/>
<stop offset="1" stop-color="#13B89C"/>
</linearGradient>
<linearGradient id="paint2_linear_190_6634" x1="8.5" y1="47.5025" x2="42.7893" y2="33.5653" gradientUnits="userSpaceOnUse">
<stop stop-color="#042941"/>
<stop offset="1" stop-color="#13B89C"/>
</linearGradient>
</defs>
</svg>
