<svg width="246" height="48" viewBox="0 0 246 48" fill="none" xmlns="http://www.w3.org/2000/svg">
<path d="M20.7689 41.7622H33.7644V41.7791H33.9503C34.9136 41.7283 35.7754 41.3554 36.4345 40.7452L44.225 32.9823L51.5931 25.6263C51.9987 25.2195 52.2353 24.6601 52.2353 24.0838C52.2353 23.5076 52.0156 22.9482 51.61 22.5414L50.5792 21.4906C49.768 20.677 48.7034 20.2363 47.5711 20.2363C46.422 20.2363 45.3573 20.677 44.563 21.4736L38.3948 27.6094L35.7585 30.2365C35.6402 28.2365 34.001 26.6263 31.99 26.5246H26.1091H20.1943C19.2142 26.5754 18.3185 26.9822 17.6425 27.6263L17.6087 27.6602C17.6087 27.6602 17.5411 27.728 17.5242 27.7449L4.95117 40.3554C7.45226 43.5588 10.6462 46.186 14.3303 47.9996L20.414 41.8978C20.5154 41.813 20.6337 41.7452 20.7689 41.7452" fill="white"/>
<path d="M20.769 40.424H33.7645C34.4912 40.441 35.1671 40.1528 35.6403 39.6613L43.1436 32.1696C43.1436 32.1696 43.1605 32.1527 43.1774 32.1357L50.6638 24.6779C50.9848 24.3559 50.9848 23.8135 50.6638 23.4915L49.6329 22.4406C48.5006 21.288 46.6586 21.288 45.5095 22.4406L39.4933 28.4407C39.4933 28.4407 39.4764 28.4577 39.4595 28.4746C37.8879 30.0509 35.5389 32.373 34.7277 33.1866C33.9166 34.0001 33.2237 34.5086 30.9592 34.5086C28.6947 34.5086 27.6132 34.5086 25.9232 34.5086H25.7373H20.1944C18.1665 34.4069 16.5441 32.7967 16.4258 30.7628L5.7793 41.4241C7.82411 43.8139 10.2914 45.8479 13.0629 47.3903L19.4508 41.0003C19.7888 40.6613 20.262 40.4579 20.752 40.4579" fill="#13B89C"/>
<path d="M31.4664 6.2374H18.4709V6.22044H18.285C17.3217 6.27128 16.4599 6.6442 15.8008 7.25438L8.01025 15.0172L0.642167 22.3734C0.236585 22.7801 0 23.3394 0 23.9157C0 24.492 0.219682 25.0513 0.625264 25.4581L1.65612 26.509C2.46728 27.3226 3.53195 27.7633 4.6642 27.7633C5.81335 27.7633 6.878 27.3226 7.67227 26.5259L13.8405 20.3902L16.4768 17.7631C16.5951 19.7631 18.2343 21.3733 20.2453 21.475H26.1263H32.041C33.0212 21.4241 33.9168 21.0174 34.5928 20.3733L34.6266 20.3394C34.6266 20.3394 34.6942 20.2716 34.7111 20.2547L47.2334 7.69509C44.7661 4.47468 41.5891 1.83055 37.9219 0L31.8213 6.11874C31.7199 6.20349 31.6016 6.27133 31.4664 6.27133" fill="white"/>
<path d="M31.4662 7.57596H18.4706C17.744 7.55901 17.068 7.84712 16.5948 8.33865L9.09154 15.8304C9.09154 15.8304 9.07464 15.8473 9.05774 15.8642L1.57138 23.3221C1.25029 23.6441 1.25029 24.1864 1.57138 24.5085L2.60224 25.5593C3.73449 26.7119 5.57651 26.7119 6.72566 25.5593L12.7418 19.5593C12.7418 19.5593 12.7587 19.5423 12.7756 19.5253C14.3472 17.949 16.6962 15.6269 17.5074 14.8134C18.3185 13.9998 19.0114 13.4913 21.2759 13.4913C23.5404 13.4913 24.622 13.4913 26.3119 13.4913H26.4978H32.0407C34.0686 13.593 35.691 15.2032 35.8093 17.2371L46.4051 6.60982C44.3772 4.203 41.9268 2.16908 39.1553 0.592773L32.7674 6.99968C32.4294 7.33867 31.9562 7.54208 31.4662 7.54208" fill="#13B89C"/>
<path d="M61.8905 25.0819V21.2507H70.5864V25.0819H61.8905ZM61.7966 16.5614L63.1104 15.029V31.2117L61.6402 29.8018H72.3693V33.6329H59.0127V12.761H72.3693V16.5614H61.7966Z" fill="white"/>
<path d="M91.4195 35.0122L85.0696 24.6221H89.2611L95.611 35.0122H91.4195ZM74.5594 23.2123C74.5594 21.639 74.8305 20.1985 75.3727 18.8908C75.9149 17.5626 76.6761 16.4184 77.6562 15.4581C78.6363 14.4977 79.7937 13.752 81.1283 13.2207C82.4837 12.6895 83.9643 12.4238 85.5701 12.4238C87.1549 12.4238 88.6147 12.6895 89.9493 13.2207C91.2839 13.752 92.4413 14.4977 93.4214 15.4581C94.4015 16.4184 95.1626 17.5626 95.7048 18.8908C96.247 20.1985 96.5181 21.639 96.5181 23.2123C96.5181 24.7652 96.247 26.2057 95.7048 27.5338C95.1626 28.8415 94.4015 29.9857 93.4214 30.9665C92.4413 31.9268 91.2839 32.6726 89.9493 33.2039C88.6147 33.7351 87.1549 34.0007 85.5701 34.0007C83.9643 34.0007 82.4837 33.7351 81.1283 33.2039C79.7937 32.6726 78.6363 31.9268 77.6562 30.9665C76.6761 29.9857 75.9149 28.8415 75.3727 27.5338C74.8305 26.2057 74.5594 24.7652 74.5594 23.2123ZM78.751 23.2123C78.751 24.5608 79.0429 25.7561 79.6268 26.7982C80.2107 27.8198 81.0136 28.6167 82.0354 29.1888C83.0781 29.761 84.2563 30.047 85.5701 30.047C86.8838 30.047 88.0412 29.761 89.0422 29.1888C90.064 28.6167 90.8668 27.8198 91.4507 26.7982C92.0346 25.7561 92.3266 24.5608 92.3266 23.2123C92.3266 21.8433 92.0346 20.648 91.4507 19.6263C90.8668 18.5843 90.064 17.7772 89.0422 17.2051C88.0412 16.633 86.8838 16.3469 85.5701 16.3469C84.2563 16.3469 83.0781 16.6432 82.0354 17.2357C81.0136 17.8078 80.2107 18.6047 79.6268 19.6263C79.0429 20.648 78.751 21.8433 78.751 23.2123Z" fill="white"/>
<path d="M107.658 34.0007C105.885 34.0007 104.363 33.6738 103.091 33.02C101.819 32.3457 100.838 31.3649 100.15 30.0777C99.4621 28.77 99.118 27.1558 99.118 25.2351V12.761H103.247V25.1432C103.247 26.7165 103.622 27.9424 104.373 28.8211C105.124 29.6792 106.219 30.1083 107.658 30.1083C109.117 30.1083 110.223 29.6792 110.973 28.8211C111.724 27.9424 112.099 26.7165 112.099 25.1432V12.761H116.197V25.2351C116.197 27.1558 115.853 28.77 115.165 30.0777C114.497 31.3649 113.528 32.3457 112.256 33.02C110.984 33.6738 109.451 34.0007 107.658 34.0007Z" fill="white"/>
<path d="M122.004 25.6949H132.514V29.434H122.004V25.6949ZM117.562 33.6329L125.132 12.761H129.918L137.238 33.6329H133.109L126.946 15.5194H128.135L121.691 33.6329H117.562Z" fill="white"/>
<path d="M152.205 33.6329H139.443V12.761H143.541V31.0584L142.634 29.8018H152.205V33.6329Z" fill="white"/>
<path d="M172.563 34.0007C170.373 34.0007 168.465 33.541 166.839 32.6215C165.233 31.6816 163.982 30.4046 163.085 28.7904C162.209 27.1558 161.771 25.2964 161.771 23.2123C161.771 21.639 162.032 20.1985 162.553 18.8908C163.095 17.5626 163.846 16.4184 164.805 15.4581C165.786 14.4977 166.933 13.752 168.246 13.2207C169.56 12.6895 170.999 12.4238 172.563 12.4238C175.044 12.4238 177.078 12.9449 178.663 13.9869C180.247 15.029 181.488 16.4797 182.385 18.3391L178.569 19.6876C177.797 18.4617 176.921 17.5933 175.941 17.0825C174.961 16.5717 173.835 16.3163 172.563 16.3163C171.291 16.3163 170.154 16.6125 169.153 17.2051C168.173 17.7772 167.391 18.5843 166.807 19.6263C166.244 20.648 165.963 21.8433 165.963 23.2123C165.963 24.5608 166.244 25.7561 166.807 26.7982C167.391 27.8403 168.173 28.6576 169.153 29.2501C170.154 29.8223 171.291 30.1083 172.563 30.1083C173.835 30.1083 174.961 29.8529 175.941 29.3421C176.921 28.8313 177.797 27.9629 178.569 26.7369L182.385 28.0855C181.488 29.9448 180.247 31.3956 178.663 32.4376C177.078 33.4797 175.044 34.0007 172.563 34.0007Z" fill="white"/>
<path d="M187.1 25.6949H197.61V29.434H187.1V25.6949ZM182.658 33.6329L190.228 12.761H195.014L202.333 33.6329H198.204L192.042 15.5194H193.231L186.787 33.6329H182.658Z" fill="white"/>
<path d="M204.539 33.6329V12.761H212.39C213.892 12.761 215.226 13.0572 216.394 13.6498C217.562 14.2423 218.469 15.0699 219.115 16.1324C219.783 17.1949 220.116 18.4413 220.116 19.8715C220.116 21.3018 219.783 22.5482 219.115 23.6107C218.469 24.6732 217.562 25.5007 216.394 26.0933C215.226 26.6654 213.892 26.9515 212.39 26.9515H207.792V23.1203H211.984C213.193 23.1203 214.152 22.8445 214.861 22.2928C215.57 21.7207 215.925 20.9136 215.925 19.8715C215.925 18.7886 215.57 17.9713 214.861 17.4196C214.152 16.8679 213.193 16.5921 211.984 16.5921H207.761L208.637 15.7033V33.6329H204.539ZM215.862 33.6329L211.17 25.0819H215.675L220.335 33.6329H215.862Z" fill="white"/>
<path d="M226.417 25.0819V21.2507H235.113V25.0819H226.417ZM226.323 16.5614L227.637 15.029V31.2117L226.167 29.8018H236.896V33.6329H223.539V12.761H236.896V16.5614H226.323Z" fill="white"/>
<path d="M241.337 16.3829H241.93C242.381 16.3829 242.74 16.2784 243.007 16.0694C243.273 15.8604 243.406 15.5589 243.406 15.165C243.406 14.7631 243.273 14.4616 243.007 14.2607C242.74 14.0517 242.381 13.9472 241.93 13.9472H240.756V17.2751H241.567V14.4174L241.288 14.7068H241.978C242.373 14.7068 242.571 14.8596 242.571 15.165C242.571 15.4705 242.373 15.6232 241.978 15.6232H241.337V16.3829ZM243.345 17.2751L242.619 15.9488H241.724L242.474 17.2751H243.345ZM241.978 12.2832C242.438 12.2832 242.874 12.3716 243.285 12.5485C243.696 12.7253 244.055 12.9705 244.362 13.284C244.677 13.5895 244.923 13.9472 245.1 14.3571C245.278 14.7671 245.366 15.2092 245.366 15.6835C245.366 16.1417 245.278 16.5758 245.1 16.9858C244.931 17.3877 244.689 17.7454 244.374 18.0589C244.068 18.3724 243.709 18.6176 243.297 18.7944C242.886 18.9713 242.446 19.0597 241.978 19.0597C241.51 19.0597 241.071 18.9713 240.659 18.7944C240.248 18.6176 239.885 18.3724 239.57 18.0589C239.263 17.7454 239.021 17.3877 238.844 16.9858C238.675 16.5758 238.59 16.1417 238.59 15.6835C238.59 15.2092 238.679 14.7671 238.856 14.3571C239.034 13.9472 239.276 13.5895 239.582 13.284C239.897 12.9705 240.256 12.7253 240.659 12.5485C241.071 12.3716 241.51 12.2832 241.978 12.2832ZM241.978 18.2036C242.438 18.2036 242.853 18.0951 243.224 17.878C243.604 17.653 243.902 17.3515 244.12 16.9737C244.346 16.5878 244.459 16.1578 244.459 15.6835C244.459 15.2012 244.346 14.7711 244.12 14.3933C243.902 14.0075 243.604 13.706 243.224 13.489C242.853 13.2639 242.438 13.1514 241.978 13.1514C241.518 13.1514 241.099 13.2639 240.72 13.489C240.349 13.706 240.05 14.0075 239.824 14.3933C239.598 14.7711 239.485 15.2012 239.485 15.6835C239.485 16.1578 239.598 16.5878 239.824 16.9737C240.05 17.3515 240.349 17.653 240.72 17.878C241.099 18.0951 241.518 18.2036 241.978 18.2036Z" fill="white"/>
</svg>
