<svg width="307" height="60" viewBox="0 0 307 60" fill="none" xmlns="http://www.w3.org/2000/svg">
<path d="M25.961 52.203H42.2053V52.2242H42.4377C43.6417 52.1607 44.719 51.6946 45.5429 50.9319L55.281 41.2283L64.4911 32.0333C64.998 31.5248 65.2938 30.8256 65.2938 30.1053C65.2938 29.3849 65.0192 28.6857 64.5122 28.1773L63.2236 26.8637C62.2097 25.8467 60.8789 25.2959 59.4636 25.2959C58.0272 25.2959 56.6963 25.8467 55.7035 26.8425L47.9933 34.5121L44.6979 37.7961C44.5501 35.296 42.501 33.2833 39.9873 33.1562H32.6362H25.2428C24.0176 33.2197 22.898 33.7282 22.053 34.5333L22.0108 34.5757C22.0108 34.5757 21.9263 34.6604 21.9052 34.6816L6.18896 50.4446C9.31531 54.4489 13.3077 57.7328 17.9128 59.9998L25.5174 52.3726C25.6441 52.2666 25.792 52.1819 25.961 52.1819" fill="#042941"/>
<path d="M25.9611 50.5304H42.2054C43.1138 50.5516 43.9587 50.1914 44.5502 49.577L53.9292 40.2125C53.9292 40.2125 53.9503 40.1912 53.9715 40.1701L63.3294 30.8479C63.7307 30.4453 63.7307 29.7673 63.3294 29.3648L62.0408 28.0512C60.6255 26.6105 58.323 26.6105 56.8866 28.0512L49.3664 35.5514C49.3664 35.5514 49.3453 35.5725 49.3242 35.5937C47.3597 37.5641 44.4234 40.4667 43.4095 41.4836C42.3955 42.5006 41.5294 43.1362 38.6988 43.1362C35.8682 43.1362 34.5163 43.1362 32.4039 43.1362H32.1715H25.2429C22.708 43.0091 20.6801 40.9963 20.5322 38.4539L7.22412 51.7804C9.78012 54.7678 12.8642 57.3101 16.3286 59.2381L24.3134 51.2507C24.7359 50.827 25.3274 50.5728 25.9399 50.5728" fill="#13B89C"/>
<path d="M39.3328 7.79671H23.0885V7.7755H22.8561C21.6521 7.83906 20.5747 8.3052 19.7509 9.06793L10.0128 18.7714L0.802705 27.9665C0.29573 28.475 0 29.1741 0 29.8945C0 30.6148 0.274601 31.314 0.781576 31.8225L2.07014 33.136C3.08409 34.153 4.41491 34.7039 5.83022 34.7039C7.26665 34.7039 8.59745 34.153 9.59028 33.1573L17.3005 25.4877L20.5958 22.2037C20.7437 24.7038 22.7928 26.7165 25.3065 26.8436H32.6576H40.051C41.2762 26.78 42.3958 26.2715 43.2407 25.4665L43.283 25.4241C43.283 25.4241 43.3675 25.3394 43.3886 25.3182L59.0415 9.6188C55.9574 5.59332 51.9861 2.28817 47.4022 0L39.7764 7.64839C39.6497 7.75432 39.5018 7.83912 39.3328 7.83912" fill="#042941"/>
<path d="M39.3324 9.47014H23.0881C22.1797 9.44896 21.3348 9.80909 20.7433 10.4235L11.3643 19.7881C11.3643 19.7881 11.3431 19.8092 11.322 19.8304L1.9641 29.1527C1.56275 29.5552 1.56275 30.2331 1.9641 30.6357L3.25266 31.9493C4.66797 33.39 6.97049 33.39 8.40691 31.9493L15.927 24.4492C15.927 24.4492 15.9481 24.428 15.9693 24.4068C17.9338 22.4364 20.87 19.5338 21.884 18.5169C22.8979 17.4999 23.764 16.8643 26.5946 16.8643C29.4252 16.8643 30.7772 16.8643 32.8896 16.8643H33.1219H40.0506C42.5855 16.9914 44.6133 19.0041 44.7612 21.5466L58.0059 8.26248C55.4711 5.25396 52.4081 2.71158 48.9438 0.741211L40.9589 8.7498C40.5364 9.17354 39.945 9.42779 39.3324 9.42779" fill="#13B89C"/>
<path d="M77.3623 31.3518V26.5629H88.2321V31.3518H77.3623ZM77.245 20.7013L78.8872 18.7857V39.014L77.0495 37.2517H90.4608V42.0405H73.7651V15.9507H90.4608V20.7013H77.245Z" fill="#042941"/>
<path d="M114.273 43.7645L106.336 30.7771H111.575L119.513 43.7645H114.273ZM93.1985 29.0148C93.1985 27.0482 93.5373 25.2475 94.2151 23.6129C94.8928 21.9528 95.8442 20.5225 97.0694 19.3221C98.2945 18.1217 99.7412 17.1894 101.409 16.5254C103.104 15.8613 104.955 15.5293 106.962 15.5293C108.943 15.5293 110.767 15.8613 112.436 16.5254C114.104 17.1894 115.551 18.1217 116.776 19.3221C118.001 20.5225 118.952 21.9528 119.63 23.6129C120.308 25.2475 120.647 27.0482 120.647 29.0148C120.647 30.9559 120.308 32.7565 119.63 34.4166C118.952 36.0513 118.001 37.4815 116.776 38.7075C115.551 39.9079 114.104 40.8401 112.436 41.5042C110.767 42.1683 108.943 42.5003 106.962 42.5003C104.955 42.5003 103.104 42.1683 101.409 41.5042C99.7412 40.8401 98.2945 39.9079 97.0694 38.7075C95.8442 37.4815 94.8928 36.0513 94.2151 34.4166C93.5373 32.7565 93.1985 30.9559 93.1985 29.0148ZM98.4379 29.0148C98.4379 30.7005 98.8028 32.1946 99.5327 33.4972C100.263 34.7742 101.266 35.7703 102.543 36.4854C103.847 37.2006 105.319 37.5582 106.962 37.5582C108.604 37.5582 110.051 37.2006 111.302 36.4854C112.579 35.7703 113.583 34.7742 114.312 33.4972C115.042 32.1946 115.407 30.7005 115.407 29.0148C115.407 27.3036 115.042 25.8094 114.312 24.5324C113.583 23.2298 112.579 22.221 111.302 21.5058C110.051 20.7907 108.604 20.4331 106.962 20.4331C105.319 20.4331 103.847 20.8035 102.543 21.5441C101.266 22.2593 100.263 23.2554 99.5327 24.5324C98.8028 25.8094 98.4379 27.3036 98.4379 29.0148Z" fill="#042941"/>
<path d="M134.571 42.5003C132.355 42.5003 130.452 42.0916 128.862 41.2743C127.272 40.4315 126.047 39.2055 125.187 37.5965C124.327 35.9619 123.897 33.9441 123.897 31.5433V15.9507H129.058V31.4284C129.058 33.395 129.527 34.9275 130.465 36.0257C131.404 37.0984 132.772 37.6348 134.571 37.6348C136.396 37.6348 137.777 37.0984 138.715 36.0257C139.654 34.9275 140.123 33.395 140.123 31.4284V15.9507H145.245V31.5433C145.245 33.9441 144.815 35.9619 143.955 37.5965C143.121 39.2055 141.909 40.4315 140.319 41.2743C138.728 42.0916 136.813 42.5003 134.571 42.5003Z" fill="#042941"/>
<path d="M152.504 32.118H165.642V36.7919H152.504V32.118ZM146.952 42.0405L156.414 15.9507H162.396L171.546 42.0405H166.385L158.682 19.3987H160.168L152.113 42.0405H146.952Z" fill="#042941"/>
<path d="M190.255 42.0405H174.303V15.9507H179.425V38.8224L178.291 37.2517H190.255V42.0405Z" fill="#042941"/>
<path d="M215.702 42.5003C212.965 42.5003 210.58 41.9256 208.547 40.7763C206.54 39.6014 204.976 38.0051 203.855 35.9874C202.76 33.9441 202.213 31.6199 202.213 29.0148C202.213 27.0482 202.538 25.2475 203.19 23.6129C203.868 21.9528 204.806 20.5225 206.005 19.3221C207.23 18.1217 208.664 17.1894 210.306 16.5254C211.949 15.8613 213.747 15.5293 215.702 15.5293C218.804 15.5293 221.346 16.1806 223.327 17.4832C225.308 18.7857 226.859 20.5991 227.98 22.9233L223.209 24.609C222.245 23.0766 221.15 21.9911 219.925 21.3526C218.7 20.7141 217.292 20.3948 215.702 20.3948C214.112 20.3948 212.691 20.7651 211.44 21.5058C210.215 22.221 209.238 23.2298 208.508 24.5324C207.804 25.8094 207.452 27.3036 207.452 29.0148C207.452 30.7005 207.804 32.1946 208.508 33.4972C209.238 34.7998 210.215 35.8214 211.44 36.5621C212.691 37.2772 214.112 37.6348 215.702 37.6348C217.292 37.6348 218.7 37.3155 219.925 36.677C221.15 36.0385 222.245 34.953 223.209 33.4206L227.98 35.1062C226.859 37.4305 225.308 39.2438 223.327 40.5464C221.346 41.849 218.804 42.5003 215.702 42.5003Z" fill="#042941"/>
<path d="M233.873 32.118H247.011V36.7919H233.873V32.118ZM228.321 42.0405L237.783 15.9507H243.766L252.915 42.0405H247.754L240.051 19.3987H241.537L233.482 42.0405H228.321Z" fill="#042941"/>
<path d="M255.672 42.0405V15.9507H265.486C267.363 15.9507 269.031 16.3211 270.491 17.0617C271.95 17.8024 273.084 18.8368 273.892 20.1649C274.727 21.4931 275.144 23.051 275.144 24.8389C275.144 26.6267 274.727 28.1847 273.892 29.5128C273.084 30.841 271.95 31.8753 270.491 32.616C269.031 33.3312 267.363 33.6887 265.486 33.6887H259.738V28.8999H264.978C266.489 28.8999 267.689 28.5551 268.575 27.8655C269.461 27.1503 269.904 26.1415 269.904 24.8389C269.904 23.4852 269.461 22.4636 268.575 21.774C267.689 21.0844 266.489 20.7396 264.978 20.7396H259.699L260.794 19.6286V42.0405H255.672ZM269.826 42.0405L263.961 31.3518H269.591L275.417 42.0405H269.826Z" fill="#042941"/>
<path d="M283.019 31.3518V26.5629H293.889V31.3518H283.019ZM282.902 20.7013L284.544 18.7857V39.014L282.706 37.2517H296.118V42.0405H279.422V15.9507H296.118V20.7013H282.902Z" fill="#042941"/>
<path d="M301.669 20.4781H302.41C302.975 20.4781 303.424 20.3474 303.756 20.0862C304.089 19.8249 304.256 19.4481 304.256 18.9558C304.256 18.4534 304.089 18.0766 303.756 17.8254C303.424 17.5641 302.975 17.4335 302.41 17.4335H300.943V21.5934H301.956V18.0213L301.608 18.383H302.471C302.965 18.383 303.212 18.5739 303.212 18.9558C303.212 19.3376 302.965 19.5285 302.471 19.5285H301.669V20.4781ZM304.18 21.5934L303.272 19.9355H302.153L303.091 21.5934H304.18ZM302.471 15.3535C303.045 15.3535 303.59 15.464 304.104 15.6851C304.619 15.9062 305.067 16.2126 305.45 16.6045C305.844 16.9863 306.151 17.4335 306.373 17.9459C306.595 18.4584 306.706 19.011 306.706 19.6039C306.706 20.1766 306.595 20.7192 306.373 21.2317C306.161 21.7341 305.859 22.1812 305.466 22.5731C305.082 22.965 304.634 23.2714 304.119 23.4925C303.605 23.7136 303.056 23.8241 302.471 23.8241C301.886 23.8241 301.336 23.7136 300.822 23.4925C300.308 23.2714 299.854 22.965 299.461 22.5731C299.077 22.1812 298.775 21.7341 298.553 21.2317C298.341 20.7192 298.235 20.1766 298.235 19.6039C298.235 19.011 298.346 18.4584 298.568 17.9459C298.79 17.4335 299.092 16.9863 299.476 16.6045C299.869 16.2126 300.318 15.9062 300.822 15.6851C301.336 15.464 301.886 15.3535 302.471 15.3535ZM302.471 22.754C303.045 22.754 303.565 22.6183 304.029 22.347C304.503 22.0657 304.876 21.6889 305.148 21.2166C305.43 20.7343 305.571 20.1967 305.571 19.6039C305.571 19.001 305.43 18.4634 305.148 17.9911C304.876 17.5088 304.503 17.132 304.029 16.8607C303.565 16.5794 303.045 16.4387 302.471 16.4387C301.896 16.4387 301.371 16.5794 300.898 16.8607C300.434 17.132 300.061 17.5088 299.778 17.9911C299.496 18.4634 299.355 19.001 299.355 19.6039C299.355 20.1967 299.496 20.7343 299.778 21.2166C300.061 21.6889 300.434 22.0657 300.898 22.347C301.371 22.6183 301.896 22.754 302.471 22.754Z" fill="#042941"/>
</svg>
