<svg
  width="44"
  height="10"
  viewBox="0 0 44 10"
  fill="none"
  xmlns="http://www.w3.org/2000/svg"
>
  <g id="Roide Logo">
    <path
      d="M5.21305 0C7.39004 0 8.66123 1.18367 8.66123 2.88713C8.66123 4.31268 7.53929 5.17727 6.36587 5.17727V5.31108C7.83779 5.36255 8.65608 6.12421 8.65094 7.37993V9.76786H6.37617V7.70416C6.37617 6.76237 5.91813 6.433 4.95058 6.433H2.83535V9.76786H0.617188V0H5.21305ZM4.68296 4.74498C5.57845 4.74498 6.41219 4.27151 6.41219 3.17018C6.41219 2.16663 5.57331 1.76007 4.68296 1.76007H2.84049V4.74498H4.68296Z"
      fill="#f6e9dc"
      fill-opacity="0.6"
    />
    <path
      d="M9.46875 6.27891C9.46875 3.98877 10.9612 2.56836 13.1794 2.56836C15.3976 2.56836 16.8901 3.99391 16.8901 6.27891C16.8901 8.56391 15.3976 9.98946 13.1794 9.98946C10.9612 9.98946 9.46875 8.56906 9.46875 6.27891ZM13.1846 8.18822C13.9926 8.18822 14.7337 7.69932 14.7337 6.27891C14.7337 4.8688 13.9926 4.35416 13.1846 4.35416C12.3765 4.35416 11.6354 4.8688 11.6354 6.27891C11.6354 7.70446 12.3714 8.18822 13.1846 8.18822Z"
      fill="#f6e9dc"
      fill-opacity="0.6"
    />
    <path
      d="M17.6953 0H19.8311V2.0637H17.6953V0ZM17.6953 2.90257H19.8311V9.76786H17.6953V2.90257Z"
      fill="#f6e9dc"
      fill-opacity="0.6"
    />
    <path
      d="M20.7579 6.33576C20.7579 3.96842 22.0702 2.58404 23.8973 2.58404C25.3795 2.58404 26.2595 3.46408 26.486 4.30294H26.6198V0.00569638H28.7556V9.77356H26.6198L26.6455 8.29654H26.5117C26.3316 9.09424 25.6574 10 23.9951 10C22.168 9.98971 20.7579 8.71855 20.7579 6.33576ZM24.5818 8.20391C25.4309 8.20391 26.2132 7.67383 26.2132 6.30489C26.2132 4.91021 25.4309 4.3647 24.5818 4.3647C23.7326 4.3647 22.9503 4.91021 22.9503 6.30489C22.9503 7.68927 23.7171 8.20391 24.5818 8.20391Z"
      fill="#f6e9dc"
      fill-opacity="0.6"
    />
    <path
      d="M29.7109 6.27891C29.7109 3.92186 31.2755 2.56836 33.4216 2.56836C35.4596 2.56836 37.0242 3.68513 37.0242 6.00101C37.0242 6.33552 36.9984 6.57226 36.9521 6.75238H31.749C31.7747 7.95149 32.6548 8.34262 33.4679 8.34262C34.3274 8.34262 34.9861 7.55007 34.9861 7.55007L36.4786 8.53818C35.8611 9.50056 34.7237 9.98946 33.3495 9.98946C31.538 9.98946 29.7109 8.8624 29.7109 6.27891ZM34.8729 5.52239C34.8987 4.62692 34.2708 4.09684 33.365 4.09684C32.4849 4.09684 31.8313 4.65265 31.7901 5.52239H34.8729Z"
      fill="#f6e9dc"
      fill-opacity="0.6"
    />
    <path
      d="M37.7188 7.67285H43.9975V9.76744H37.7188V7.67285Z"
      fill="#f6e9dc"
      fill-opacity="0.6"
    />
  </g>
</svg>
