<svg width="49" height="11" viewBox="0 0 49 11" fill="none" xmlns="http://www.w3.org/2000/svg">
<path d="M5.90632 0.5C8.32519 0.5 9.73763 1.68367 9.73763 3.38713C9.73763 4.81268 8.49102 5.67727 7.18723 5.67727V5.81108C8.82269 5.86255 9.73191 6.62421 9.72619 7.87993V10.2679H7.19867V8.20416C7.19867 7.26237 6.68974 6.933 5.61468 6.933H3.26442V10.2679H0.799805V0.5H5.90632ZM5.31732 5.24498C6.31232 5.24498 7.2387 4.77151 7.2387 3.67018C7.2387 2.66663 6.3066 2.26007 5.31732 2.26007H3.27014V5.24498H5.31732Z" fill="#042941" fill-opacity="0.6"/>
<path d="M10.6349 6.77891C10.6349 4.48877 12.2932 3.06836 14.7578 3.06836C17.2224 3.06836 18.8808 4.49391 18.8808 6.77891C18.8808 9.06391 17.2224 10.4895 14.7578 10.4895C12.2932 10.4895 10.6349 9.06906 10.6349 6.77891ZM14.7635 8.68822C15.6613 8.68822 16.4848 8.19932 16.4848 6.77891C16.4848 5.3688 15.6613 4.85416 14.7635 4.85416C13.8658 4.85416 13.0423 5.3688 13.0423 6.77891C13.0423 8.20446 13.86 8.68822 14.7635 8.68822Z" fill="#042941" fill-opacity="0.6"/>
<path d="M19.7755 0.5H22.1486V2.5637H19.7755V0.5ZM19.7755 3.40257H22.1486V10.2679H19.7755V3.40257Z" fill="#042941" fill-opacity="0.6"/>
<path d="M23.1784 6.83576C23.1784 4.46842 24.6365 3.08404 26.6666 3.08404C28.3135 3.08404 29.2913 3.96408 29.5429 4.80294H29.6916V0.505696H32.0647V10.2736H29.6916L29.7202 8.79654H29.5715C29.3714 9.59424 28.6222 10.5 26.7752 10.5C24.7452 10.4897 23.1784 9.21855 23.1784 6.83576ZM27.4271 8.70391C28.3706 8.70391 29.2398 8.17383 29.2398 6.80489C29.2398 5.41021 28.3706 4.8647 27.4271 4.8647C26.4836 4.8647 25.6144 5.41021 25.6144 6.80489C25.6144 8.18927 26.4664 8.70391 27.4271 8.70391Z" fill="#042941" fill-opacity="0.6"/>
<path d="M33.1262 6.77891C33.1262 4.42186 34.8646 3.06836 37.2491 3.06836C39.5136 3.06836 41.252 4.18513 41.252 6.50101C41.252 6.83552 41.2234 7.07226 41.1719 7.25238H35.3907C35.4193 8.45149 36.3971 8.84262 37.3006 8.84262C38.2556 8.84262 38.9875 8.05007 38.9875 8.05007L40.6459 9.03818C39.9597 10.0006 38.6959 10.4895 37.1691 10.4895C35.1562 10.4895 33.1262 9.3624 33.1262 6.77891ZM38.8617 6.02239C38.8903 5.12692 38.1927 4.59684 37.1862 4.59684C36.2084 4.59684 35.4822 5.15265 35.4364 6.02239H38.8617Z" fill="#042941" fill-opacity="0.6"/>
<path d="M42.0238 8.17285H49.0002V10.2674H42.0238V8.17285Z" fill="#042941" fill-opacity="0.6"/>
</svg>
