<svg
  width="20"
  height="20"
  viewBox="0 0 20 20"
  fill="none"
  xmlns="http://www.w3.org/2000/svg"
>
  <path
    fill-rule="evenodd"
    clip-rule="evenodd"
    d="M5.13876 17.2754C6.57769 18.2368 8.26942 18.75 10 18.75C12.3206 18.75 14.5462 17.8281 16.1872 16.1872C17.8281 14.5462 18.75 12.3206 18.75 10C18.75 8.26942 18.2368 6.57769 17.2754 5.13876C16.3139 3.69983 14.9473 2.57832 13.3485 1.91606C11.7496 1.25379 9.9903 1.08051 8.29296 1.41813C6.59563 1.75575 5.03653 2.58911 3.81282 3.81282C2.58911 5.03653 1.75575 6.59563 1.41813 8.29296C1.08051 9.9903 1.25379 11.7496 1.91606 13.3485C2.57832 14.9473 3.69983 16.3139 5.13876 17.2754ZM9.34001 10.7632L13.0001 14.6452L13.9233 13.666L10.6495 10.1868V4.22852H9.34001V10.7632Z"
    fill="currentColor"
  />
</svg>
