<svg
  width="25"
  height="24"
  viewBox="0 0 25 24"
  fill="none"
  xmlns="http://www.w3.org/2000/svg"
>
  <path
    d="M15.2009 18.0761C14.4213 18.0768 13.6536 17.8843 12.9665 17.5157C12.2795 17.1472 11.6944 16.6142 11.2637 15.9643L12.3882 15.2168C12.6961 15.6809 13.1141 16.0616 13.6049 16.325C14.0957 16.5883 14.644 16.7261 15.2009 16.7261C15.7579 16.7261 16.3062 16.5883 16.797 16.325C17.2878 16.0616 17.7058 15.6809 18.0137 15.2168L19.1382 15.9643C18.7075 16.6142 18.1224 17.1472 17.4354 17.5157C16.7483 17.8843 15.9806 18.0768 15.2009 18.0761Z"
    fill="currentColor"
  />
  <path
    d="M17.8998 10.6505C17.6328 10.6505 17.3718 10.7296 17.1498 10.878C16.9278 11.0263 16.7547 11.2371 16.6526 11.4838C16.5504 11.7305 16.5237 12.0019 16.5757 12.2638C16.6278 12.5257 16.7564 12.7662 16.9452 12.955C17.134 13.1438 17.3746 13.2724 17.6364 13.3245C17.8983 13.3766 18.1697 13.3499 18.4164 13.2477C18.6631 13.1455 18.8739 12.9725 19.0223 12.7505C19.1706 12.5285 19.2498 12.2674 19.2498 12.0004C19.2516 11.8227 19.2178 11.6463 19.1506 11.4818C19.0834 11.3172 18.984 11.1677 18.8583 11.042C18.7326 10.9163 18.5831 10.8169 18.4185 10.7497C18.2539 10.6824 18.0776 10.6487 17.8998 10.6505Z"
    fill="currentColor"
  />
  <path
    d="M12.4994 10.6505C12.2324 10.6505 11.9714 10.7296 11.7494 10.878C11.5274 11.0263 11.3544 11.2371 11.2522 11.4838C11.15 11.7305 11.1233 12.0019 11.1754 12.2638C11.2274 12.5257 11.356 12.7662 11.5448 12.955C11.7336 13.1438 11.9742 13.2724 12.236 13.3245C12.4979 13.3766 12.7694 13.3499 13.016 13.2477C13.2627 13.1455 13.4736 12.9725 13.6219 12.7505C13.7702 12.5285 13.8494 12.2674 13.8494 12.0004C13.8512 11.8227 13.8174 11.6463 13.7502 11.4818C13.683 11.3172 13.5836 11.1677 13.4579 11.042C13.3322 10.9163 13.1827 10.8169 13.0181 10.7497C12.8535 10.6824 12.6772 10.6487 12.4994 10.6505Z"
    fill="currentColor"
  />
  <path
    d="M20.5998 6.60075H16.5498V3.90077C16.5494 3.54286 16.407 3.19972 16.1539 2.94664C15.9009 2.69355 15.5577 2.55119 15.1998 2.55078H4.3998C4.04189 2.55119 3.69875 2.69355 3.44566 2.94664C3.19258 3.19972 3.05022 3.54286 3.0498 3.90077V10.6507C3.05236 12.2998 3.65791 13.891 4.75236 15.1245C5.84681 16.358 7.35459 17.1487 8.99163 17.3476C9.60153 18.7787 10.6871 19.9552 12.0646 20.678C13.4422 21.4008 15.0271 21.6256 16.5513 21.3142C18.0755 21.0029 19.4453 20.1746 20.4291 18.9694C21.4128 17.7643 21.95 16.2564 21.9498 14.7007V7.95075C21.9494 7.59283 21.807 7.2497 21.5539 6.99661C21.3009 6.74353 20.9577 6.60117 20.5998 6.60075ZM4.3998 10.6507V3.90077H15.1998V6.60075H9.7998C9.44189 6.60117 9.09875 6.74353 8.84566 6.99661C8.59258 7.2497 8.45022 7.59283 8.4498 7.95075V14.7007C8.45152 15.1038 8.48947 15.5059 8.5632 15.9022C7.37968 15.6228 6.32495 14.9524 5.56947 13.9995C4.81399 13.0466 4.4019 11.8668 4.3998 10.6507ZM20.5998 14.7007C20.5998 16.1329 20.0309 17.5064 19.0182 18.5191C18.0055 19.5317 16.632 20.1007 15.1998 20.1007C13.7676 20.1007 12.3941 19.5317 11.3814 18.5191C10.3687 17.5064 9.7998 16.1329 9.7998 14.7007V7.95075H20.5998V14.7007Z"
    fill="currentColor"
  />
</svg>
