<svg
  width="25"
  height="24"
  viewBox="0 0 25 24"
  fill="none"
  xmlns="http://www.w3.org/2000/svg"
>
  <path
    d="M19.249 21.4512H17.899V19.4262C17.898 18.5314 17.5421 17.6736 16.9093 17.0409C16.2766 16.4081 15.4188 16.0522 14.524 16.0512H10.474C9.57924 16.0522 8.72141 16.4081 8.0887 17.0409C7.45599 17.6736 7.10008 18.5314 7.09902 19.4262V21.4512H5.74902V19.4262C5.75049 18.1735 6.24877 16.9725 7.13456 16.0867C8.02035 15.2009 9.22133 14.7026 10.474 14.7012H14.524C15.7767 14.7026 16.9777 15.2009 17.8635 16.0867C18.7493 16.9725 19.2476 18.1735 19.249 19.4262V21.4512Z"
    fill="currentColor"
  />
  <path
    d="M5.07441 5.25C4.89539 5.25 4.7237 5.32112 4.59712 5.4477C4.47053 5.57429 4.39941 5.74598 4.39941 5.925V12H5.74941V5.925C5.74941 5.74598 5.6783 5.57429 5.55171 5.4477C5.42512 5.32112 5.25344 5.25 5.07441 5.25Z"
    fill="currentColor"
  />
  <path
    d="M4.39941 2.55078V3.90078H7.77441V8.62578C7.77441 9.87893 8.27223 11.0808 9.15833 11.9669C10.0444 12.853 11.2463 13.3508 12.4994 13.3508C13.7526 13.3508 14.9544 12.853 15.8405 11.9669C16.7266 11.0808 17.2244 9.87893 17.2244 8.62578V3.90078H20.5994V2.55078H4.39941ZM9.12441 3.90078H15.8744V5.92578H9.12441V3.90078ZM12.4994 12.0008C11.6043 12.0008 10.7459 11.6452 10.1129 11.0123C9.47999 10.3793 9.12441 9.52089 9.12441 8.62578V7.27578H15.8744V8.62578C15.8744 9.52089 15.5188 10.3793 14.8859 11.0123C14.253 11.6452 13.3945 12.0008 12.4994 12.0008Z"
    fill="currentColor"
  />
</svg>
