<svg
  width="20"
  height="20"
  viewBox="0 0 20 20"
  fill="none"
  xmlns="http://www.w3.org/2000/svg"
>
  <g id="email--filled" clip-path="url(#clip0_2864_6765)">
    <path
      id="Vector"
      d="M3.33464 16.25C2.8763 16.25 2.48394 16.097 2.15755 15.791C1.83116 15.485 1.66797 15.1172 1.66797 14.6875V5.3125C1.66797 4.88281 1.83116 4.51497 2.15755 4.20898C2.48394 3.90299 2.8763 3.75 3.33464 3.75H16.668C17.1263 3.75 17.5187 3.90299 17.8451 4.20898C18.1714 4.51497 18.3346 4.88281 18.3346 5.3125V14.6875C18.3346 15.1172 18.1714 15.485 17.8451 15.791C17.5187 16.097 17.1263 16.25 16.668 16.25H3.33464ZM9.42187 11.2026C9.76879 11.4493 10.2338 11.4493 10.5807 11.2026L16.668 6.875V5.3125L10.0013 10.0521L3.33464 5.3125V6.875L9.42187 11.2026Z"
      fill="currentColor"
    />
  </g>
  <defs>
    <clipPath id="clip0_2864_6765">
      <rect width="20" height="20" fill="white" />
    </clipPath>
  </defs>
</svg>
