<svg
  width="25"
  height="24"
  viewBox="0 0 25 24"
  fill="none"
  xmlns="http://www.w3.org/2000/svg"
>
  <path
    d="M20 5.25H18.5V4.5C18.4995 4.10232 18.3414 3.72105 18.0602 3.43984C17.779 3.15864 17.3977 3.00046 17 3H8C7.60232 3.00046 7.22105 3.15864 6.93984 3.43984C6.65864 3.72105 6.50046 4.10232 6.5 4.5V5.25H5C4.60232 5.25046 4.22105 5.40864 3.93984 5.68984C3.65864 5.97105 3.50046 6.35232 3.5 6.75V9C3.50089 9.79538 3.81725 10.5579 4.37967 11.1203C4.94208 11.6827 5.70462 11.9991 6.5 12H6.7415C7.05401 13.1481 7.69405 14.1803 8.58346 14.9706C9.47287 15.7609 10.5732 16.2752 11.75 16.4506V19.5H8V21H17V19.5H13.25V16.4483C14.4421 16.3009 15.5621 15.7976 16.4639 15.0041C17.3656 14.2106 18.0072 13.1637 18.305 12H18.5C19.2954 11.9991 20.0579 11.6827 20.6203 11.1203C21.1828 10.5579 21.4991 9.79538 21.5 9V6.75C21.4995 6.35232 21.3414 5.97105 21.0602 5.68984C20.7789 5.40864 20.3977 5.25046 20 5.25ZM6.5 10.5C6.10232 10.4995 5.72105 10.3414 5.43984 10.0602C5.15864 9.77895 5.00046 9.39768 5 9V6.75H6.5V10.5ZM17 10.5C17 11.1027 16.8789 11.6992 16.644 12.2542C16.4091 12.8091 16.0651 13.3113 15.6324 13.7308C15.1997 14.1503 14.6872 14.4786 14.1252 14.6963C13.5632 14.9139 12.9632 15.0165 12.3609 14.9978C11.1665 14.9237 10.0467 14.392 9.23445 13.5132C8.42219 12.6345 7.98004 11.4764 8 10.2799V4.5H17V10.5ZM20 9C19.9995 9.39768 19.8414 9.77895 19.5602 10.0602C19.279 10.3414 18.8977 10.4995 18.5 10.5V6.75H20V9Z"
    fill="currentColor"
  />
</svg>
