<svg width="33" height="32" viewBox="0 0 33 32" fill="none" xmlns="http://www.w3.org/2000/svg">
<g id="ic-air-condition">
<path id="Vector" d="M14.3292 29.9912C13.2203 29.9912 12.3814 29.6643 11.8124 29.0104C11.2434 28.3562 10.9592 27.6086 10.96 26.7675C10.96 26.2137 11.0819 25.6659 11.3259 25.124C11.5701 24.5818 11.9552 24.1394 12.4814 23.7967C13.0368 23.4188 13.5021 22.9153 13.8775 22.286C14.2531 21.6568 14.5273 20.882 14.7 19.9618C14.5484 19.9172 14.4104 19.858 14.2859 19.7841C14.1612 19.7101 14.0319 19.6182 13.898 19.5082L9.97203 20.8926C9.57651 21.0474 9.19717 21.1665 8.83401 21.2499C8.47085 21.3333 8.09835 21.375 7.71652 21.375C6.30195 21.375 5.05278 20.748 3.96902 19.494C2.88551 18.2399 2.34375 16.4057 2.34375 13.9913C2.34375 12.8951 2.66783 12.057 3.316 11.477C3.96442 10.8973 4.69883 10.6074 5.51925 10.6074C6.09423 10.6074 6.65429 10.7316 7.1994 10.98C7.74427 11.2285 8.19057 11.6115 8.5383 12.1293C8.91739 12.6975 9.43102 13.1761 10.0792 13.5649C10.7271 13.9537 11.4918 14.2211 12.3732 14.3672C12.4267 14.2179 12.4908 14.0737 12.5655 13.9345C12.6399 13.7954 12.727 13.6606 12.8268 13.5302L11.4383 9.62808C11.2909 9.25447 11.1743 8.88321 11.0884 8.51432C11.0028 8.14519 10.96 7.78091 10.96 7.42148C10.9585 5.89092 11.6271 4.60317 12.9657 3.55824C14.3043 2.51355 16.0955 1.99121 18.3392 1.99121C19.4384 1.99121 20.278 2.31965 20.858 2.97653C21.4377 3.63316 21.7275 4.37056 21.7275 5.18873C21.7275 5.74605 21.6022 6.30125 21.3516 6.85433C21.1009 7.40741 20.7189 7.85297 20.2057 8.19099C19.5839 8.60717 19.0886 9.15702 18.7197 9.84053C18.351 10.524 18.1055 11.256 17.983 12.0363C18.1441 12.111 18.2899 12.1806 18.4206 12.245C18.551 12.3097 18.6791 12.401 18.8048 12.5187L22.702 11.0525C23.098 10.9109 23.4704 10.8012 23.8191 10.7235C24.1679 10.6461 24.5335 10.6074 24.9161 10.6074C26.7384 10.6074 28.0986 11.3707 28.9966 12.8973C29.8947 14.4241 30.3437 16.1269 30.3437 18.0057C30.3437 19.1146 29.9961 19.9536 29.3009 20.5226C28.6057 21.0916 27.837 21.3757 26.9946 21.375C26.4567 21.375 25.932 21.2529 25.4205 21.0087C24.9088 20.7645 24.4784 20.3795 24.1294 19.8535C23.7516 19.2982 23.248 18.8329 22.6188 18.4575C21.9895 18.0819 21.2212 17.7994 20.314 17.6099C20.244 17.7585 20.1702 17.9049 20.0926 18.049C20.0149 18.1929 19.9228 18.3273 19.8163 18.4523L21.2478 22.3749C21.3725 22.7313 21.4836 23.0825 21.5812 23.4285C21.6787 23.7745 21.7275 24.1175 21.7275 24.4575C21.7138 25.8925 21.082 27.1735 19.8319 28.3006C18.5817 29.4277 16.7474 29.9912 14.3292 29.9912ZM16.3395 18.5057C17.0369 18.5057 17.6309 18.2616 18.1215 17.7735C18.6124 17.2854 18.8578 16.6927 18.8578 15.9955C18.8578 15.2981 18.6125 14.704 18.1219 14.2134C17.6311 13.7226 17.035 13.4771 16.3339 13.4771C15.6327 13.4771 15.04 13.7224 14.5559 14.213C14.0715 14.7039 13.8293 15.2999 13.8293 16.0011C13.8293 16.7023 14.0734 17.2949 14.5615 17.7791C15.0496 18.2635 15.6423 18.5057 16.3395 18.5057ZM14.2628 12.2334C14.5605 12.0878 14.8763 11.9697 15.2104 11.8791C15.5444 11.7883 15.8726 11.7269 16.195 11.695C16.3933 10.6364 16.7457 9.6689 17.252 8.79248C17.7585 7.91631 18.413 7.21899 19.2155 6.7005C19.444 6.53572 19.6219 6.32776 19.7491 6.0766C19.8762 5.8252 19.9398 5.53261 19.9398 5.19882C19.9398 4.79956 19.808 4.46316 19.5444 4.1896C19.2808 3.9158 18.8789 3.7789 18.3385 3.7789C17.2891 3.7789 16.1044 4.0303 14.7844 4.5331C13.4644 5.0359 12.7855 6.00031 12.7477 7.42633C12.7477 7.69093 12.7779 7.94158 12.8384 8.17829C12.8989 8.41526 12.9656 8.6287 13.0385 8.81862L14.2628 12.2334ZM7.721 19.5873C8.0533 19.5873 8.53009 19.4904 9.15137 19.2965L12.5808 18.0722C12.4065 17.7735 12.2753 17.4587 12.1872 17.1279C12.0991 16.7971 12.0524 16.4678 12.0472 16.14C10.9791 15.9409 10.006 15.5883 9.12785 15.0822C8.24994 14.5762 7.55174 13.9219 7.03325 13.1194C6.86847 12.8909 6.64557 12.7131 6.36455 12.5859C6.08378 12.4587 5.80437 12.3951 5.52634 12.3951C5.07208 12.3951 4.72596 12.5269 4.488 12.7905C4.25029 13.0541 4.13144 13.4561 4.13144 13.9965C4.13144 15.4755 4.43635 16.7771 5.04619 17.9012C5.65577 19.0253 6.54738 19.5873 7.721 19.5873ZM14.3292 28.2035C15.596 28.2035 16.8424 27.9252 18.0685 27.3687C19.2949 26.8121 19.9187 25.8616 19.9398 24.5173C19.9398 24.2537 19.9087 24.0202 19.8465 23.8168C19.7843 23.6132 19.7183 23.4021 19.6486 23.1836L18.4247 19.7542C18.1123 19.9177 17.7818 20.0458 17.4331 20.1384C17.0846 20.2307 16.7645 20.2805 16.4727 20.2877C16.2736 21.3558 15.921 22.3289 15.415 23.2071C14.909 24.085 14.2613 24.7832 13.472 25.3017C13.2502 25.4466 13.0726 25.6621 12.9392 25.9484C12.8058 26.2344 12.7419 26.5135 12.7477 26.7858C12.7571 27.1617 12.8853 27.492 13.1322 27.7768C13.3789 28.0613 13.7779 28.2035 14.3292 28.2035ZM27.0085 19.5873C27.4211 19.5873 27.7822 19.4759 28.0916 19.2531C28.4012 19.0304 28.5561 18.6146 28.5561 18.0057C28.5561 16.9449 28.3144 15.7536 27.831 14.4318C27.3476 13.1101 26.3721 12.4312 24.9045 12.3951C24.6349 12.3951 24.384 12.42 24.1518 12.4698C23.9198 12.5196 23.7059 12.5801 23.51 12.6512L20.1015 13.9125C20.2439 14.1694 20.3676 14.4844 20.4726 14.8575C20.5779 15.2303 20.6337 15.5653 20.6399 15.8622C21.6985 16.0606 22.6661 16.4129 23.5425 16.9192C24.4186 17.4258 25.116 18.0737 25.6345 18.863C25.7694 19.0852 25.9656 19.2615 26.2233 19.3917C26.4806 19.5221 26.7424 19.5873 27.0085 19.5873Z" fill="#E8F5E9"/>
</g>
</svg>
