<svg width="33" height="32" viewBox="0 0 33 32" fill="none" xmlns="http://www.w3.org/2000/svg">
<g id="ic-const-column">
<g id="Vector">
<path d="M26.3301 4H24.3301V28H26.3301V4Z" fill="#E3F2FD"/>
<path d="M18.3301 6V26H14.3301V6H18.3301ZM18.3301 4H14.3301C13.7996 4 13.2909 4.21071 12.9159 4.58579C12.5408 4.96086 12.3301 5.46957 12.3301 6V26C12.3301 26.5304 12.5408 27.0391 12.9159 27.4142C13.2909 27.7893 13.7996 28 14.3301 28H18.3301C18.8605 28 19.3692 27.7893 19.7443 27.4142C20.1194 27.0391 20.3301 26.5304 20.3301 26V6C20.3301 5.46957 20.1194 4.96086 19.7443 4.58579C19.3692 4.21071 18.8605 4 18.3301 4Z" fill="#E3F2FD"/>
<path d="M8.33008 4H6.33008V28H8.33008V4Z" fill="#E3F2FD"/>
</g>
</g>
</svg>
