<svg
  width="25"
  height="24"
  viewBox="0 0 25 24"
  fill="none"
  xmlns="http://www.w3.org/2000/svg"
>
  <path
    d="M3.81639 20.5937C3.73974 20.642 3.65778 20.673 3.57051 20.6865C3.48324 20.7 3.39484 20.6971 3.3053 20.6778C3.19774 20.6404 3.11432 20.578 3.05505 20.4904C2.9958 20.4028 2.9607 20.3136 2.94974 20.2227C2.91365 20.0585 2.94505 19.9034 3.04392 19.7576C3.14278 19.6117 3.28754 19.4991 3.47819 19.4199C3.71844 19.2034 4.00154 19.0814 4.32747 19.0537C4.65341 19.026 4.97676 19.0273 5.29754 19.0575C5.48112 19.0691 5.63845 19.0674 5.76953 19.0522C5.90061 19.0371 6.01512 18.9629 6.11304 18.8295C6.21223 18.6189 6.26408 18.3882 6.26859 18.1373C6.27309 17.8864 6.29338 17.6402 6.32945 17.3986C6.35198 17.0231 6.42604 16.6732 6.55165 16.3489C6.67723 16.0245 6.89204 15.7587 7.19607 15.5512C7.43633 15.3348 7.72071 15.2128 8.04923 15.1851C8.37772 15.1574 8.70237 15.1586 9.02316 15.1889C9.20673 15.2005 9.36567 15.1987 9.49998 15.1836C9.63429 15.1685 9.7504 15.0942 9.84831 14.9609C9.95073 14.7503 10.0005 14.5195 9.9976 14.2687C9.99469 14.0178 10.0113 13.7716 10.0473 13.53C10.0699 13.1545 10.1439 12.8046 10.2695 12.4802C10.3951 12.1559 10.6099 11.89 10.914 11.6826C11.1542 11.4662 11.4386 11.3458 11.7671 11.3213C12.0956 11.2968 12.4203 11.2997 12.741 11.33C12.9246 11.3416 13.0836 11.3382 13.2179 11.3198C13.3522 11.3015 13.4683 11.2256 13.5662 11.0923C13.6686 10.8817 13.7197 10.6509 13.7193 10.4C13.719 10.1492 13.7369 9.90296 13.7729 9.66141C13.7923 9.28589 13.8671 8.93596 13.9976 8.61164C14.128 8.28731 14.3478 8.02144 14.657 7.81402C14.8972 7.5976 15.1816 7.47715 15.5101 7.45266C15.8386 7.42819 16.1633 7.43109 16.4841 7.46135C16.6676 7.47296 16.8266 7.46958 16.9609 7.45123C17.0952 7.43287 17.2113 7.35703 17.3092 7.22368C17.4116 7.01307 17.4627 6.78232 17.4623 6.53143C17.462 6.28056 17.4799 6.03435 17.5159 5.7928C17.5353 5.41728 17.6101 5.06896 17.7406 4.74785C17.871 4.42675 18.0908 4.15928 18.4 3.94541C18.6402 3.72899 18.9246 3.60806 19.2531 3.58262C19.5816 3.55716 19.9063 3.55797 20.2271 3.58503C20.4267 3.57537 20.6285 3.57231 20.8324 3.57586C21.0362 3.5794 21.2119 3.54896 21.3594 3.48455C21.4953 3.42012 21.6283 3.41963 21.7585 3.48306C21.8886 3.5465 21.9842 3.64618 22.0454 3.7821C22.0815 3.94634 22.0501 4.10189 21.9512 4.24875C21.8524 4.3956 21.7092 4.50865 21.5218 4.58788C21.2783 4.80754 20.9923 4.9325 20.6638 4.96278C20.3353 4.99304 20.0123 4.99304 19.6947 4.96278C19.5079 4.95118 19.3474 4.95455 19.2131 4.97291C19.0787 4.99126 18.9626 5.06711 18.8647 5.20045C18.7623 5.41106 18.7113 5.64182 18.7116 5.89271C18.7119 6.14358 18.6957 6.38818 18.6628 6.62651C18.6403 7.00525 18.5638 7.35678 18.4334 7.68111C18.3029 8.00544 18.0847 8.27131 17.7788 8.47872C17.5353 8.69515 17.2506 8.81689 16.9247 8.84395C16.5987 8.871 16.2754 8.86681 15.9546 8.83139C15.771 8.81979 15.6137 8.82316 15.4826 8.84152C15.3515 8.85987 15.2386 8.93572 15.144 9.06906C15.0415 9.27968 14.9881 9.51043 14.9836 9.76132C14.9791 10.0122 14.9588 10.2568 14.9227 10.4951C14.9002 10.8687 14.8277 11.2177 14.7053 11.542C14.5829 11.8663 14.3714 12.1306 14.0706 12.3348C13.8206 12.5461 13.5327 12.6691 13.2068 12.7038C12.8809 12.7386 12.5575 12.7383 12.2367 12.7029C12.0564 12.6945 11.8982 12.7035 11.7623 12.7299C11.6264 12.7563 11.5143 12.8314 11.4261 12.9551C11.3269 13.1625 11.2742 13.3895 11.2681 13.6362C11.262 13.8829 11.2409 14.1254 11.2048 14.3637C11.1823 14.7425 11.109 15.094 10.985 15.4183C10.861 15.7427 10.6445 16.0085 10.3353 16.2159C10.0918 16.4324 9.8042 16.5549 9.47247 16.5836C9.14074 16.6122 8.81449 16.6114 8.49371 16.5812C8.31336 16.5728 8.15812 16.5786 8.028 16.5986C7.89787 16.6185 7.78386 16.6936 7.68595 16.8237C7.58997 17.0311 7.54054 17.2581 7.53764 17.5048C7.53474 17.7515 7.51687 17.994 7.48403 18.2323C7.46149 18.6111 7.38501 18.9626 7.25458 19.2869C7.12415 19.6113 6.90596 19.8771 6.6 20.0846C6.35653 20.301 6.07183 20.4248 5.7459 20.4561C5.41996 20.4873 5.09661 20.4852 4.77583 20.4498C4.59548 20.4414 4.42301 20.437 4.25844 20.4367C4.09386 20.4364 3.94651 20.4887 3.81639 20.5937ZM6.46857 10.442C5.2338 10.442 4.18034 10.0059 3.30819 9.1338C2.43606 8.26165 2 7.20819 2 5.97342C2 4.72706 2.43606 3.6699 3.30819 2.80194C4.18034 1.93398 5.2338 1.5 6.46857 1.5C7.71493 1.5 8.77209 1.93398 9.64005 2.80194C10.508 3.6699 10.942 4.72706 10.942 5.97342C10.942 7.20819 10.508 8.26165 9.64005 9.1338C8.77209 10.0059 7.71493 10.442 6.46857 10.442ZM6.46857 9.03623C7.33621 9.03623 8.0644 8.73848 8.65313 8.14298C9.24185 7.5475 9.5362 6.82431 9.5362 5.97342C9.5362 5.10578 9.24185 4.37759 8.65313 3.78886C8.0644 3.20015 7.33621 2.90579 6.46857 2.90579C5.61768 2.90579 4.89449 3.20015 4.29901 3.78886C3.70351 4.37759 3.40576 5.10578 3.40576 5.97342C3.40576 6.82431 3.70351 7.5475 4.29901 8.14298C4.89449 8.73848 5.61768 9.03623 6.46857 9.03623ZM16.7778 22.5C16.3005 22.5 15.8954 22.3335 15.5623 22.0005C15.2293 21.6675 15.0628 21.2623 15.0628 20.785V16.2778C15.0628 15.8038 15.2293 15.3994 15.5623 15.0648C15.8954 14.7302 16.3005 14.5628 16.7778 14.5628H21.285C21.7591 14.5628 22.1634 14.7302 22.4981 15.0648C22.8327 15.3994 23 15.8038 23 16.2778V20.785C23 21.2623 22.8327 21.6675 22.4981 22.0005C22.1634 22.3335 21.7591 22.5 21.285 22.5H16.7778ZM16.7778 21.0942H21.285C21.372 21.0942 21.4452 21.0652 21.5048 21.0073C21.5644 20.9493 21.5942 20.8752 21.5942 20.785V16.2778C21.5942 16.1909 21.5644 16.1176 21.5048 16.058C21.4452 15.9984 21.372 15.9686 21.285 15.9686H16.7778C16.6876 15.9686 16.6136 15.9984 16.5556 16.058C16.4976 16.1176 16.4686 16.1909 16.4686 16.2778V20.785C16.4686 20.8752 16.4976 20.9493 16.5556 21.0073C16.6136 21.0652 16.6876 21.0942 16.7778 21.0942Z"
    fill="currentColor"
  />
</svg>
