<svg
  width="25"
  height="24"
  viewBox="0 0 25 24"
  fill="none"
  xmlns="http://www.w3.org/2000/svg"
>
  <g clip-path="url(#clip0_825_26894)">
    <path
      d="M12.8243 17.5963L22.9663 7.09134C23.0767 6.97693 23.1319 6.838 23.1319 6.67457C23.1319 6.51114 23.0767 6.37222 22.9663 6.25781L22.171 5.43409C22.0605 5.31967 21.9264 5.26247 21.7686 5.26247C21.6108 5.26247 21.4767 5.31967 21.3663 5.43409L11.2243 15.939L12.8243 17.5963ZM5.40889 19.4374C3.79941 19.3312 2.5789 18.934 1.74735 18.2459C0.915784 17.5578 0.5 16.6091 0.5 15.3997C0.5 14.1984 0.997435 13.2247 1.99231 12.4786C2.98718 11.7325 4.37219 11.2745 6.14735 11.1045C7.1367 11.0081 7.87871 10.8058 8.37337 10.4978C8.86804 10.1897 9.11537 9.76516 9.11537 9.22419C9.11537 8.52468 8.81281 7.98371 8.20768 7.60127C7.60256 7.21882 6.61834 6.94752 5.25504 6.78736L5.37575 5.53706C7.04676 5.73971 8.29291 6.14381 9.1142 6.74934C9.93552 7.35488 10.3462 8.17983 10.3462 9.22419C10.3462 10.1215 9.99075 10.8439 9.2799 11.3914C8.56905 11.9389 7.55484 12.2682 6.23729 12.3793C4.73511 12.5183 3.60849 12.8374 2.85741 13.3367C2.10634 13.836 1.7308 14.5237 1.7308 15.3997C1.7308 16.2414 2.0298 16.8841 2.62781 17.3278C3.22584 17.7715 4.16233 18.0498 5.43729 18.1626L5.40889 19.4374ZM12.8172 19.4153L9.46805 15.9464L20.7012 4.33578C21.0168 4.00889 21.3777 3.84954 21.784 3.85772C22.1903 3.8659 22.5513 4.02525 22.8669 4.33578L24.0266 5.53706C24.3422 5.86392 24.5 6.24187 24.5 6.67091C24.5 7.09992 24.3422 7.47787 24.0266 7.80476L12.8172 19.4153ZM9.48697 20.1238C9.28029 20.1761 9.09883 20.1214 8.94261 19.9596C8.7864 19.7978 8.73354 19.6098 8.78402 19.3957L9.46805 15.9464L12.8172 19.4153L9.48697 20.1238Z"
      fill="currentColor"
    />
  </g>
  <defs>
    <clipPath id="clip0_825_26894">
      <rect
        width="24"
        height="24"
        fill="currentColor"
        transform="translate(0.5)"
      />
    </clipPath>
  </defs>
</svg>
