<svg
  width="24"
  height="24"
  viewBox="0 0 24 24"
  fill="none"
  xmlns="http://www.w3.org/2000/svg"
>
  <g id="ic-daytime" clip-path="url(#clip0_2952_6023)">
    <path
      id="Vector"
      d="M12.75 1.5H11.25V5.22H12.75V1.5Z"
      fill="currentColor"
    />
    <path
      id="Vector_2"
      d="M18.8961 4.03753L16.2656 6.66797L17.3263 7.72863L19.9567 5.09819L18.8961 4.03753Z"
      fill="currentColor"
    />
    <path
      id="Vector_3"
      d="M22.4993 11.25H18.7793V12.75H22.4993V11.25Z"
      fill="currentColor"
    />
    <path
      id="Vector_4"
      d="M17.3302 16.267L16.2695 17.3276L18.9 19.9581L19.9606 18.8974L17.3302 16.267Z"
      fill="currentColor"
    />
    <path
      id="Vector_5"
      d="M12.75 18.7798H11.25V22.4998H12.75V18.7798Z"
      fill="currentColor"
    />
    <path
      id="Vector_6"
      d="M6.67927 16.2714L4.04883 18.9019L5.10949 19.9625L7.73993 17.3321L6.67927 16.2714Z"
      fill="currentColor"
    />
    <path
      id="Vector_7"
      d="M5.22 11.25H1.5V12.75H5.22V11.25Z"
      fill="currentColor"
    />
    <path
      id="Vector_8"
      d="M5.10363 4.04188L4.04297 5.10254L6.67341 7.73298L7.73407 6.67232L5.10363 4.04188Z"
      fill="currentColor"
    />
    <path
      id="Vector_9"
      d="M12 9C12.5933 9 13.1734 9.17595 13.6667 9.50559C14.1601 9.83524 14.5446 10.3038 14.7716 10.8519C14.9987 11.4001 15.0581 12.0033 14.9424 12.5853C14.8266 13.1672 14.5409 13.7018 14.1213 14.1213C13.7018 14.5409 13.1672 14.8266 12.5853 14.9424C12.0033 15.0581 11.4001 14.9987 10.852 14.7716C10.3038 14.5446 9.83524 14.1601 9.50559 13.6667C9.17595 13.1734 9 12.5933 9 12C9 11.2044 9.31607 10.4413 9.87868 9.87868C10.4413 9.31607 11.2044 9 12 9ZM12 7.5C11.11 7.5 10.24 7.76392 9.49994 8.25839C8.75991 8.75285 8.18314 9.45566 7.84254 10.2779C7.50195 11.1002 7.41283 12.005 7.58647 12.8779C7.7601 13.7508 8.18869 14.5526 8.81802 15.182C9.44736 15.8113 10.2492 16.2399 11.1221 16.4135C11.995 16.5872 12.8998 16.4981 13.7221 16.1575C14.5443 15.8169 15.2471 15.2401 15.7416 14.5001C16.2361 13.76 16.5 12.89 16.5 12C16.5 10.8065 16.0259 9.66193 15.182 8.81802C14.3381 7.97411 13.1935 7.5 12 7.5Z"
      fill="currentColor"
    />
  </g>
  <defs>
    <clipPath id="clip0_2952_6023">
      <rect width="24" height="24" fill="currentColor" />
    </clipPath>
  </defs>
</svg>
