<svg
  width="25"
  height="24"
  viewBox="0 0 25 24"
  fill="none"
  xmlns="http://www.w3.org/2000/svg"
>
  <path
    d="M5.83039 22.5L5.65039 20.7699L9.94039 11.821C10.1604 12 10.3954 12.1591 10.6454 12.2983C10.8954 12.4375 11.1404 12.5369 11.3804 12.5966L7.15039 21.3068L5.83039 22.5ZM20.1704 22.5L18.8504 21.3068L14.6204 12.5966C14.8604 12.5369 15.1054 12.4375 15.3554 12.2983C15.6054 12.1591 15.8404 12 16.0604 11.821L20.3504 20.7699L20.1704 22.5ZM13.0004 10.8068C12.1004 10.8068 11.3354 10.4936 10.7054 9.86719C10.0754 9.24077 9.76039 8.48011 9.76039 7.58523C9.76039 6.76989 9.99539 6.08878 10.4654 5.5419C10.9354 4.99503 11.5004 4.64205 12.1604 4.48295V1.5H13.7804V4.48295C14.4404 4.64205 15.0154 4.99503 15.5054 5.5419C15.9954 6.08878 16.2404 6.76989 16.2404 7.58523C16.2404 8.48011 15.9254 9.24077 15.2954 9.86719C14.6654 10.4936 13.9004 10.8068 13.0004 10.8068ZM13.0004 9.19602C13.4404 9.19602 13.8204 9.03693 14.1404 8.71875C14.4604 8.40057 14.6204 8.02273 14.6204 7.58523C14.6204 7.14773 14.4604 6.76989 14.1404 6.4517C13.8204 6.13352 13.4404 5.97443 13.0004 5.97443C12.5604 5.97443 12.1804 6.13352 11.8604 6.4517C11.5404 6.76989 11.3804 7.14773 11.3804 7.58523C11.3804 8.02273 11.5404 8.40057 11.8604 8.71875C12.1804 9.03693 12.5604 9.19602 13.0004 9.19602Z"
    fill="currentColor"
  />
</svg>
