<svg
  width="25"
  height="24"
  viewBox="0 0 25 24"
  fill="none"
  xmlns="http://www.w3.org/2000/svg"
>
  <path
    d="M21.2497 14.1002C21.2511 13.3992 21.0771 12.7091 20.7434 12.0926C20.4098 11.4762 19.9272 10.9531 19.3396 10.5709C18.752 10.1887 18.0781 9.95971 17.3794 9.9047C16.6806 9.84969 15.9791 9.97044 15.339 10.2559C14.6988 10.5415 14.1403 10.9826 13.7143 11.5393C13.2884 12.0959 13.0085 12.7503 12.9002 13.4429C12.7919 14.1354 12.8587 14.844 13.0944 15.5041C13.3301 16.1642 13.7273 16.7548 14.2498 17.2221V22.5L17.0497 21.1745L19.8497 22.5V17.2221C20.2898 16.8297 20.642 16.3487 20.8832 15.8107C21.1245 15.2727 21.2494 14.6898 21.2497 14.1002ZM18.4497 20.288L17.0497 19.6254L15.6497 20.288V18.0551C16.5545 18.3818 17.545 18.3818 18.4497 18.0551V20.288ZM17.0497 16.9001C16.4959 16.9001 15.9546 16.7359 15.4941 16.4282C15.0337 16.1206 14.6748 15.6833 14.4629 15.1716C14.251 14.66 14.1955 14.097 14.3036 13.5539C14.4116 13.0108 14.6783 12.5119 15.0698 12.1203C15.4614 11.7287 15.9603 11.462 16.5035 11.354C17.0466 11.246 17.6096 11.3014 18.1212 11.5133C18.6329 11.7253 19.0702 12.0841 19.3778 12.5446C19.6855 13.005 19.8497 13.5464 19.8497 14.1002C19.8489 14.8425 19.5536 15.5542 19.0287 16.0791C18.5038 16.604 17.7921 16.8993 17.0497 16.9001Z"
    fill="currentColor"
  />
  <path
    d="M17.7498 3.59996H15.6499V2.89997C15.6488 2.52901 15.501 2.17354 15.2386 1.91123C14.9763 1.64891 14.6209 1.50107 14.2499 1.5H8.64995C8.27898 1.50107 7.92351 1.64891 7.66119 1.91123C7.39888 2.17354 7.25103 2.52901 7.24996 2.89997V3.59996H5.14998C4.77902 3.60103 4.42355 3.74887 4.16123 4.01119C3.89891 4.2735 3.75107 4.62897 3.75 4.99993V19.6997C3.75107 20.0706 3.89891 20.4261 4.16123 20.6884C4.42355 20.9507 4.77902 21.0986 5.14998 21.0996H11.4499V19.6997H5.14998V4.99993H7.24996V7.0999H15.6499V4.99993H17.7498V8.49987H19.1498V4.99993C19.1488 4.62897 19.0009 4.2735 18.7386 4.01119C18.4763 3.74887 18.1208 3.60103 17.7498 3.59996ZM14.2499 5.69992H8.64995V2.89997H14.2499V5.69992Z"
    fill="currentColor"
  />
</svg>
