<svg
  width="25"
  height="24"
  viewBox="0 0 25 24"
  fill="none"
  xmlns="http://www.w3.org/2000/svg"
>
  <path
    d="M22.2857 10.5714H21.5714V7.71429H20.1429V10.5714H18.7143V7.71429H17.2857V10.5714H16.5714C16.382 10.5714 16.2003 10.6467 16.0664 10.7806C15.9324 10.9146 15.8571 11.0963 15.8571 11.2857V14.1429C15.8582 14.9658 16.143 15.7631 16.6634 16.4006C17.1839 17.038 17.9082 17.4765 18.7143 17.6421V19.8571C18.7141 20.0465 18.6388 20.2281 18.5049 20.3621C18.371 20.496 18.1894 20.5713 18 20.5714H5.14286C4.95342 20.5714 4.77174 20.4962 4.63778 20.3622C4.50383 20.2283 4.42857 20.0466 4.42857 19.8571C4.42857 19.6677 4.50383 19.486 4.63778 19.3521C4.77174 19.2181 4.95342 19.1429 5.14286 19.1429H8.71429C9.28261 19.1429 9.82765 18.9171 10.2295 18.5152C10.6314 18.1134 10.8571 17.5683 10.8571 17C10.8571 16.4317 10.6314 15.8866 10.2295 15.4848C9.82765 15.0829 9.28261 14.8571 8.71429 14.8571H5.14286C4.95342 14.8571 4.77174 14.7819 4.63778 14.6479C4.50383 14.514 4.42857 14.3323 4.42857 14.1429C4.42857 13.9534 4.50383 13.7717 4.63778 13.6378C4.77174 13.5038 4.95342 13.4286 5.14286 13.4286H8.71429C9.28242 13.4279 9.8271 13.202 10.2288 12.8003C10.6306 12.3985 10.8565 11.8538 10.8571 11.2857V8.42857H11.5714C12.3289 8.42772 13.0552 8.12643 13.5908 7.59079C14.1264 7.05516 14.4277 6.32893 14.4286 5.57143V3.42857H12.2857C11.5544 3.42977 10.8517 3.71282 10.3237 4.21886C9.9537 3.54738 9.41045 2.98736 8.75052 2.59712C8.09058 2.20688 7.33811 2.00069 6.57143 2H4.42857V4.14286C4.42982 5.27912 4.88175 6.36848 5.68521 7.17194C6.48866 7.97539 7.57803 8.42732 8.71429 8.42857H9.42857V11.2857C9.42842 11.4751 9.35312 11.6567 9.21919 11.7906C9.08527 11.9245 8.90368 11.9998 8.71429 12H5.14286C4.57454 12 4.02949 12.2258 3.62763 12.6276C3.22576 13.0295 3 13.5745 3 14.1429C3 14.7112 3.22576 15.2562 3.62763 15.6581C4.02949 16.0599 4.57454 16.2857 5.14286 16.2857H8.71429C8.90373 16.2857 9.08541 16.361 9.21936 16.4949C9.35332 16.6289 9.42857 16.8106 9.42857 17C9.42857 17.1894 9.35332 17.3711 9.21936 17.5051C9.08541 17.639 8.90373 17.7143 8.71429 17.7143H5.14286C4.57454 17.7143 4.02949 17.9401 3.62763 18.3419C3.22576 18.7438 3 19.2888 3 19.8571C3 20.4255 3.22576 20.9705 3.62763 21.3724C4.02949 21.7742 4.57454 22 5.14286 22H18C18.5681 21.9994 19.1128 21.7734 19.5145 21.3717C19.9163 20.97 20.1422 20.4253 20.1429 19.8571V17.6421C20.9489 17.4765 21.6732 17.038 22.1937 16.4006C22.7142 15.7631 22.9989 14.9658 23 14.1429V11.2857C23 11.0963 22.9247 10.9146 22.7908 10.7806C22.6568 10.6467 22.4752 10.5714 22.2857 10.5714ZM10.8571 6.28571C10.8575 5.90695 11.0082 5.54381 11.276 5.27598C11.5438 5.00815 11.9069 4.85752 12.2857 4.85714H13V5.57143C12.9996 5.95019 12.849 6.31334 12.5812 6.58116C12.3133 6.84899 11.9502 6.99962 11.5714 7H10.8571V6.28571ZM8.71429 7C7.95679 6.99915 7.23055 6.69786 6.69492 6.16222C6.15929 5.62659 5.85799 4.90036 5.85714 4.14286V3.42857H6.57143C7.32893 3.42942 8.05516 3.73071 8.59079 4.26635C9.12643 4.80198 9.42772 5.52821 9.42857 6.28571V7H8.71429ZM21.5714 14.1429C21.5714 14.7112 21.3457 15.2562 20.9438 15.6581C20.5419 16.0599 19.9969 16.2857 19.4286 16.2857C18.8603 16.2857 18.3152 16.0599 17.9133 15.6581C17.5115 15.2562 17.2857 14.7112 17.2857 14.1429V12H21.5714V14.1429Z"
    fill="currentColor"
  />
</svg>
