<svg
  width="25"
  height="24"
  viewBox="0 0 25 24"
  fill="none"
  xmlns="http://www.w3.org/2000/svg"
>
  <path
    d="M5.8783 18.6075C5.12157 17.8328 4.536 16.9582 4.1216 15.9837C3.7072 15.0093 3.5 14.0018 3.5 12.9612C3.5 11.9404 3.7072 10.8969 4.1216 9.83048C4.536 8.76412 5.17562 7.80256 6.04046 6.94582C6.86926 6.08908 7.92328 5.45109 9.20251 5.03183C10.4818 4.61257 11.806 4.33003 13.1754 4.1842C14.5447 4.03838 15.869 3.97913 17.1482 4.00648C18.4274 4.03382 19.4815 4.06572 20.3103 4.10218C20.3823 4.886 20.4409 5.92047 20.4859 7.20558C20.531 8.49069 20.4679 9.82593 20.2967 11.2113C20.1256 12.5967 19.8283 13.9501 19.4049 15.2717C18.9815 16.5933 18.3554 17.6733 17.5266 18.5118C16.7158 19.3503 15.8014 19.9746 14.7834 20.3848C13.7654 20.7949 12.759 21 11.7643 21C10.7213 21 9.68682 20.8132 8.66069 20.4395C7.63457 20.0658 6.7071 19.4551 5.8783 18.6075ZM7.82418 18.3204C8.41234 18.7214 9.05937 19.0222 9.76525 19.2227C10.4711 19.4232 11.1357 19.5235 11.7589 19.5235C12.5893 19.5235 13.4158 19.3594 14.2385 19.0313C15.0612 18.7032 15.8149 18.1746 16.4996 17.4454C16.9286 17.008 17.308 16.4155 17.6379 15.6682C17.9678 14.9208 18.2395 14.0367 18.4532 13.0159C18.6669 11.9951 18.8136 10.8513 18.8934 9.5844C18.9731 8.31752 18.995 6.94582 18.9589 5.46931C18.1121 5.41463 17.1257 5.41007 15.9996 5.45564C14.8735 5.50121 13.7429 5.61514 12.6078 5.79743C11.4727 5.97971 10.4187 6.23947 9.44575 6.5767C8.47281 6.91392 7.70707 7.36508 7.14853 7.93016C6.35576 8.73222 5.79272 9.56617 5.45939 10.432C5.12607 11.2979 4.95941 12.1045 4.95941 12.8519C4.95941 13.7889 5.14409 14.6839 5.51345 15.537C5.8828 16.39 6.38279 17.0809 7.0134 17.6095C7.31969 16.4246 7.89625 15.2762 8.74307 14.1643C9.58989 13.0524 10.9412 11.9222 12.797 10.7738C11.5898 11.8857 10.5763 13.025 9.75655 14.1917C8.93676 15.3583 8.29263 16.7345 7.82418 18.3204Z"
    fill="currentColor"
  />
</svg>
