<svg width="33" height="32" viewBox="0 0 33 32" fill="none" xmlns="http://www.w3.org/2000/svg">
<g id="ic-electric">
<path id="Vector" d="M12.2756 29.9199C12.0709 29.8335 11.9009 29.6814 11.7922 29.4877C11.6836 29.2939 11.6425 29.0695 11.6756 28.8499L13.4956 16.9999H8.66557C8.51244 17.004 8.36042 16.9729 8.22122 16.9089C8.08203 16.845 7.95938 16.7499 7.86275 16.6311C7.76612 16.5122 7.69809 16.3727 7.6639 16.2234C7.62971 16.0741 7.63028 15.9189 7.66557 15.7699L10.6656 2.76987C10.7184 2.54614 10.8466 2.34743 11.0287 2.20718C11.2109 2.06694 11.4358 1.99373 11.6656 1.99987H21.6656C21.815 1.99936 21.9626 2.03233 22.0975 2.09636C22.2325 2.16039 22.3514 2.25385 22.4456 2.36987C22.541 2.4872 22.6086 2.62465 22.6432 2.77189C22.6779 2.91912 22.6787 3.07229 22.6456 3.21987L20.9156 10.9999H25.6656C25.853 10.9995 26.0367 11.0518 26.1959 11.1508C26.355 11.2498 26.4831 11.3916 26.5656 11.5599C26.6372 11.7214 26.6648 11.899 26.6455 12.0747C26.6262 12.2504 26.5606 12.4178 26.4556 12.5599L13.4556 29.5599C13.3677 29.6901 13.2504 29.7978 13.1131 29.8743C12.9759 29.9507 12.8226 29.9937 12.6656 29.9999C12.5318 29.9974 12.3996 29.9702 12.2756 29.9199ZM18.4156 12.9999L20.4156 3.99987H12.4656L9.92557 14.9999H15.8356L14.2456 25.2799L23.6656 12.9999H18.4156Z" fill="#E8F5E9"/>
</g>
</svg>
