<svg
  width="25"
  height="24"
  viewBox="0 0 25 24"
  fill="none"
  xmlns="http://www.w3.org/2000/svg"
>
  <path
    d="M6.25233 7.90531C6.04286 7.90531 5.86511 7.83252 5.71908 7.68692C5.57303 7.54133 5.5 7.36429 5.5 7.15581C5.5 6.94733 5.57314 6.76956 5.71943 6.62249C5.86571 6.47541 6.04359 6.40187 6.25305 6.40187C6.46252 6.40187 6.64114 6.47553 6.7889 6.62284C6.93667 6.77016 7.01056 6.94805 7.01056 7.15653C7.01056 7.36501 6.93656 7.54193 6.78855 7.68727C6.64053 7.83263 6.46179 7.90531 6.25233 7.90531ZM10.5093 21.9995C9.48145 21.9871 8.60418 21.6215 7.87745 20.9027C7.15072 20.1838 6.78736 19.3147 6.78736 18.2951V11.8473C6.78736 10.22 7.35882 8.8367 8.50175 7.69743C9.64469 6.55817 11.0337 5.98854 12.6687 5.98854H14.6392C15.7085 5.98854 16.6285 6.34724 17.3992 7.06463C18.1699 7.78204 18.5553 8.66536 18.5553 9.7146C18.5553 10.4298 18.3646 11.0863 17.9833 11.6841C17.602 12.282 17.0842 12.7366 16.4301 13.048C15.7552 13.3704 15.2209 13.8415 14.8271 14.4615C14.4333 15.0814 14.2364 15.7593 14.2364 16.4951V18.2951C14.2364 19.3291 13.8749 20.209 13.152 20.9347C12.429 21.6604 11.5481 22.0153 10.5093 21.9995ZM8.69208 5.75604C8.48261 5.75604 8.30485 5.68328 8.1588 5.53776C8.01277 5.39223 7.93975 5.21528 7.93975 5.00691V4.36624C7.93975 4.15787 8.01289 3.98006 8.15918 3.83282C8.30546 3.68558 8.48334 3.61195 8.6928 3.61195C8.90227 3.61195 9.08089 3.68558 9.22865 3.83282C9.37641 3.98006 9.45029 4.15787 9.45029 4.36624V5.00691C9.45029 5.21528 9.37629 5.39223 9.22829 5.53776C9.08028 5.68328 8.90154 5.75604 8.69208 5.75604ZM10.5093 20.4961C11.1176 20.4961 11.6392 20.2806 12.0738 19.8498C12.5085 19.4189 12.7258 18.9007 12.7258 18.2951V16.4951C12.7258 15.4653 12.9994 14.5179 13.5465 13.653C14.0936 12.7881 14.8385 12.1318 15.7812 11.6841C16.1702 11.4995 16.478 11.2289 16.7047 10.8724C16.9314 10.5159 17.0447 10.1245 17.0447 9.69805C17.0447 9.06912 16.8049 8.5442 16.3253 8.1233C15.8456 7.70241 15.2836 7.49196 14.6392 7.49196H12.6687C11.4575 7.49196 10.4262 7.91647 9.57489 8.76551C8.72356 9.61454 8.29789 10.6418 8.29789 11.8473V18.2951C8.29789 18.9007 8.51436 19.4189 8.9473 19.8498C9.38021 20.2806 9.90086 20.4961 10.5093 20.4961ZM11.7236 4.68141C11.5141 4.68141 11.3364 4.60864 11.1903 4.46312C11.0443 4.3176 10.9713 4.14065 10.9713 3.93228V3.2916C10.9713 3.08323 11.0444 2.90543 11.1907 2.75818C11.337 2.61094 11.5149 2.53732 11.7243 2.53732C11.9338 2.53732 12.1124 2.61094 12.2602 2.75818C12.4079 2.90543 12.4818 3.08323 12.4818 3.2916V3.93228C12.4818 4.14065 12.4078 4.3176 12.2598 4.46312C12.1118 4.60864 11.9331 4.68141 11.7236 4.68141ZM14.7551 4.68141C14.5456 4.68141 14.3679 4.60864 14.2219 4.46312C14.0758 4.3176 14.0028 4.14065 14.0028 3.93228V2.75429C14.0028 2.54591 14.076 2.36811 14.2222 2.22086C14.3685 2.07362 14.5464 2 14.7558 2C14.9653 2 15.1439 2.07362 15.2917 2.22086C15.4395 2.36811 15.5134 2.54591 15.5134 2.75429V3.93228C15.5134 4.14065 15.4393 4.3176 15.2913 4.46312C15.1433 4.60864 14.9646 4.68141 14.7551 4.68141ZM18.2646 5.65269C17.9261 5.65269 17.6365 5.53283 17.3956 5.29312C17.1548 5.05338 17.0343 4.76509 17.0343 4.42825V3.33295C17.0343 2.99611 17.1548 2.70696 17.3956 2.46551C17.6365 2.22405 17.9261 2.10333 18.2646 2.10333C18.603 2.10333 18.8935 2.22405 19.1361 2.46551C19.3787 2.70696 19.5 2.99611 19.5 3.33295V4.42825C19.5 4.76509 19.3787 5.05338 19.1361 5.29312C18.8935 5.53283 18.603 5.65269 18.2646 5.65269Z"
    fill="currentColor"
  />
</svg>
