<svg
  width="25"
  height="24"
  viewBox="0 0 25 24"
  fill="none"
  xmlns="http://www.w3.org/2000/svg"
>
  <g clip-path="url(#clip0_954_12621)">
    <path
      d="M24.5 12C24.5 18.6274 19.1274 24 12.5 24C5.87258 24 0.5 18.6274 0.5 12C0.5 5.37258 5.87258 0 12.5 0C19.1274 0 24.5 5.37258 24.5 12Z"
      fill="#402020"
    />
    <path
      d="M12.0948 17.4C11.3548 17.4 10.6298 17.295 9.91977 17.085C9.21977 16.865 8.62977 16.565 8.14977 16.185L8.98977 14.67C9.36977 14.98 9.82977 15.23 10.3698 15.42C10.9098 15.61 11.4748 15.705 12.0648 15.705C12.7648 15.705 13.3098 15.565 13.6998 15.285C14.0898 14.995 14.2848 14.605 14.2848 14.115C14.2848 13.635 14.1048 13.255 13.7448 12.975C13.3848 12.695 12.8048 12.555 12.0048 12.555H11.0448V11.22L14.0448 7.65L13.4271 8.385H8.65977V6.75H15.8148V8.055L13.2463 11.0744C13.0363 11.0744 14.6348 11.315 15.2748 11.895C15.9248 12.465 16.2498 13.2 16.2498 14.1C16.2498 14.69 16.0998 15.235 15.7998 15.735C15.4998 16.235 15.0398 16.64 14.4198 16.95C13.8098 17.25 13.0348 17.4 12.0948 17.4Z"
      fill="white"
    />
  </g>
  <defs>
    <clipPath id="clip0_954_12621">
      <rect width="24" height="24" fill="white" transform="translate(0.5)" />
    </clipPath>
  </defs>
</svg>
