<svg
  width="25"
  height="24"
  viewBox="0 0 25 24"
  fill="none"
  xmlns="http://www.w3.org/2000/svg"
>
  <path
    d="M19.0385 20.25C18.0692 20.25 17.25 19.9175 16.5808 19.2526C15.9115 18.5876 15.5769 17.7736 15.5769 16.8106C15.5769 15.8476 15.9115 15.0336 16.5808 14.3687C17.25 13.7037 18.0692 13.3712 19.0385 13.3712C20.0077 13.3712 20.8269 13.7037 21.4961 14.3687C22.1654 15.0336 22.5 15.8476 22.5 16.8106C22.5 17.7736 22.1654 18.5876 21.4961 19.2526C20.8269 19.9175 20.0077 20.25 19.0385 20.25ZM4.26471 17.3951V16.2261H12.7715V17.3951H4.26471ZM5.96153 10.6288C4.99229 10.6288 4.17307 10.2963 3.50385 9.63133C2.83462 8.96638 2.5 8.1524 2.5 7.18939C2.5 6.22636 2.83462 5.41237 3.50385 4.74742C4.17307 4.08247 4.99229 3.75 5.96153 3.75C6.93076 3.75 7.75 4.08247 8.41923 4.74742C9.08847 5.41237 9.42309 6.22636 9.42309 7.18939C9.42309 8.1524 9.08847 8.96638 8.41923 9.63133C7.75 10.2963 6.93076 10.6288 5.96153 10.6288ZM12.2285 7.77386V6.60489H20.7353V7.77386H12.2285Z"
    fill="currentColor"
  />
</svg>
