<svg
  width="25"
  height="24"
  viewBox="0 0 25 24"
  fill="none"
  xmlns="http://www.w3.org/2000/svg"
>
  <g clip-path="url(#clip0_954_12622)">
    <path
      d="M24.5 12C24.5 18.6274 19.1274 24 12.5 24C5.87258 24 0.5 18.6274 0.5 12C0.5 5.37258 5.87258 0 12.5 0C19.1274 0 24.5 5.37258 24.5 12Z"
      fill="#402020"
    />
    <path
      d="M8.65977 17.25V15.945L12.8298 11.985C13.1798 11.655 13.4398 11.365 13.6098 11.115C13.7798 10.865 13.8898 10.635 13.9398 10.425C13.9998 10.205 14.0298 10 14.0298 9.81C14.0298 9.33 13.8648 8.96 13.5348 8.7C13.2048 8.43 12.7198 8.295 12.0798 8.295C11.5698 8.295 11.1048 8.385 10.6848 8.565C10.2748 8.745 9.91977 9.02 9.61977 9.39L8.25477 8.34C8.66477 7.79 9.21477 7.365 9.90477 7.065C10.6048 6.755 11.3848 6.6 12.2448 6.6C13.0048 6.6 13.6648 6.725 14.2248 6.975C14.7948 7.215 15.2298 7.56 15.5298 8.01C15.8398 8.46 15.9948 8.995 15.9948 9.615C15.9948 9.955 15.9498 10.295 15.8598 10.635C15.7698 10.965 15.5998 11.315 15.3498 11.685C15.0998 12.055 14.7348 12.47 14.2548 12.93L10.6698 16.335L11.4436 15.6H16.3998V17.25H8.65977Z"
      fill="white"
    />
  </g>
  <defs>
    <clipPath id="clip0_954_12622">
      <rect width="24" height="24" fill="white" transform="translate(0.5)" />
    </clipPath>
  </defs>
</svg>
