<svg width="33" height="32" viewBox="0 0 33 32" fill="none" xmlns="http://www.w3.org/2000/svg">
<g id="ic-const-foundation">
<g id="Vector">
<path fill-rule="evenodd" clip-rule="evenodd" d="M20.3301 19V4H22.3301V19H20.3301Z" fill="#E3F2FD"/>
<path fill-rule="evenodd" clip-rule="evenodd" d="M10.3301 19V4H12.3301V19H10.3301Z" fill="#E3F2FD"/>
<path fill-rule="evenodd" clip-rule="evenodd" d="M26.3301 19H6.33008L6.33008 26H26.3301V19ZM6.33008 17C5.22551 17 4.33008 17.8954 4.33008 19V26C4.33008 27.1046 5.22551 28 6.33008 28H26.3301C27.4346 28 28.3301 27.1046 28.3301 26V19C28.3301 17.8954 27.4346 17 26.3301 17H6.33008Z" fill="#E3F2FD"/>
<path fill-rule="evenodd" clip-rule="evenodd" d="M26.3301 14H6.33008V12H26.3301V14Z" fill="#E3F2FD"/>
<path fill-rule="evenodd" clip-rule="evenodd" d="M26.3301 9H6.33008V7H26.3301V9Z" fill="#E3F2FD"/>
</g>
</g>
</svg>
