<svg
  width="25"
  height="24"
  viewBox="0 0 25 24"
  fill="none"
  xmlns="http://www.w3.org/2000/svg"
>
  <path
    d="M17.9004 2.55078V3.90078H19.2504V7.95078C19.2504 8.66687 18.9659 9.35362 18.4596 9.85997C17.9532 10.3663 17.2665 10.6508 16.5504 10.6508C15.8343 10.6508 15.1476 10.3663 14.6412 9.85997C14.1349 9.35362 13.8504 8.66687 13.8504 7.95078V3.90078H15.2004V2.55078H12.5004V7.95078C12.502 8.90699 12.8417 9.83182 13.4593 10.5618C14.0769 11.2918 14.9327 11.78 15.8754 11.94V16.0508C15.8754 17.1249 15.4487 18.155 14.6892 18.9146C13.9297 19.6741 12.8995 20.1008 11.8254 20.1008C10.7513 20.1008 9.72114 19.6741 8.96161 18.9146C8.20209 18.155 7.7754 17.1249 7.7754 16.0508V11.9049C8.41169 11.7406 8.96622 11.3499 9.33505 10.806C9.70388 10.2621 9.86168 9.60231 9.77888 8.95039C9.69607 8.29846 9.37834 7.69912 8.88525 7.2647C8.39216 6.83027 7.75756 6.5906 7.1004 6.5906C6.44323 6.5906 5.80863 6.83027 5.31554 7.2647C4.82245 7.69912 4.50472 8.29846 4.42192 8.95039C4.33911 9.60231 4.49691 10.2621 4.86574 10.806C5.23457 11.3499 5.7891 11.7406 6.4254 11.9049V16.0508C6.4254 17.483 6.99432 18.8565 8.00702 19.8692C9.01971 20.8819 10.3932 21.4508 11.8254 21.4508C13.2576 21.4508 14.6311 20.8819 15.6438 19.8692C16.6565 18.8565 17.2254 17.483 17.2254 16.0508V11.94C18.1681 11.78 19.0239 11.2918 19.6415 10.5618C20.2591 9.83182 20.5987 8.90699 20.6004 7.95078V2.55078H17.9004ZM5.7504 9.30078C5.7504 9.03378 5.82957 8.77277 5.97791 8.55076C6.12625 8.32876 6.33709 8.15572 6.58377 8.05354C6.83045 7.95137 7.10189 7.92463 7.36377 7.97672C7.62564 8.02881 7.86619 8.15739 8.05499 8.34619C8.24379 8.53499 8.37237 8.77554 8.42446 9.03741C8.47655 9.29928 8.44981 9.57072 8.34763 9.8174C8.24546 10.0641 8.07242 10.2749 7.85042 10.4233C7.62841 10.5716 7.3674 10.6508 7.1004 10.6508C6.74248 10.6504 6.39934 10.508 6.14626 10.2549C5.89317 10.0018 5.75081 9.6587 5.7504 9.30078Z"
    fill="currentColor"
  />
</svg>
