<svg
  width="25"
  height="24"
  viewBox="0 0 25 24"
  fill="none"
  xmlns="http://www.w3.org/2000/svg"
>
  <g id="ic-housing" clip-path="url(#clip0_1420_11574)">
    <path
      id="Vector"
      d="M15.5 22.5H13.25C12.8523 22.4996 12.471 22.3414 12.1898 22.0602C11.9086 21.779 11.7504 21.3977 11.75 21V17.25H13.25V21H15.5V17.25H17V14.25C16.9998 14.0512 16.9207 13.8605 16.7801 13.7199C16.6395 13.5793 16.4488 13.5002 16.25 13.5H9.70947L8.20947 9H3.5C3.30115 9.00022 3.11052 9.07931 2.96991 9.21991C2.82931 9.36052 2.75022 9.55116 2.75 9.75V14.25H4.25V21H7.25V15.75H8.75V21C8.74958 21.3977 8.59141 21.779 8.3102 22.0602C8.02899 22.3414 7.6477 22.4996 7.25 22.5H4.25C3.8523 22.4996 3.47101 22.3414 3.1898 22.0602C2.90859 21.779 2.75042 21.3977 2.75 21V15.75C2.3523 15.7496 1.97101 15.5914 1.6898 15.3102C1.40859 15.029 1.25042 14.6477 1.25 14.25V9.75C1.25066 9.15346 1.48792 8.58155 1.90973 8.15973C2.33155 7.73792 2.90346 7.50066 3.5 7.5H8.20947C8.52436 7.49974 8.83132 7.59869 9.08678 7.78278C9.34224 7.96687 9.53322 8.22676 9.6326 8.52555L10.7905 12H16.25C16.8465 12.0007 17.4185 12.2379 17.8403 12.6597C18.2621 13.0815 18.4993 13.6535 18.5 14.25V17.25C18.4996 17.6477 18.3414 18.029 18.0602 18.3102C17.779 18.5914 17.3977 18.7496 17 18.75V21C16.9996 21.3977 16.8414 21.779 16.5602 22.0602C16.279 22.3414 15.8977 22.4996 15.5 22.5Z"
      fill="currentColor"
    />
    <path
      id="Vector_2"
      d="M21.5 22.5H20V14.25H22.25V9.75C22.2498 9.55115 22.1707 9.36052 22.0301 9.21991C21.8895 9.07931 21.6988 9.00022 21.5 9H18.5V7.5H21.5C22.0965 7.50066 22.6685 7.73792 23.0903 8.15973C23.5121 8.58155 23.7493 9.15346 23.75 9.75V14.25C23.7496 14.6477 23.5914 15.029 23.3102 15.3102C23.029 15.5914 22.6477 15.7496 22.25 15.75H21.5V22.5Z"
      fill="currentColor"
    />
    <path
      id="Vector_3"
      d="M5.75 6.75C5.15666 6.75 4.57664 6.57405 4.08329 6.24441C3.58994 5.91477 3.20543 5.44623 2.97836 4.89805C2.7513 4.34987 2.69189 3.74667 2.80765 3.16473C2.9234 2.58279 3.20912 2.04824 3.62868 1.62868C4.04824 1.20912 4.58279 0.923401 5.16473 0.807646C5.74667 0.69189 6.34987 0.7513 6.89805 0.978363C7.44623 1.20543 7.91477 1.58994 8.24441 2.08329C8.57405 2.57664 8.75 3.15666 8.75 3.75C8.74911 4.54538 8.43275 5.30792 7.87034 5.87034C7.30792 6.43275 6.54538 6.74911 5.75 6.75ZM5.75 2.25C5.45333 2.25 5.16332 2.33797 4.91665 2.5028C4.66997 2.66762 4.47771 2.90189 4.36418 3.17598C4.25065 3.45007 4.22095 3.75167 4.27882 4.04264C4.3367 4.33361 4.47956 4.60088 4.68934 4.81066C4.89912 5.02044 5.16639 5.1633 5.45737 5.22118C5.74834 5.27906 6.04994 5.24935 6.32403 5.13582C6.59812 5.02229 6.83238 4.83003 6.99721 4.58336C7.16203 4.33668 7.25 4.04667 7.25 3.75C7.24958 3.3523 7.09142 2.97102 6.8102 2.6898C6.52899 2.40859 6.1477 2.25042 5.75 2.25Z"
      fill="currentColor"
    />
    <path
      id="Vector_4"
      d="M19.25 6.75C18.6567 6.75 18.0766 6.57405 17.5833 6.24441C17.0899 5.91477 16.7054 5.44623 16.4784 4.89805C16.2513 4.34987 16.1919 3.74667 16.3076 3.16473C16.4234 2.58279 16.7091 2.04824 17.1287 1.62868C17.5482 1.20912 18.0828 0.923401 18.6647 0.807646C19.2467 0.69189 19.8499 0.7513 20.3981 0.978363C20.9462 1.20543 21.4148 1.58994 21.7444 2.08329C22.0741 2.57664 22.25 3.15666 22.25 3.75C22.2491 4.54538 21.9328 5.30792 21.3703 5.87034C20.8079 6.43275 20.0454 6.74911 19.25 6.75ZM19.25 2.25C18.9533 2.25 18.6633 2.33797 18.4166 2.5028C18.17 2.66762 17.9777 2.90189 17.8642 3.17598C17.7507 3.45007 17.7209 3.75167 17.7788 4.04264C17.8367 4.33361 17.9796 4.60088 18.1893 4.81066C18.3991 5.02044 18.6664 5.1633 18.9574 5.22118C19.2483 5.27906 19.5499 5.24935 19.824 5.13582C20.0981 5.02229 20.3324 4.83003 20.4972 4.58336C20.662 4.33668 20.75 4.04667 20.75 3.75C20.7496 3.3523 20.5914 2.97102 20.3102 2.6898C20.029 2.40859 19.6477 2.25042 19.25 2.25Z"
      fill="currentColor"
    />
    <path
      id="Vector_5"
      d="M14.375 11.25C13.8558 11.25 13.3483 11.096 12.9166 10.8076C12.485 10.5192 12.1485 10.1092 11.9498 9.62955C11.7511 9.14989 11.6992 8.62209 11.8004 8.11289C11.9017 7.60369 12.1517 7.13596 12.5188 6.76885C12.886 6.40173 13.3537 6.15173 13.8629 6.05044C14.3721 5.94915 14.8999 6.00114 15.3795 6.19982C15.8592 6.3985 16.2692 6.73495 16.5576 7.16663C16.846 7.59831 17 8.10583 17 8.625C16.9992 9.32095 16.7224 9.98815 16.2303 10.4803C15.7382 10.9724 15.0709 11.2492 14.375 11.25ZM14.375 7.5C14.1525 7.5 13.935 7.56598 13.75 7.6896C13.565 7.81321 13.4208 7.98892 13.3356 8.19448C13.2505 8.40005 13.2282 8.62625 13.2716 8.84448C13.315 9.06271 13.4222 9.26316 13.5795 9.4205C13.7368 9.57783 13.9373 9.68498 14.1555 9.72839C14.3738 9.77179 14.6 9.74951 14.8055 9.66437C15.0111 9.57922 15.1868 9.43502 15.3104 9.25002C15.434 9.06501 15.5 8.84751 15.5 8.625C15.4997 8.32674 15.381 8.04078 15.1701 7.82988C14.9592 7.61897 14.6733 7.50034 14.375 7.5Z"
      fill="currentColor"
    />
  </g>
  <defs>
    <clipPath id="clip0_1420_11574">
      <rect
        width="24"
        height="24"
        fill="currentColor"
        transform="translate(0.5)"
      />
    </clipPath>
  </defs>
</svg>
