<svg width="32" height="32" viewBox="0 0 32 32" fill="none" xmlns="http://www.w3.org/2000/svg">
<g id="ic-const-iron">
<g id="Vector">
<mask id="path-1-inside-1_3013_6980" fill="white">
<path fill-rule="evenodd" clip-rule="evenodd" d="M17.9992 6H13.9992V26H17.9992V6ZM13.9992 4C12.8946 4 11.9992 4.89543 11.9992 6V26C11.9992 27.1046 12.8946 28 13.9992 28H17.9992C19.1038 28 19.9992 27.1046 19.9992 26V6C19.9992 4.89543 19.1038 4 17.9992 4H13.9992Z"/>
<path d="M9.75627 6C11.7529 6 12.0025 8 12.0025 8L12.0025 6L13.9992 6V4L9.00918 4L9.00918 6C9.00918 6 7.75959 6 9.75627 6Z"/>
<path d="M22.2421 6C20.2455 6 19.9959 8 19.9959 8V6L17.9992 6V4L22.9892 4L22.9892 6H22.2421Z"/>
<path d="M9.75627 26C11.7529 26 12.0025 24 12.0025 24L12.0025 26H13.9992V28H9.00918L9.00918 26C9.00918 26 7.75959 26 9.75627 26Z"/>
<path d="M22.2421 26C20.2455 26 19.9959 24 19.9959 24V26H17.9992V28H22.9892L22.9892 26H22.2421Z"/>
</mask>
<path fill-rule="evenodd" clip-rule="evenodd" d="M17.9992 6H13.9992V26H17.9992V6ZM13.9992 4C12.8946 4 11.9992 4.89543 11.9992 6V26C11.9992 27.1046 12.8946 28 13.9992 28H17.9992C19.1038 28 19.9992 27.1046 19.9992 26V6C19.9992 4.89543 19.1038 4 17.9992 4H13.9992Z" fill="white"/>
<path d="M9.75627 6C11.7529 6 12.0025 8 12.0025 8L12.0025 6L13.9992 6V4L9.00918 4L9.00918 6C9.00918 6 7.75959 6 9.75627 6Z" fill="#E3F2FD"/>
<path d="M22.2421 6C20.2455 6 19.9959 8 19.9959 8V6L17.9992 6V4L22.9892 4L22.9892 6H22.2421Z" fill="#E3F2FD"/>
<path d="M9.75627 26C11.7529 26 12.0025 24 12.0025 24L12.0025 26H13.9992V28H9.00918L9.00918 26C9.00918 26 7.75959 26 9.75627 26Z" fill="#E3F2FD"/>
<path d="M22.2421 26C20.2455 26 19.9959 24 19.9959 24V26H17.9992V28H22.9892L22.9892 26H22.2421Z" fill="#E3F2FD"/>
<path d="M13.9992 4V2.5V4ZM12.0025 8L10.5141 8.18575L13.5025 8L12.0025 8ZM9.75627 6L9.75627 7.5L9.75627 6ZM9.00918 6L9.00918 7.5L10.5092 7.5L10.5092 6H9.00918ZM9.00918 4L9.00918 2.5L7.50918 2.5L7.50918 4L9.00918 4ZM12.0025 6V4.5L10.5025 4.5L10.5025 6L12.0025 6ZM19.9959 8H18.4959L21.4843 8.18575L19.9959 8ZM22.2421 6V4.5V6ZM22.9892 6V7.5H24.4892L24.4892 6L22.9892 6ZM22.9892 4L24.4892 4L24.4892 2.5H22.9892V4ZM19.9959 6H21.4959V4.5L19.9959 4.5V6ZM12.0025 24L13.5025 24L10.5141 23.8143L12.0025 24ZM9.75627 26L9.75627 24.5L9.75627 26ZM9.00918 26H10.5092L10.5092 24.5H9.00918L9.00918 26ZM9.00918 28H7.50918L7.50918 29.5H9.00918V28ZM12.0025 26H10.5025L10.5025 27.5H12.0025V26ZM19.9959 24L21.4843 23.8143L18.4959 24H19.9959ZM22.2421 26V27.5V26ZM22.9892 26L24.4892 26L24.4892 24.5H22.9892V26ZM22.9892 28V29.5H24.4892L24.4892 28L22.9892 28ZM19.9959 26V27.5H21.4959V26H19.9959ZM13.9992 7.5H17.9992V4.5H13.9992V7.5ZM15.4992 26V6H12.4992V26H15.4992ZM17.9992 24.5H13.9992V27.5H17.9992V24.5ZM16.4992 6V26H19.4992V6H16.4992ZM13.4992 6C13.4992 5.72386 13.7231 5.5 13.9992 5.5V2.5C12.0662 2.5 10.4992 4.067 10.4992 6H13.4992ZM13.4992 26V6H10.4992V26H13.4992ZM13.9992 26.5C13.7231 26.5 13.4992 26.2761 13.4992 26H10.4992C10.4992 27.933 12.0662 29.5 13.9992 29.5V26.5ZM17.9992 26.5H13.9992V29.5H17.9992V26.5ZM18.4992 26C18.4992 26.2761 18.2753 26.5 17.9992 26.5V29.5C19.9322 29.5 21.4992 27.933 21.4992 26H18.4992ZM18.4992 6V26H21.4992V6H18.4992ZM17.9992 5.5C18.2753 5.5 18.4992 5.72386 18.4992 6H21.4992C21.4992 4.067 19.9322 2.5 17.9992 2.5V5.5ZM13.9992 5.5H17.9992V2.5H13.9992V5.5ZM12.0025 8C13.491 7.81425 13.4909 7.81353 13.4908 7.8128C13.4908 7.81254 13.4907 7.8118 13.4906 7.81129C13.4905 7.81027 13.4903 7.80922 13.4902 7.80813C13.4899 7.80596 13.4896 7.80365 13.4893 7.80121C13.4886 7.79633 13.4879 7.79091 13.4871 7.78499C13.4854 7.77314 13.4833 7.75921 13.4808 7.74334C13.4758 7.71164 13.469 7.67196 13.4599 7.62541C13.4417 7.53272 13.414 7.41048 13.3725 7.26814C13.2912 6.98874 13.1487 6.60337 12.9007 6.20595C12.3727 5.35961 11.3728 4.5 9.75627 4.5L9.75627 7.5C9.99136 7.5 10.1065 7.55488 10.1625 7.5894C10.2287 7.63019 10.2936 7.69471 10.3556 7.79405C10.4196 7.89663 10.4643 8.01126 10.4921 8.10686C10.5053 8.15202 10.5127 8.18603 10.5159 8.20272C10.5175 8.21086 10.518 8.21414 10.5176 8.21174C10.5174 8.21051 10.517 8.20782 10.5164 8.20354C10.5161 8.2014 10.5158 8.19885 10.5154 8.19589C10.5152 8.19441 10.515 8.19283 10.5148 8.19114C10.5146 8.19029 10.5145 8.18942 10.5144 8.18852C10.5144 8.18808 10.5143 8.18738 10.5142 8.18716C10.5142 8.18646 10.5141 8.18575 12.0025 8ZM9.75627 4.5C9.2571 4.5 8.96082 4.5 8.79719 4.5C8.71537 4.5 8.66671 4.5 8.64244 4.5C8.63031 4.5 8.62424 4.5 8.62318 4.5C8.62311 4.5 8.62305 4.5 8.623 4.5C8.62296 4.5 8.62285 4.5 8.62276 4.5C7.12305 5.99966 8.62247 7.5 8.62287 7.5C8.623 7.5 8.62321 7.5 8.62332 7.5C8.62368 7.5 8.62433 7.5 8.62525 7.5C8.62709 7.5 8.63004 7.5 8.63397 7.5C8.66537 7.5 8.75918 7.5 8.84513 7.5C8.8881 7.5 8.92911 7.5 8.95938 7.5C8.97452 7.5 8.98697 7.5 8.99563 7.5C8.99996 7.5 9.00335 7.5 9.00565 7.5C9.0068 7.5 9.00769 7.5 9.00828 7.5C9.00858 7.5 9.0088 7.5 9.00895 7.5C9.00903 7.5 9.00908 7.5 9.00912 7.5C9.00914 7.5 9.00915 7.5 9.00916 7.5C9.00917 7.5 9.00918 7.5 9.00918 6C9.00918 4.5 9.00917 4.5 9.00916 4.5C9.00915 4.5 9.00914 4.5 9.00912 4.5C9.00908 4.5 9.00903 4.5 9.00895 4.5C9.0088 4.5 9.00858 4.5 9.00828 4.5C9.00769 4.5 9.00681 4.5 9.00565 4.5C9.00335 4.5 8.99996 4.5 8.99563 4.5C8.98697 4.5 8.97452 4.5 8.95939 4.5C8.92912 4.5 8.8881 4.5 8.84513 4.5C8.75918 4.5 8.66538 4.5 8.63397 4.5C8.63005 4.5 8.6271 4.5 8.62526 4.5C8.62434 4.5 8.62371 4.5 8.62337 4.5C8.62314 4.5 8.62315 4.5 8.62323 4.5C8.62362 4.5 10.123 6.00034 8.62333 7.5C8.62326 7.5 8.62316 7.5 8.62315 7.5C8.62316 7.5 8.62316 7.5 8.62317 7.5C8.62319 7.5 8.62321 7.5 8.62324 7.5C8.62427 7.5 8.63029 7.5 8.64244 7.5C8.66672 7.5 8.71537 7.5 8.79719 7.5C8.96082 7.5 9.2571 7.5 9.75627 7.5L9.75627 4.5ZM10.5092 6L10.5092 4L7.50918 4L7.50918 6L10.5092 6ZM9.00918 5.5L13.9992 5.5V2.5L9.00918 2.5L9.00918 5.5ZM12.4992 4V6H15.4992V4H12.4992ZM13.9992 4.5L12.0025 4.5L12.0025 7.5L13.9992 7.5V4.5ZM10.5025 6L10.5025 8L13.5025 8L13.5025 6L10.5025 6ZM19.9959 8C21.4843 8.18575 21.4842 8.18645 21.4841 8.18715C21.4841 8.18738 21.484 8.18807 21.484 8.18852C21.4839 8.18942 21.4837 8.19029 21.4836 8.19114C21.4834 8.19283 21.4832 8.19441 21.483 8.19589C21.4826 8.19885 21.4823 8.20139 21.482 8.20354C21.4814 8.20782 21.481 8.21051 21.4808 8.21173C21.4804 8.21414 21.4809 8.21086 21.4825 8.20272C21.4857 8.18603 21.4931 8.15202 21.5063 8.10685C21.5341 8.01126 21.5788 7.89663 21.6428 7.79405C21.7048 7.69471 21.7697 7.63019 21.8359 7.5894C21.8919 7.55488 22.007 7.5 22.2421 7.5L22.2421 4.5C20.6255 4.5 19.6257 5.35961 19.0977 6.20595C18.8497 6.60337 18.7072 6.98874 18.6259 7.26814C18.5844 7.41048 18.5567 7.53272 18.5385 7.62541C18.5294 7.67196 18.5226 7.71164 18.5176 7.74334C18.515 7.75921 18.513 7.77314 18.5113 7.78499C18.5105 7.79092 18.5097 7.79633 18.5091 7.80121C18.5088 7.80365 18.5085 7.80596 18.5082 7.80813C18.508 7.80922 18.5079 7.81027 18.5078 7.81129C18.5077 7.8118 18.5076 7.81254 18.5076 7.8128C18.5075 7.81353 18.5074 7.81425 19.9959 8ZM22.2421 7.5H22.9892V4.5H22.2421V7.5ZM24.4892 6L24.4892 4L21.4892 4L21.4892 6L24.4892 6ZM22.9892 2.5L17.9992 2.5V5.5L22.9892 5.5V2.5ZM16.4992 4V6H19.4992V4H16.4992ZM17.9992 7.5L19.9959 7.5V4.5L17.9992 4.5V7.5ZM18.4959 6V8H21.4959V6H18.4959ZM12.0025 24C10.5141 23.8143 10.5142 23.8135 10.5142 23.8128C10.5143 23.8126 10.5144 23.8119 10.5144 23.8115C10.5145 23.8106 10.5146 23.8097 10.5148 23.8089C10.515 23.8072 10.5152 23.8056 10.5154 23.8041C10.5158 23.8011 10.5161 23.7986 10.5164 23.7965C10.517 23.7922 10.5174 23.7895 10.5176 23.7883C10.518 23.7859 10.5175 23.7891 10.5159 23.7973C10.5127 23.814 10.5053 23.848 10.4921 23.8931C10.4643 23.9887 10.4196 24.1034 10.3556 24.206C10.2936 24.3053 10.2287 24.3698 10.1625 24.4106C10.1065 24.4451 9.99136 24.5 9.75627 24.5L9.75627 27.5C11.3728 27.5 12.3727 26.6404 12.9007 25.794C13.1487 25.3966 13.2912 25.0113 13.3725 24.7319C13.414 24.5895 13.4417 24.4673 13.4599 24.3746C13.469 24.328 13.4758 24.2884 13.4808 24.2567C13.4833 24.2408 13.4854 24.2269 13.4871 24.215C13.4879 24.2091 13.4886 24.2037 13.4893 24.1988C13.4896 24.1964 13.4899 24.194 13.4902 24.1919C13.4903 24.1908 13.4905 24.1897 13.4906 24.1887C13.4907 24.1882 13.4908 24.1875 13.4908 24.1872C13.4909 24.1865 13.491 24.1857 12.0025 24ZM9.75627 24.5C9.2571 24.5 8.96082 24.5 8.79719 24.5C8.71537 24.5 8.66672 24.5 8.64244 24.5C8.6303 24.5 8.62426 24.5 8.62321 24.5C8.62314 24.5 8.6231 24.5 8.62307 24.5C8.62305 24.5 8.62304 24.5 8.62302 24.5C7.12305 26 8.623 27.5 8.62304 27.5C8.62307 27.5 8.62318 27.5 8.62335 27.5C8.62369 27.5 8.62434 27.5 8.62525 27.5C8.62709 27.5 8.63004 27.5 8.63397 27.5C8.66538 27.5 8.75918 27.5 8.84513 27.5C8.8881 27.5 8.92912 27.5 8.95939 27.5C8.97452 27.5 8.98697 27.5 8.99563 27.5C8.99996 27.5 9.00335 27.5 9.00565 27.5C9.00681 27.5 9.00768 27.5 9.00828 27.5C9.00858 27.5 9.00879 27.5 9.00895 27.5C9.009 27.5 9.00911 27.5 9.00912 27.5C9.00914 27.5 9.00915 27.5 9.00916 27.5C9.00917 27.5 9.00918 27.5 9.00918 26C9.00918 24.5 9.00917 24.5 9.00916 24.5C9.00915 24.5 9.00914 24.5 9.00912 24.5C9.00911 24.5 9.009 24.5 9.00895 24.5C9.00879 24.5 9.00858 24.5 9.00828 24.5C9.00769 24.5 9.0068 24.5 9.00566 24.5C9.00336 24.5 8.99996 24.5 8.99563 24.5C8.98697 24.5 8.97452 24.5 8.95939 24.5C8.92912 24.5 8.8881 24.5 8.84513 24.5C8.75918 24.5 8.66538 24.5 8.63397 24.5C8.63005 24.5 8.62709 24.5 8.62526 24.5C8.62434 24.5 8.6237 24.5 8.62335 24.5C8.62326 24.5 8.6232 24.5 8.62315 24.5C8.62312 24.5 8.62311 24.5 8.62309 24.5C8.62308 24.5 8.62307 24.5 8.62307 24.5C8.6231 24.5 10.123 26 8.62308 27.5C8.62307 27.5 8.62307 27.5 8.62308 27.5C8.62311 27.5 8.62315 27.5 8.62322 27.5C8.62426 27.5 8.6303 27.5 8.64244 27.5C8.66672 27.5 8.71537 27.5 8.79719 27.5C8.96082 27.5 9.2571 27.5 9.75627 27.5L9.75627 24.5ZM7.50918 26L7.50918 28H10.5092L10.5092 26H7.50918ZM9.00918 29.5H13.9992V26.5H9.00918V29.5ZM15.4992 28V26H12.4992V28H15.4992ZM13.9992 24.5H12.0025V27.5H13.9992V24.5ZM13.5025 26L13.5025 24L10.5025 24L10.5025 26H13.5025ZM19.9959 24C18.5074 24.1857 18.5075 24.1865 18.5076 24.1872C18.5076 24.1875 18.5077 24.1882 18.5078 24.1887C18.5079 24.1897 18.508 24.1908 18.5082 24.1919C18.5085 24.194 18.5088 24.1964 18.5091 24.1988C18.5097 24.2037 18.5105 24.2091 18.5113 24.215C18.513 24.2269 18.515 24.2408 18.5176 24.2567C18.5226 24.2884 18.5294 24.328 18.5385 24.3746C18.5567 24.4673 18.5844 24.5895 18.6259 24.7319C18.7072 25.0113 18.8497 25.3966 19.0977 25.794C19.6257 26.6404 20.6255 27.5 22.2421 27.5L22.2421 24.5C22.007 24.5 21.8919 24.4451 21.8359 24.4106C21.7697 24.3698 21.7048 24.3053 21.6428 24.206C21.5788 24.1034 21.5341 23.9887 21.5063 23.8931C21.4931 23.848 21.4857 23.814 21.4825 23.7973C21.4809 23.7891 21.4804 23.7859 21.4808 23.7883C21.481 23.7895 21.4814 23.7922 21.482 23.7965C21.4823 23.7986 21.4826 23.8011 21.483 23.8041C21.4832 23.8056 21.4834 23.8072 21.4836 23.8089C21.4837 23.8097 21.4839 23.8106 21.484 23.8115C21.484 23.8119 21.4841 23.8126 21.4841 23.8128C21.4842 23.8135 21.4843 23.8143 19.9959 24ZM22.2421 27.5H22.9892V24.5H22.2421V27.5ZM21.4892 26L21.4892 28L24.4892 28L24.4892 26L21.4892 26ZM22.9892 26.5H17.9992V29.5H22.9892V26.5ZM19.4992 28V26H16.4992V28H19.4992ZM17.9992 27.5H19.9959V24.5H17.9992V27.5ZM21.4959 26V24H18.4959V26H21.4959Z" fill="#E3F2FD" mask="url(#path-1-inside-1_3013_6980)"/>
</g>
</g>
</svg>
