<svg
  width="25"
  height="24"
  viewBox="0 0 25 24"
  fill="none"
  xmlns="http://www.w3.org/2000/svg"
>
  <path
    fill-rule="evenodd"
    clip-rule="evenodd"
    d="M4.5 13C4.5 9.40486 4.5 7.60729 5.35669 6.31255C5.73925 5.73439 6.23439 5.23925 6.81255 4.85669C8.10729 4 9.90486 4 13.5 4C17.0951 4 18.8927 4 20.1874 4.85669C20.7656 5.23925 21.2608 5.73439 21.6433 6.31255C22.5 7.60729 22.5 9.40486 22.5 13C22.5 16.5951 22.5 18.3927 21.6433 19.6874C21.2608 20.2656 20.7656 20.7608 20.1874 21.1433C18.8927 22 17.0951 22 13.5 22C9.90486 22 8.10729 22 6.81255 21.1433C6.23439 20.7608 5.73925 20.2656 5.35669 19.6874C4.5 18.3927 4.5 16.5951 4.5 13ZM18.1594 13.0008C18.1594 15.5742 16.0733 17.6602 13.5 17.6602C10.9267 17.6602 8.84058 15.5742 8.84058 13.0008C8.84058 10.4275 10.9267 8.34143 13.5 8.34143C16.0733 8.34143 18.1594 10.4275 18.1594 13.0008ZM13.5 16.0838C15.2027 16.0838 16.583 14.7035 16.583 13.0008C16.583 11.2981 15.2027 9.91784 13.5 9.91784C11.7973 9.91784 10.417 11.2981 10.417 13.0008C10.417 14.7035 11.7973 16.0838 13.5 16.0838ZM18.3432 9.20063C18.9479 9.20063 19.4381 8.71046 19.4381 8.10581C19.4381 7.50116 18.9479 7.01099 18.3432 7.01099C17.7386 7.01099 17.2484 7.50116 17.2484 8.10581C17.2484 8.71046 17.7386 9.20063 18.3432 9.20063Z"
    fill="currentColor"
  />
</svg>
