<svg width="20" height="20" viewBox="0 0 20 20" fill="none" xmlns="http://www.w3.org/2000/svg">
<g clip-path="url(#clip0_40_4787)">
<path fill-rule="evenodd" clip-rule="evenodd" d="M11.4279 4.62467L15.3779 8.53609L14.1299 13.1934L15.2649 14.3283C15.6486 14.1044 16.095 13.9762 16.571 13.9762C18.0044 13.9762 19.1663 15.1381 19.1663 16.5715C19.1663 18.0049 18.0044 19.1669 16.571 19.1669C15.1376 19.1669 13.9756 18.0049 13.9756 16.5715C13.9756 16.0956 14.1039 15.6491 14.3278 15.2654L13.1456 14.0832L8.57148 15.2848L4.62148 11.3734L5.85018 6.78783L4.73449 5.67214C4.35075 5.89602 3.90434 6.02429 3.42837 6.02429C1.99499 6.02429 0.833008 4.8623 0.833008 3.42892C0.833008 1.99554 1.99499 0.833557 3.42837 0.833557C4.86175 0.833557 6.02374 1.99554 6.02374 3.42892C6.02374 3.90489 5.89547 4.3513 5.67159 4.73504L6.78173 5.84519L11.4279 4.62467ZM6.10073 10.9731L8.96643 13.8109L12.8671 12.7862L13.8986 8.93635L11.0329 6.09864L7.13229 7.12332L6.10073 10.9731ZM1.99815 3.42892C1.99815 2.63903 2.63848 1.9987 3.42837 1.9987C4.21826 1.9987 4.8586 2.63903 4.8586 3.42892C4.8586 4.21881 4.21826 4.85915 3.42837 4.85915C2.63848 4.85915 1.99815 4.21881 1.99815 3.42892ZM15.1408 16.5715C15.1408 15.7816 15.7811 15.1413 16.571 15.1413C17.3609 15.1413 18.0012 15.7816 18.0012 16.5715C18.0012 17.3614 17.3609 18.0018 16.571 18.0018C15.7811 18.0018 15.1408 17.3614 15.1408 16.5715Z" fill="#00A888"/>
</g>
<defs>
<clipPath id="clip0_40_4787">
<rect width="20" height="20" fill="white"/>
</clipPath>
</defs>
</svg>
