<svg
  width="25"
  height="24"
  viewBox="0 0 25 24"
  fill="none"
  xmlns="http://www.w3.org/2000/svg"
>
  <g clip-path="url(#clip0_352_7508)">
    <path
      d="M14.75 10.5C15.195 10.5 15.63 10.368 16 10.1208C16.37 9.87357 16.6584 9.52217 16.8287 9.11104C16.999 8.69991 17.0436 8.24751 16.9568 7.81105C16.87 7.37459 16.6557 6.97368 16.341 6.65901C16.0263 6.34434 15.6254 6.13005 15.189 6.04323C14.7525 5.95642 14.3001 6.00097 13.889 6.17127C13.4778 6.34157 13.1264 6.62996 12.8792 6.99997C12.632 7.36998 12.5 7.80499 12.5 8.25C12.5 8.84674 12.7371 9.41903 13.159 9.84099C13.581 10.2629 14.1533 10.5 14.75 10.5ZM14.75 7.5C14.8983 7.5 15.0433 7.54399 15.1667 7.6264C15.29 7.70881 15.3861 7.82594 15.4429 7.96299C15.4997 8.10003 15.5145 8.25083 15.4856 8.39632C15.4567 8.5418 15.3852 8.67544 15.2803 8.78033C15.1754 8.88522 15.0418 8.95665 14.8963 8.98559C14.7508 9.01453 14.6 8.99968 14.463 8.94291C14.3259 8.88615 14.2088 8.79002 14.1264 8.66668C14.044 8.54334 14 8.39834 14 8.25C14 8.05109 14.079 7.86032 14.2197 7.71967C14.3603 7.57902 14.5511 7.5 14.75 7.5Z"
      fill="currentColor"
    />
    <path
      d="M20 3H5C4.60218 3 4.22064 3.15804 3.93934 3.43934C3.65804 3.72064 3.5 4.10218 3.5 4.5V19.5C3.5 19.8978 3.65804 20.2794 3.93934 20.5607C4.22064 20.842 4.60218 21 5 21H20C20.3978 21 20.7794 20.842 21.0607 20.5607C21.342 20.2794 21.5 19.8978 21.5 19.5V4.5C21.5 4.10218 21.342 3.72064 21.0607 3.43934C20.7794 3.15804 20.3978 3 20 3ZM20 19.5H5V15L8.75 11.25L12.9425 15.4425C13.2235 15.7219 13.6037 15.8787 14 15.8787C14.3963 15.8787 14.7765 15.7219 15.0575 15.4425L16.25 14.25L20 18V19.5ZM20 15.8775L17.3075 13.185C17.0265 12.9056 16.6463 12.7488 16.25 12.7488C15.8537 12.7488 15.4735 12.9056 15.1925 13.185L14 14.3775L9.8075 10.185C9.52646 9.90562 9.14628 9.74881 8.75 9.74881C8.35372 9.74881 7.97354 9.90562 7.6925 10.185L5 12.8775V4.5H20V15.8775Z"
      fill="currentColor"
    />
  </g>
  <defs>
    <clipPath id="clip0_352_7508">
      <rect
        width="24"
        height="24"
        fill="currentColor"
        transform="translate(0.5)"
      />
    </clipPath>
  </defs>
</svg>
