<svg width="16" height="16" viewBox="0 0 16 16" fill="none" xmlns="http://www.w3.org/2000/svg">
<g id="ic-location-current--filled">
<path id="Vector" d="M2.00007 6.49178C1.99843 6.59311 2.02762 6.69254 2.08378 6.77691C2.13993 6.86127 2.2204 6.92658 2.31452 6.96418L7.11527 8.88463L9.03562 13.6856C9.07272 13.7784 9.1368 13.858 9.2196 13.9141C9.30239 13.9701 9.40008 14.0001 9.50007 14H9.50816C9.60941 13.9983 9.70777 13.966 9.79024 13.9072C9.8727 13.8485 9.93541 13.7661 9.97007 13.6709L13.9701 2.67057C14.0026 2.58112 14.009 2.48423 13.9884 2.39129C13.9678 2.29835 13.9211 2.21322 13.8538 2.14592C13.7864 2.07861 13.7013 2.03192 13.6083 2.01134C13.5154 1.99076 13.4185 1.99713 13.3291 2.02972L2.32907 6.02973C2.23392 6.06442 2.15154 6.12716 2.0928 6.20965C2.03406 6.29215 2.00173 6.39052 2.00007 6.49178Z" fill="#402020"/>
</g>
</svg>
