<svg
  width="25"
  height="24"
  viewBox="0 0 25 24"
  fill="none"
  xmlns="http://www.w3.org/2000/svg"
>
  <path
    d="M7.55398 21H3.77085V8.99707H7.55398V21ZM5.65979 7.33518C5.23066 7.33277 4.81186 7.20355 4.45625 6.96383C4.10064 6.72411 3.82415 6.38464 3.66168 5.98825C3.49921 5.59187 3.45804 5.15633 3.54337 4.73662C3.62869 4.31691 3.83669 3.93182 4.14111 3.62997C4.44553 3.32811 4.83273 3.12301 5.25383 3.04056C5.67494 2.9581 6.11109 3.00198 6.50723 3.16666C6.90337 3.33134 7.24176 3.60944 7.47967 3.96586C7.71759 4.32228 7.84438 4.74105 7.84404 5.16932C7.84809 5.45604 7.79426 5.74064 7.68574 6.00616C7.57723 6.27168 7.41626 6.51268 7.21243 6.71479C7.0086 6.9169 6.76609 7.07599 6.49934 7.18258C6.23259 7.28916 5.94707 7.34106 5.65979 7.33518ZM21.4983 21H17.7169V14.4484C17.7169 12.5162 16.8938 11.9198 15.8314 11.9198C14.7096 11.9198 13.6087 12.7638 13.6087 14.4972V21H9.8256V9.00579H13.4637V10.6677H13.5126C13.8778 9.93003 15.1569 8.66923 17.1088 8.66923C19.2196 8.66923 21.5 9.91957 21.5 13.5817L21.4983 21Z"
    fill="currentColor"
  />
</svg>
