<svg width="32" height="32" viewBox="0 0 32 32" fill="none" xmlns="http://www.w3.org/2000/svg">
<g id="ic-layers" clip-path="url(#clip0_3013_7012)">
<path id="Vector" d="M15.9995 23.9996C15.8339 23.9996 15.671 23.9584 15.5254 23.8796L2.52539 16.8796L3.47359 15.1196L15.9995 21.8639L28.5254 15.1196L29.4736 16.8803L16.4736 23.8803C16.3279 23.9588 16.165 23.9998 15.9995 23.9996Z" fill="#E8F5E9"/>
<path id="Vector_2" d="M15.9995 29.9996C15.8339 29.9996 15.671 29.9584 15.5254 29.8796L2.52539 22.8796L3.47359 21.1196L15.9995 27.8639L28.5254 21.1196L29.4736 22.8803L16.4736 29.8803C16.3279 29.9588 16.165 29.9998 15.9995 29.9996Z" fill="white"/>
<path id="Vector_3" d="M15.9998 18.0005C15.8342 18.0005 15.6713 17.9592 15.5257 17.8805L2.52568 10.8805C2.36675 10.7948 2.23397 10.6678 2.14142 10.5128C2.04887 10.3578 2 10.1806 2 10.0001C2 9.8196 2.04887 9.64244 2.14142 9.48744C2.23397 9.33245 2.36675 9.2054 2.52568 9.11977L15.5257 2.11977C15.6713 2.04116 15.8343 2 15.9998 2C16.1653 2 16.3282 2.04116 16.4739 2.11977L29.4739 9.11977C29.6328 9.2054 29.7656 9.33245 29.8581 9.48744C29.9507 9.64244 29.9995 9.8196 29.9995 10.0001C29.9995 10.1806 29.9507 10.3578 29.8581 10.5128C29.7656 10.6678 29.6328 10.7948 29.4739 10.8805L16.4739 17.8805C16.3283 17.9592 16.1653 18.0005 15.9998 18.0005ZM5.10918 10.0005L15.9998 15.8648L26.8904 10.0005L15.9998 4.13627L5.10918 10.0005Z" fill="white"/>
</g>
<defs>
<clipPath id="clip0_3013_7012">
<rect width="32" height="32" fill="white"/>
</clipPath>
</defs>
</svg>
