<svg
  width="25"
  height="24"
  viewBox="0 0 25 24"
  fill="none"
  xmlns="http://www.w3.org/2000/svg"
>
  <path
    d="M21.8012 4.73455L19.7654 2.69884C19.7024 2.63581 19.6277 2.5858 19.5453 2.55168C19.463 2.51756 19.3748 2.5 19.2857 2.5C19.1966 2.5 19.1083 2.51756 19.026 2.55168C18.9437 2.5858 18.8689 2.63581 18.8059 2.69884L14.9332 6.57144H13.2428C11.6955 6.57264 10.1867 7.05414 8.92471 7.94949C7.66275 8.84484 6.70987 10.1099 6.19761 11.5699L3.03803 20.5975C2.99587 20.718 2.9886 20.848 3.01704 20.9726C3.04549 21.0971 3.10851 21.211 3.19884 21.3013C3.28918 21.3916 3.40317 21.4546 3.5277 21.483C3.65223 21.5114 3.78225 21.5041 3.90281 21.4619L12.9304 18.3023C14.3904 17.79 15.6553 16.8371 16.5506 15.5751C17.4459 14.3132 17.9274 12.8044 17.9285 11.2572V9.56671L21.8012 5.69405C21.8642 5.63107 21.9142 5.55628 21.9483 5.47396C21.9824 5.39164 22 5.30341 22 5.2143C22 5.12519 21.9824 5.03695 21.9483 4.95464C21.9142 4.87232 21.8642 4.79753 21.8012 4.73455ZM16.7702 8.80596C16.6429 8.93319 16.5714 9.10576 16.5714 9.28571V11.2572C16.5704 12.5231 16.1764 13.7576 15.4438 14.7901C14.7113 15.8226 13.6763 16.6022 12.4817 17.0214L6.26072 19.1989L12.4999 12.9596L11.5404 12L5.30121 18.2393L7.47849 12.0182C7.89764 10.8237 8.67729 9.78865 9.7098 9.0561C10.7423 8.32355 11.9768 7.92958 13.2428 7.92857H15.2142C15.3942 7.92854 15.5668 7.85702 15.694 7.72975L19.2857 4.13816L20.3618 5.2143L16.7702 8.80596Z"
    fill="currentColor"
  />
</svg>
