<svg
  width="25"
  height="24"
  viewBox="0 0 25 24"
  fill="none"
  xmlns="http://www.w3.org/2000/svg"
>
  <path
    d="M20.0614 5.27564C19.9291 5.14255 19.7717 5.03703 19.5983 4.9652C19.4249 4.89336 19.239 4.85663 19.0514 4.85714H13.2143V2H11.7857V9.14286H5.94864C5.76098 9.14235 5.57508 9.17907 5.40171 9.25091C5.22834 9.32275 5.07095 9.42827 4.93864 9.56136L2.5 12L4.93864 14.4386C5.07095 14.5717 5.22834 14.6773 5.40171 14.7491C5.57508 14.8209 5.76098 14.8577 5.94864 14.8571H11.7857V22H13.2143V10.5714H19.0514C19.239 10.5719 19.4249 10.5352 19.5983 10.4634C19.7717 10.3915 19.9291 10.286 20.0614 10.1529L22.5 7.71429L20.0614 5.27564ZM5.94864 13.4286L4.52007 12L5.94864 10.5714H11.7857V13.4286H5.94864ZM19.0514 9.14286H13.2143V6.28571H19.0514L20.4799 7.71429L19.0514 9.14286Z"
    fill="currentColor"
  />
</svg>
