<svg
  width="24"
  height="24"
  viewBox="0 0 24 24"
  fill="none"
  xmlns="http://www.w3.org/2000/svg"
>
  <g id="ic-nighttime" clip-path="url(#clip0_3063_6900)">
    <path
      id="Vector"
      d="M10.2338 4.67096C9.90892 6.02596 9.86472 7.43076 10.1038 8.8027C10.3428 10.1746 10.8603 11.486 11.6258 12.6597C12.3912 13.8333 13.3892 14.8456 14.561 15.6369C15.7328 16.4281 17.0548 16.9825 18.4491 17.2672C17.716 18.0082 16.838 18.5977 15.8672 19.0007C14.8965 19.4038 13.8527 19.6122 12.798 19.6137C12.6998 19.6137 12.6008 19.6172 12.5019 19.6137C10.6656 19.5502 8.91015 18.8603 7.54032 17.6639C6.17048 16.4675 5.27285 14.8401 5.00332 13.0644C4.73379 11.2887 5.10939 9.47687 6.06488 7.94355C7.02037 6.41024 8.4954 5.25234 10.2338 4.67096ZM11.2807 3C11.2393 3.00006 11.1979 3.00368 11.157 3.0108C8.90063 3.40236 6.87234 4.59578 5.46282 6.36119C4.05331 8.12661 3.36227 10.3391 3.52281 12.5726C3.68336 14.8061 4.68412 16.9026 6.33235 18.4582C7.98059 20.0138 10.1597 20.9185 12.45 20.9982C12.5662 21.0023 12.6825 20.9982 12.7978 20.9982C14.2851 20.9989 15.7506 20.6498 17.0706 19.9804C18.3906 19.3109 19.5262 18.3408 20.3814 17.152C20.4507 17.0495 20.4912 16.931 20.4987 16.8084C20.5062 16.6859 20.4806 16.5635 20.4243 16.4537C20.368 16.3439 20.2831 16.2505 20.1781 16.1829C20.0732 16.1154 19.9518 16.0761 19.8263 16.0689C18.4106 15.9476 17.0425 15.5098 15.8276 14.7895C14.6127 14.0692 13.5836 13.0856 12.8199 11.9147C12.0562 10.7438 11.5783 9.41703 11.4231 8.03692C11.2679 6.6568 11.4397 5.26031 11.925 3.95539C11.9663 3.85098 11.9815 3.73845 11.9692 3.62716C11.957 3.51587 11.9178 3.40905 11.8547 3.31558C11.7917 3.22212 11.7067 3.14472 11.6069 3.08982C11.507 3.03493 11.3952 3.00413 11.2807 3Z"
      fill="#F9F0EC"
    />
  </g>
  <defs>
    <clipPath id="clip0_3063_6900">
      <rect width="24" height="24" fill="currentColor" />
    </clipPath>
  </defs>
</svg>
