<svg
  width="25"
  height="24"
  viewBox="0 0 25 24"
  fill="none"
  xmlns="http://www.w3.org/2000/svg"
>
  <g clip-path="url(#clip0_194_8767)">
    <path
      d="M15.5841 15.8978L17.1771 14.3042C17.3917 14.0922 17.6632 13.9471 17.9586 13.8864C18.254 13.8258 18.5606 13.8523 18.8413 13.9627L20.7828 14.7381C21.0664 14.8533 21.3096 15.0499 21.4817 15.3031C21.6539 15.5563 21.7472 15.8549 21.75 16.1611V19.7184C21.7483 19.9267 21.7046 20.1325 21.6213 20.3234C21.5381 20.5143 21.4171 20.6865 21.2656 20.8294C21.1141 20.9723 20.9352 21.083 20.7398 21.155C20.5444 21.2269 20.3365 21.2586 20.1285 21.248C6.52376 20.4014 3.77863 8.87571 3.25947 4.46465C3.23537 4.24804 3.25739 4.02877 3.32408 3.82128C3.39077 3.61379 3.50062 3.42278 3.6464 3.26081C3.79218 3.09884 3.97059 2.96959 4.16989 2.88155C4.36919 2.79352 4.58486 2.74869 4.80272 2.75003H8.23769C8.54421 2.75094 8.84345 2.84356 9.09693 3.01599C9.3504 3.18843 9.54651 3.43278 9.66004 3.71762L10.4352 5.6599C10.5492 5.93956 10.5783 6.2466 10.5188 6.54269C10.4594 6.83878 10.314 7.11078 10.101 7.32472L8.50794 8.9184C8.50794 8.9184 9.42535 15.1294 15.5841 15.8978Z"
      fill="currentColor"
    />
  </g>
  <defs>
    <clipPath id="clip0_194_8767">
      <rect
        width="24"
        height="24"
        fill="currentColor"
        transform="translate(0.5)"
      />
    </clipPath>
  </defs>
</svg>
