<svg
  width="25"
  height="24"
  viewBox="0 0 25 24"
  fill="none"
  xmlns="http://www.w3.org/2000/svg"
>
  <path
    d="M20.032 5.5012L22 3.53338L20.9666 2.5L18.9988 4.46789L18.2 3.66923C18.0681 3.53063 17.9094 3.42028 17.7335 3.34488C17.5576 3.26947 17.3683 3.23059 17.1769 3.23059C16.9856 3.23059 16.7962 3.26947 16.6204 3.34488C16.4445 3.42028 16.2858 3.53063 16.1538 3.66923L3 16.8231V21.5H7.67692L20.8308 8.34615C20.9694 8.21422 21.0797 8.05551 21.1551 7.87964C21.2305 7.70378 21.2694 7.51442 21.2694 7.32308C21.2694 7.13173 21.2305 6.94238 21.1551 6.76651C21.0797 6.59064 20.9694 6.43193 20.8308 6.3L20.032 5.5012Z"
    fill="currentColor"
  />
  <path
    d="M12.1978 3.96035L6.6543 9.50391L7.68766 10.5373L13.2312 4.99371L12.1978 3.96035Z"
    fill="currentColor"
  />
</svg>
