<svg width="26" height="10" viewBox="0 0 26 10" fill="none" xmlns="http://www.w3.org/2000/svg">
<g id="ic-pdf">
<g id="ic-pdf_2">
<path d="M20.6679 4.5329H25.4125V5.66319H20.6679V4.5329ZM20.7993 9.38262H19.485V0.182617H25.9776V1.32605H20.7993V9.38262Z" fill="white"/>
<path d="M9.00265 9.38262V0.182617H12.8798C13.8611 0.182617 14.7242 0.375379 15.4689 0.760903C16.2225 1.14643 16.8051 1.68528 17.2169 2.37747C17.6375 3.06966 17.8478 3.87138 17.8478 4.78262C17.8478 5.69385 17.6375 6.49557 17.2169 7.18776C16.8051 7.87995 16.2225 8.41881 15.4689 8.80433C14.7242 9.18985 13.8611 9.38262 12.8798 9.38262H9.00265ZM10.3169 8.23919H12.8009C13.5632 8.23919 14.2204 8.09462 14.7724 7.80547C15.3331 7.51633 15.7668 7.11328 16.0735 6.59633C16.3802 6.07062 16.5335 5.46604 16.5335 4.78262C16.5335 4.09043 16.3802 3.48585 16.0735 2.9689C15.7668 2.45195 15.3331 2.0489 14.7724 1.75976C14.2204 1.47062 13.5632 1.32605 12.8009 1.32605H10.3169V8.23919Z" fill="white"/>
<path d="M0.0214844 9.38262V0.182617H3.60948C4.41558 0.182617 5.10339 0.309665 5.67291 0.563761C6.24244 0.817856 6.68053 1.18586 6.9872 1.66776C7.29386 2.14966 7.4472 2.72357 7.4472 3.38947C7.4472 4.05538 7.29386 4.62928 6.9872 5.11119C6.68053 5.58433 6.24244 5.95233 5.67291 6.21519C5.10339 6.46928 4.41558 6.59633 3.60948 6.59633H0.744342L1.33577 5.97862V9.38262H0.0214844ZM1.33577 6.11005L0.744342 5.4529H3.57006C4.4112 5.4529 5.04644 5.27328 5.47577 4.91405C5.91387 4.55481 6.13291 4.04662 6.13291 3.38947C6.13291 2.73233 5.91387 2.22414 5.47577 1.8649C5.04644 1.50566 4.4112 1.32605 3.57006 1.32605H0.744342L1.33577 0.668903V6.11005Z" fill="white"/>
</g>
</g>
</svg>
