<svg
  width="25"
  height="24"
  viewBox="0 0 25 24"
  fill="none"
  xmlns="http://www.w3.org/2000/svg"
>
  <path
    d="M18.2144 12.709L19.5801 15.3319L22.5001 15.7527L20.3573 17.6673L20.908 20.5007L18.2144 18.9069L15.5209 20.5007L16.0716 17.6673L13.9287 15.7527L16.9287 15.3319L18.2144 12.709Z"
    fill="currentColor"
  />
  <path d="M9.64314 12H5.35742V13.4167H9.64314V12Z" fill="currentColor" />
  <path
    d="M12.5003 9.16797H5.35742V10.5846H12.5003V9.16797Z"
    fill="currentColor"
  />
  <path
    d="M12.5003 6.33398H5.35742V7.75065H12.5003V6.33398Z"
    fill="currentColor"
  />
  <path
    d="M12.5 19.0833H3.92857V4.91667H21.0714V12H22.5V4.91667C22.5 4.54094 22.3495 4.18061 22.0816 3.91493C21.8137 3.64926 21.4503 3.5 21.0714 3.5H3.92857C3.54969 3.5 3.18633 3.64926 2.91842 3.91493C2.65051 4.18061 2.5 4.54094 2.5 4.91667V19.0833C2.5 19.4591 2.65051 19.8194 2.91842 20.0851C3.18633 20.3507 3.54969 20.5 3.92857 20.5H12.5V19.0833Z"
    fill="currentColor"
  />
</svg>
