<svg
  width="24"
  height="24"
  viewBox="0 0 24 24"
  fill="none"
  xmlns="http://www.w3.org/2000/svg"
>
  <path d="M22.4989 17.7539H1.5V19.2539H22.4989V17.7539Z" fill="#F9F0EC" />
  <path
    d="M12 12.5039C12.7954 12.5048 13.5579 12.8212 14.1203 13.3836C14.6827 13.946 14.9991 14.7085 15 15.5039H16.5C16.5 14.3104 16.0259 13.1658 15.182 12.3219C14.3381 11.478 13.1935 11.0039 12 11.0039C10.8065 11.0039 9.66193 11.478 8.81802 12.3219C7.97411 13.1658 7.5 14.3104 7.5 15.5039H9C9.00089 14.7085 9.31725 13.946 9.87967 13.3836C10.4421 12.8212 11.2046 12.5048 12 12.5039Z"
    fill="currentColor"
  />
  <path d="M22.5 14.0039H18.75V15.5039H22.5V14.0039Z" fill="currentColor" />
  <path
    d="M18.895 7.54836L16.2656 10.1777L17.3262 11.2383L19.9556 8.60891L18.895 7.54836Z"
    fill="currentColor"
  />
  <path
    d="M5.10743 7.54882L4.04688 8.60938L6.67625 11.2388L7.73681 10.1782L5.10743 7.54882Z"
    fill="currentColor"
  />
  <path d="M5.25 14.0039H1.5V15.5039H5.25V14.0039Z" fill="currentColor" />
  <path d="M12.75 5H11.25V8.72H12.75V5Z" fill="currentColor" />
</svg>
