<svg
  width="25"
  height="24"
  viewBox="0 0 25 24"
  fill="none"
  xmlns="http://www.w3.org/2000/svg"
>
  <path
    d="M20.2556 10.6371V1.875H16.6349V3.32328H18.8074V4.77155H16.6349V6.21983H18.8074V10.6371C17.5763 10.9267 16.6349 12.0853 16.6349 13.4612C16.6349 15.0543 17.9384 16.3578 19.5315 16.3578C21.1246 16.3578 22.428 15.0543 22.428 13.4612C22.428 12.0853 21.4867 10.9991 20.2556 10.6371ZM19.5315 14.9095C18.7349 14.9095 18.0832 14.2578 18.0832 13.4612C18.0832 12.6647 18.7349 12.0129 19.5315 12.0129C20.328 12.0129 20.9798 12.6647 20.9798 13.4612C20.9798 14.2578 20.328 14.9095 19.5315 14.9095Z"
    fill="currentColor"
  />
  <path
    d="M12.2897 22.875L8.30698 20.5578C5.84491 19.1095 4.32422 16.5026 4.32422 13.6784V3.32328C4.32422 2.52672 4.97594 1.875 5.77249 1.875H14.4622V3.32328H5.77249V13.6784C5.77249 15.9957 7.00353 18.1681 9.03112 19.3267L12.2897 21.2819L15.5484 19.3267C16.3449 18.8198 17.069 18.2405 17.5759 17.444L18.7346 18.2405C18.0828 19.1819 17.2139 19.9784 16.2001 20.5578L12.2897 22.875Z"
    fill="currentColor"
  />
</svg>
