<svg
  width="25"
  height="24"
  viewBox="0 0 25 24"
  fill="none"
  xmlns="http://www.w3.org/2000/svg"
>
  <path d="M10 12H5.5V13.5H10V12Z" fill="currentColor" />
  <path d="M13 9H5.5V10.5H13V9Z" fill="currentColor" />
  <path d="M13 6H5.5V7.5H13V6Z" fill="currentColor" />
  <path
    d="M11.5 19.5H4V4.5H22V12H23.5V4.5C23.5 4.10218 23.342 3.72064 23.0607 3.43934C22.7794 3.15804 22.3978 3 22 3H4C3.60218 3 3.22064 3.15804 2.93934 3.43934C2.65804 3.72064 2.5 4.10218 2.5 4.5V19.5C2.5 19.8978 2.65804 20.2794 2.93934 20.5607C3.22064 20.842 3.60218 21 4 21H11.5V19.5Z"
    fill="currentColor"
  />
  <path
    d="M17.5 19.1925L15.5575 17.25L14.5 18.3075L17.5 21.3075L23.5 15.3075L22.4425 14.25L17.5 19.1925Z"
    fill="currentColor"
  />
</svg>
