<svg width="33" height="32" viewBox="0 0 33 32" fill="none" xmlns="http://www.w3.org/2000/svg">
<g id="ic-const-seismic-isolator">
<g id="Vector">
<path d="M16.6616 29.9996C16.4961 29.9996 16.3331 29.9584 16.1875 29.8796L3.1875 22.8796L4.1357 21.1196L16.6616 27.8639L29.1875 21.1196L30.1357 22.8803L17.1357 29.8803C16.99 29.9588 16.8271 29.9998 16.6616 29.9996Z" fill="#E3F2FD"/>
<path d="M16.6599 18.0005C16.4944 18.0005 16.3314 17.9592 16.1858 17.8805L3.18583 10.8805C3.02691 10.7948 2.89413 10.6678 2.80157 10.5128C2.70902 10.3578 2.66016 10.1806 2.66016 10.0001C2.66016 9.8196 2.70902 9.64244 2.80157 9.48744C2.89413 9.33245 3.02691 9.2054 3.18583 9.11977L16.1858 2.11977C16.3315 2.04116 16.4944 2 16.6599 2C16.8255 2 16.9884 2.04116 17.134 2.11977L30.134 9.11977C30.293 9.2054 30.4257 9.33245 30.5183 9.48744C30.6108 9.64244 30.6597 9.8196 30.6597 10.0001C30.6597 10.1806 30.6108 10.3578 30.5183 10.5128C30.4257 10.6678 30.293 10.7948 30.134 10.8805L17.134 17.8805C16.9884 17.9592 16.8255 18.0005 16.6599 18.0005ZM5.76933 10.0005L16.6599 15.8648L27.5505 10.0005L16.6599 4.13627L5.76933 10.0005Z" fill="#E3F2FD"/>
<path fill-rule="evenodd" clip-rule="evenodd" d="M16.7409 20.996C19.7864 20.988 22.9375 19.2106 28.0437 15.2126L29.2766 16.7874C24.218 20.7481 20.5628 22.986 16.7462 22.996C12.9308 23.006 9.21973 20.7892 4.0485 16.7911L5.27181 15.2089C10.4877 19.2415 13.6942 21.004 16.7409 20.996Z" fill="#E3F2FD"/>
</g>
</g>
</svg>
