<svg
  width="25"
  height="24"
  viewBox="0 0 25 24"
  fill="none"
  xmlns="http://www.w3.org/2000/svg"
>
  <path
    d="M19.2498 9.97539C19.9656 9.97459 20.6519 9.68986 21.1581 9.18369C21.6643 8.67752 21.949 7.99123 21.9498 7.27539V5.25039H19.9248C19.2337 5.25152 18.5696 5.519 18.0707 5.99721C17.7211 5.36266 17.2077 4.83345 16.584 4.46467C15.9604 4.09589 15.2493 3.90104 14.5248 3.90039H12.4998V5.92539C12.501 6.99916 12.9281 8.0286 13.6873 8.78787C14.4466 9.54714 15.476 9.97421 16.5498 9.97539H17.2248V18.7504H9.1248V15.3754H9.7998C10.5156 15.3746 11.2019 15.0899 11.7081 14.5837C12.2143 14.0775 12.499 13.3912 12.4998 12.6754V10.6504H10.4748C9.78371 10.6515 9.11964 10.919 8.62071 11.3972C8.27105 10.7627 7.75768 10.2334 7.13404 9.86467C6.51041 9.4959 5.79932 9.30104 5.0748 9.30039H3.0498V11.3254C3.05098 12.3992 3.47806 13.4286 4.23732 14.1879C4.99659 14.9471 6.02604 15.3742 7.0998 15.3754H7.7748V18.7504H3.0498V20.1004H21.9498V18.7504H18.5748V9.97539H19.2498ZM18.5748 7.95039C18.5752 7.59246 18.7175 7.24929 18.9706 6.99619C19.2237 6.74309 19.5669 6.60075 19.9248 6.60039H20.5998V7.27539C20.5994 7.63332 20.4571 7.97649 20.204 8.22959C19.9509 8.48269 19.6077 8.62503 19.2498 8.62539H18.5748V7.95039ZM9.1248 13.3504C9.12516 12.9925 9.26751 12.6493 9.52061 12.3962C9.7737 12.1431 10.1169 12.0007 10.4748 12.0004H11.1498V12.6754C11.1494 13.0333 11.0071 13.3765 10.754 13.6296C10.5009 13.8827 10.1577 14.025 9.7998 14.0254H9.1248V13.3504ZM7.7748 14.0254H7.0998C6.38397 14.0246 5.69768 13.7399 5.1915 13.2337C4.68533 12.7275 4.40061 12.0412 4.3998 11.3254V10.6504H5.0748C5.79064 10.6512 6.47693 10.9359 6.98311 11.4421C7.48928 11.9483 7.774 12.6346 7.7748 13.3504V14.0254ZM17.2248 8.62539H16.5498C15.834 8.62459 15.1477 8.33986 14.6415 7.83369C14.1353 7.32752 13.8506 6.64123 13.8498 5.92539V5.25039H14.5248C15.2406 5.25119 15.9269 5.53592 16.4331 6.04209C16.9393 6.54826 17.224 7.23455 17.2248 7.95039V8.62539Z"
    fill="currentColor"
  />
</svg>
