<svg
  width="25"
  height="24"
  viewBox="0 0 25 24"
  fill="none"
  xmlns="http://www.w3.org/2000/svg"
>
  <path
    d="M21.9927 8.39363L20.6366 4.32528C20.5894 4.18494 20.4976 4.06389 20.3751 3.98064C20.2527 3.89738 20.1064 3.85649 19.9585 3.8642H5.04147C4.89361 3.85649 4.74729 3.89738 4.62485 3.98064C4.50242 4.06389 4.4106 4.18494 4.36342 4.32528L3.00733 8.39363C2.99756 8.46563 2.99756 8.53861 3.00733 8.61061V12.679C3.00733 12.8588 3.07876 13.0313 3.20592 13.1584C3.33308 13.2856 3.50555 13.357 3.68537 13.357H4.36342V20.1376H5.71952V13.357H9.78781V20.1376H20.6366V13.357H21.3146C21.4945 13.357 21.6669 13.2856 21.7941 13.1584C21.9212 13.0313 21.9927 12.8588 21.9927 12.679V8.61061C22.0024 8.53861 22.0024 8.46563 21.9927 8.39363ZM19.2805 18.7815H11.1439V13.357H19.2805V18.7815ZM20.6366 12.0009H17.9244V9.28867H16.5683V12.0009H13.178V9.28867H11.822V12.0009H8.43171V9.28867H7.07562V12.0009H4.36342V8.7191L5.52967 5.22032H19.4703L20.6366 8.7191V12.0009Z"
    fill="currentColor"
  />
</svg>
