<svg
  width="25"
  height="24"
  viewBox="0 0 25 24"
  fill="none"
  xmlns="http://www.w3.org/2000/svg"
>
  <path
    d="M3.5 21L4.7722 16.3802C3.98567 15.0242 3.57307 13.4886 3.57736 11.9187C3.57736 6.99953 7.60028 3 12.5387 3C14.937 3 17.1891 3.92823 18.8782 5.61359C20.5716 7.29895 21.5043 9.5404 21.5 11.923C21.5 16.8422 17.4771 20.8417 12.5344 20.8417H12.5301C11.0301 20.8417 9.55587 20.4653 8.24498 19.7552L3.5 21ZM8.47277 18.1426L8.74355 18.3051C9.88681 18.981 11.1977 19.336 12.5344 19.3403H12.5387C16.6433 19.3403 19.9871 16.0166 19.9871 11.9273C19.9871 9.94677 19.2135 8.08603 17.808 6.68299C16.4026 5.27994 14.5286 4.50998 12.5387 4.50998C8.43409 4.5057 5.09026 7.82937 5.09026 11.9187C5.09026 13.3175 5.48137 14.682 6.22922 15.8626L6.40544 16.145L5.65329 18.8783L8.47277 18.1426Z"
    fill="currentColor"
  />
  <path
    d="M3.5 21L4.7722 16.3802C3.98567 15.0242 3.57307 13.4886 3.57736 11.9187C3.57736 6.99953 7.60028 3 12.5387 3C14.937 3 17.1891 3.92823 18.8782 5.61359C20.5716 7.29895 21.5043 9.5404 21.5 11.923C21.5 16.8422 17.4771 20.8417 12.5344 20.8417H12.5301C11.0301 20.8417 9.55587 20.4653 8.24498 19.7552L3.5 21ZM8.47277 18.1426L8.74355 18.3051C9.88681 18.981 11.1977 19.336 12.5344 19.3403H12.5387C16.6433 19.3403 19.9871 16.0166 19.9871 11.9273C19.9871 9.94677 19.2135 8.08603 17.808 6.68299C16.4026 5.27994 14.5286 4.50998 12.5387 4.50998C8.43409 4.5057 5.09026 7.82937 5.09026 11.9187C5.09026 13.3175 5.48137 14.682 6.22922 15.8626L6.40544 16.145L5.65329 18.8783L8.47277 18.1426Z"
    fill="currentColor"
  />
  <path
    fill-rule="evenodd"
    clip-rule="evenodd"
    d="M10.2996 8.18809C10.132 7.81594 9.95578 7.80738 9.79676 7.80311C9.66782 7.79883 9.51739 7.79883 9.36696 7.79883C9.21653 7.79883 8.97584 7.85444 8.76954 8.07687C8.56324 8.2993 7.9873 8.83828 7.9873 9.93761C7.9873 11.0327 8.79103 12.0935 8.90278 12.2432C9.01452 12.3929 10.4544 14.7157 12.728 15.6097C14.6191 16.354 15.0059 16.2042 15.4142 16.1657C15.8225 16.1272 16.738 15.6268 16.9271 15.1049C17.1119 14.583 17.1119 14.1382 17.0561 14.0441C17.0002 13.95 16.8498 13.8944 16.6263 13.7831C16.4028 13.6719 15.3025 13.133 15.0962 13.056C14.8899 12.9832 14.7394 12.9447 14.5933 13.1672C14.4429 13.3896 14.0131 13.8901 13.8841 14.0398C13.7552 14.1895 13.622 14.2066 13.3985 14.0954C13.175 13.9842 12.4529 13.7489 11.5976 12.9875C10.9314 12.3972 10.4801 11.6657 10.3512 11.4433C10.2223 11.2209 10.3383 11.1011 10.4501 10.9899C10.5489 10.8915 10.6735 10.729 10.7853 10.6006C10.897 10.4723 10.9357 10.3782 11.0088 10.2285C11.0819 10.0788 11.0475 9.95044 10.9916 9.83923C10.9357 9.73229 10.4973 8.62868 10.2996 8.18809Z"
    fill="currentColor"
  />
</svg>
