<svg
  width="17"
  height="18"
  viewBox="0 0 17 18"
  fill="none"
  xmlns="http://www.w3.org/2000/svg"
>
  <g id="ic-web" clip-path="url(#clip0_2333_8025)">
    <path
      id="Vector"
      d="M8.16732 1.85352C6.75401 1.85352 5.37243 2.27261 4.19731 3.05781C3.02218 3.843 2.10628 4.95903 1.56543 6.26476C1.02458 7.57049 0.883069 9.00728 1.15879 10.3934C1.43452 11.7796 2.11509 13.0529 3.11445 14.0522C4.11382 15.0516 5.38708 15.7322 6.77324 16.0079C8.15939 16.2836 9.59618 16.1421 10.9019 15.6012C12.2076 15.0604 13.3237 14.1445 14.1089 12.9694C14.8941 11.7942 15.3132 10.4127 15.3132 8.99935C15.3132 7.10416 14.5603 5.28659 13.2202 3.94648C11.8801 2.60638 10.0625 1.85352 8.16732 1.85352ZM14.2923 8.48893H11.2298C11.1702 6.60911 10.6832 4.76756 9.80576 3.10404C11.0147 3.43473 12.0931 4.12836 12.8954 5.0913C13.6977 6.05424 14.1853 7.24014 14.2923 8.48893ZM8.16732 15.1243C8.05346 15.132 7.93921 15.132 7.82534 15.1243C6.7679 13.438 6.18104 11.4994 6.12565 9.50977H10.209C10.1582 11.498 9.57666 13.4365 8.52461 15.1243C8.40566 15.1327 8.28627 15.1327 8.16732 15.1243ZM6.12565 8.48893C6.17643 6.50069 6.75798 4.56221 7.81003 2.87435C8.0373 2.84881 8.26672 2.84881 8.49399 2.87435C9.55682 4.55913 10.149 6.49783 10.209 8.48893H6.12565ZM6.51357 3.10404C5.64142 4.76883 5.15967 6.61032 5.10482 8.48893H2.04232C2.14936 7.24014 2.63693 6.05424 3.43922 5.0913C4.24152 4.12836 5.31993 3.43473 6.52888 3.10404H6.51357ZM2.06784 9.50977H5.13034C5.18361 11.388 5.66361 13.2294 6.53399 14.8947C5.32882 14.5604 4.25486 13.8652 3.45646 12.9026C2.65805 11.9399 2.17347 10.756 2.06784 9.50977ZM9.80576 14.8947C10.6832 13.2311 11.1702 11.3896 11.2298 9.50977H14.2923C14.1853 10.7586 13.6977 11.9445 12.8954 12.9074C12.0931 13.8703 11.0147 14.564 9.80576 14.8947Z"
      fill="#CF8644"
    />
  </g>
  <defs>
    <clipPath id="clip0_2333_8025">
      <rect
        width="16.3333"
        height="16.3333"
        fill="white"
        transform="translate(0 0.833008)"
      />
    </clipPath>
  </defs>
</svg>
