<svg width="32" height="32" viewBox="0 0 32 32" fill="none" xmlns="http://www.w3.org/2000/svg">
<g id="ic-water">
<path id="Vector" d="M16 24V22C16.7732 21.9331 17.498 21.5955 18.0468 21.0468C18.5955 20.498 18.9331 19.7732 19 19H21C20.9354 20.3052 20.3879 21.5398 19.4638 22.4638C18.5398 23.3879 17.3052 23.9354 16 24Z" fill="#E8F5E9"/>
<path id="Vector_2" d="M16 28.0001C13.614 27.9971 11.3265 27.0479 9.63937 25.3607C7.9522 23.6736 7.00302 21.3861 7 19.0001C7.0538 17.2457 7.56914 15.5365 8.4941 14.0447L15.1528 3.4368C15.249 3.30173 15.376 3.19161 15.5234 3.11563C15.6708 3.03964 15.8342 3 16 3C16.1658 3 16.3292 3.03964 16.4766 3.11563C16.624 3.19161 16.751 3.30173 16.8472 3.4368L23.4761 13.9932C24.4168 15.4986 24.9425 17.2259 25 19.0001C24.997 21.3861 24.0478 23.6736 22.3606 25.3607C20.6735 27.0479 18.386 27.9971 16 28.0001ZM16 5.8484L10.2183 15.0563C9.47323 16.2412 9.05306 17.6014 9 19.0001C9 20.8566 9.7375 22.6371 11.0503 23.9498C12.363 25.2626 14.1435 26.0001 16 26.0001C17.8565 26.0001 19.637 25.2626 20.9497 23.9498C22.2625 22.6371 23 20.8566 23 19.0001C22.943 17.5817 22.5125 16.2035 21.752 15.0048L16 5.8484Z" fill="#E8F5E9"/>
</g>
</svg>
