<svg
  width="32"
  height="32"
  viewBox="0 0 32 32"
  fill="none"
  xmlns="http://www.w3.org/2000/svg"
>
  <g id="ic-youtube">
    <path
      id="Vector"
      fill-rule="evenodd"
      clip-rule="evenodd"
      d="M24.2044 8.90375C25.108 9.1517 25.8196 9.88228 26.0611 10.8101C26.5 12.4916 26.5 16 26.5 16C26.5 16 26.5 19.5083 26.0611 21.1899C25.8196 22.1177 25.108 22.8483 24.2044 23.0964C22.5669 23.5469 16 23.5469 16 23.5469C16 23.5469 9.43309 23.5469 7.79544 23.0964C6.89185 22.8483 6.18023 22.1177 5.93873 21.1899C5.5 19.5083 5.5 16 5.5 16C5.5 16 5.5 12.4916 5.93873 10.8101C6.18023 9.88228 6.89185 9.1517 7.79544 8.90375C9.43309 8.45312 16 8.45312 16 8.45312C16 8.45312 22.5669 8.45312 24.2044 8.90375ZM14.0312 13.0469V19.6094L19.2812 16.3283L14.0312 13.0469Z"
      fill="currentColor"
    />
  </g>
</svg>
