<svg
  width="38"
  height="32"
  viewBox="0 0 38 32"
  fill="none"
  xmlns="http://www.w3.org/2000/svg"
>
  <g id="logomark-iso">
    <path
      id="Vector"
      d="M8.79761 12.3139V8.88745H0V12.3139H2.01838V19.6432H0V23.0697H8.79761V19.6432H6.77923V12.3139H8.79761Z"
      fill="currentColor"
    />
    <path
      id="Vector_2"
      d="M18.5063 14.3291C17.9625 14.1683 15.1646 13.3542 14.6801 13.1934C14.1957 13.0326 13.8002 12.8015 13.8002 12.51C13.8002 12.2185 14.2451 11.907 15.1448 11.907C17.9823 11.907 19.3454 13.6859 19.3454 13.6859C19.3454 13.6859 19.499 13.8939 19.5504 13.9685H22.288V9.11523H19.3492V9.9982C19.1247 9.84061 17.4675 8.74121 14.8976 8.74121C11.5065 8.74121 9.61816 10.5301 9.61816 13.2035C9.61816 15.8768 12.0008 16.9823 12.6632 17.2637C13.3257 17.5451 15.916 18.2888 17.0233 18.6406C18.1306 18.9923 18.5359 19.2436 18.5359 19.4245C18.5359 19.6054 18.0515 20.0777 16.6673 20.0777C14.2563 20.0777 13.0147 18.6324 12.7968 18.3526V18.3504C12.7276 18.256 12.6462 18.1443 12.6186 18.1023C12.5867 18.0536 12.5126 17.9457 12.4612 17.871H9.72359V23.0538H12.7968V21.9715C13.1544 22.2134 14.9849 23.3742 17.1814 23.3742C19.6333 23.3742 22.7575 22.2887 22.7575 18.9019C22.7575 15.515 19.05 14.4899 18.5063 14.3291Z"
      fill="currentColor"
    />
    <path
      id="Vector_3"
      d="M30.5608 8.69385C26.4734 8.69385 23.1211 10.7712 23.1211 16.0742C23.1211 21.3772 26.7602 23.3635 30.5786 23.3635C34.397 23.3635 38.0003 21.3954 38.0003 16.129C38.0003 10.8626 34.3972 8.69385 30.5608 8.69385ZM30.5967 19.8282C29.1983 19.8282 28.3019 19.5002 28.3019 16.0561C28.3019 12.6119 28.9653 12.2474 30.6504 12.2474C31.6722 12.2474 32.9092 12.3202 32.9092 15.9467C32.9092 19.5732 31.995 19.8282 30.5967 19.8282Z"
      fill="currentColor"
    />
    <g id="Group">
      <path
        id="Vector_4"
        d="M5.86101 7.32347C6.77984 5.94427 7.90976 4.7217 9.20507 3.7064C9.72882 4.10004 10.2856 4.4571 10.8709 4.77533C9.89025 5.88647 9.01169 7.11748 8.86616 7.32347H9.45453C9.80768 6.83962 10.5382 5.86628 11.3085 5.00334C12.1504 5.42408 13.0452 5.7682 13.9788 6.0303C13.7303 6.56625 13.5425 7.03491 13.4322 7.32347H13.9434C14.0608 7.02631 14.2329 6.61184 14.4477 6.15388C15.6387 6.44967 16.8866 6.61546 18.1632 6.64071V7.32355H18.6378V6.64304C19.9051 6.63363 21.1462 6.48682 22.3329 6.21096C22.5353 6.64601 22.6981 7.03877 22.8107 7.32347H23.3219C23.2159 7.04633 23.0385 6.60332 22.8043 6.09366C23.7547 5.84233 24.6665 5.50722 25.5253 5.09307C26.2661 5.9331 26.9586 6.85642 27.2996 7.32347H27.8879C27.7469 7.12383 26.9138 5.95617 25.9671 4.87084C26.618 4.5289 27.2351 4.13984 27.8119 3.7064C29.1072 4.7217 30.2372 5.94427 31.1559 7.32347H31.7268C28.9199 2.91984 24.0435 0 18.5084 0C12.9733 0 8.0969 2.91984 5.29004 7.32347H5.86101ZM14.1905 5.58914C13.3025 5.34529 12.4504 5.02561 11.6472 4.63454C11.7563 4.51925 11.8654 4.40757 11.9732 4.30185C13.0731 3.22359 14.8823 2.03961 15.2789 1.78474C15.6007 1.96443 15.9519 2.11639 16.3254 2.23699C16.0353 2.62372 15.4657 3.40875 14.8454 4.40452C14.6039 4.79205 14.3839 5.19936 14.1905 5.58914ZM18.1632 6.15814C16.9613 6.1337 15.7862 5.98158 14.6629 5.71079C14.8386 5.36169 15.0346 5.00246 15.2463 4.66268C15.961 3.51561 16.6057 2.65435 16.8206 2.37416C17.2492 2.47651 17.6996 2.54123 18.1632 2.56237V6.15814ZM18.6378 6.16055V2.56784C19.0952 2.55996 19.5427 2.51076 19.971 2.4232C20.2165 2.74601 20.8309 3.57607 21.5079 4.66268C21.7306 5.02023 21.936 5.39924 22.1186 5.76546C20.9993 6.01712 19.8309 6.15155 18.6378 6.16055ZM22.5944 5.65121C22.3937 5.24278 22.163 4.81263 21.9087 4.40452C21.3204 3.46013 20.7775 2.70517 20.4756 2.29978C20.8729 2.18634 21.248 2.03888 21.5923 1.86047C22.1491 2.22324 23.766 3.30705 24.7809 4.30185C24.9156 4.43394 25.0521 4.57505 25.1884 4.72138C24.3684 5.10626 23.4992 5.41781 22.5944 5.65121ZM27.4145 3.40481C26.8578 3.81333 26.2629 4.17932 25.6366 4.50108C25.4616 4.31021 25.285 4.12585 25.1103 3.95459C24.1611 3.02412 22.7478 2.04797 22.0553 1.5896C22.2906 1.43459 22.5057 1.26318 22.6975 1.07657C24.4115 1.57441 26.0028 2.37046 27.4145 3.40481ZM18.5086 0.482405C19.7617 0.482405 20.9797 0.63782 22.1459 0.92871C21.2608 1.65947 19.9347 2.08817 18.5086 2.08817C17.0759 2.08817 15.7534 1.66084 14.8696 0.929112C16.0362 0.63798 17.2547 0.482405 18.5086 0.482405ZM14.3194 1.07657C14.4755 1.22869 14.6464 1.37099 14.8316 1.50221C14.2042 1.91257 12.659 2.95947 11.6438 3.95451C11.4977 4.09779 11.3503 4.25039 11.2035 4.40814C10.642 4.10929 10.1066 3.77458 9.60267 3.40481C11.0142 2.37046 12.6054 1.57449 14.3194 1.07657Z"
        fill="currentColor"
      />
      <path
        id="Vector_5"
        d="M31.1563 24.6768C30.2571 26.027 29.1553 27.2269 27.8943 28.2293C27.2937 27.7703 26.6491 27.3599 25.9674 27.0015C26.7887 26.0598 27.5245 25.0562 27.7969 24.6769H27.2059C26.8416 25.1714 26.2038 26.0102 25.5255 26.7794C24.6668 26.3651 23.755 26.0297 22.8045 25.7785C23.0055 25.341 23.1642 24.9533 23.2723 24.6769H22.7596C22.6509 24.9464 22.5064 25.2884 22.3328 25.6617C21.1467 25.3862 19.9058 25.2395 18.6375 25.2302V24.6769H18.1629V25.2323C16.8853 25.2575 15.6374 25.4231 14.4471 25.7185C14.2617 25.3232 14.1081 24.96 13.9939 24.6769H13.4812C13.5943 24.9667 13.7633 25.3787 13.9781 25.8419C13.0443 26.1041 12.1492 26.4477 11.3073 26.8687C10.5999 26.0761 9.92624 25.1906 9.54762 24.6768H8.95664C9.23805 25.0688 10.0153 26.1286 10.8705 27.0975C10.2546 27.4327 9.66974 27.8105 9.12202 28.2293C7.86096 27.2268 6.75919 26.0269 5.85998 24.6768H5.29004C8.09698 29.0804 12.9732 32.0002 18.5082 32.0002C24.0432 32.0002 28.9195 29.0805 31.7264 24.6768L31.1563 24.6768ZM22.5942 26.2212C23.4993 26.4545 24.3686 26.766 25.1887 27.151C25.0521 27.2975 24.9155 27.4388 24.7806 27.5712C23.7689 28.5628 22.157 29.6441 21.5961 30.0097C21.2517 29.8306 20.8762 29.6832 20.4777 29.5697C20.7801 29.1636 21.3216 28.4101 21.9083 27.4684C22.1627 27.0602 22.3935 26.6298 22.5942 26.2212ZM18.6374 25.7125C19.8315 25.7215 20.9998 25.8555 22.1184 26.1068C21.9357 26.4733 21.7303 26.8524 21.5074 27.2103C20.8314 28.2954 20.2179 29.1245 19.9717 29.4483C19.5446 29.3618 19.0971 29.313 18.6373 29.3053V25.7125H18.6374ZM18.1628 25.7149V29.3103C17.6975 29.3312 17.2465 29.3952 16.8185 29.4968C16.6022 29.2145 15.9595 28.3557 15.2459 27.2103C15.034 26.8703 14.8378 26.5108 14.6621 26.1614C15.7847 25.8909 16.9599 25.7393 18.1628 25.7149ZM14.1899 26.2834C14.3834 26.6734 14.6035 27.0807 14.845 27.4684C15.4648 28.4634 16.0341 29.2479 16.3244 29.635C15.9503 29.7555 15.5995 29.9076 15.2778 30.0878C14.8798 29.8318 13.0722 28.6487 11.9729 27.5712C11.8649 27.4654 11.7558 27.3535 11.6465 27.2382C12.4496 26.8469 13.3016 26.5272 14.1899 26.2834ZM9.5163 28.5317C10.0452 28.1365 10.6091 27.7801 11.2024 27.4643C11.3494 27.6222 11.497 27.775 11.6434 27.9184C12.6583 28.9132 14.203 29.9599 14.8306 30.3704C14.6071 30.5295 14.4032 30.7045 14.2221 30.8944C12.5104 30.3845 10.9226 29.5773 9.5163 28.5317ZM18.5082 31.5179C17.214 31.5179 15.957 31.3527 14.7562 31.0431C15.633 30.2598 17.0254 29.7849 18.5082 29.7849C19.9891 29.7849 21.3828 30.2601 22.2597 31.0431C21.059 31.3528 19.8022 31.5179 18.5082 31.5179ZM22.7939 30.8944C22.5786 30.6689 22.3326 30.4632 22.058 30.2813C22.7517 29.8221 24.1621 28.8475 25.1099 27.9184C25.2847 27.747 25.4612 27.5626 25.6364 27.3716C26.2947 27.71 26.9186 28.0972 27.4999 28.5317C26.0936 29.5773 24.5057 30.3846 22.7939 30.8944Z"
        fill="currentColor"
      />
    </g>
  </g>
</svg>
