<svg
  width="20"
  height="20"
  viewBox="0 0 20 20"
  fill="none"
  xmlns="http://www.w3.org/2000/svg"
>
  <g id="LinkedIN_white">
    <path
      id="Combined-Shape"
      fill-rule="evenodd"
      clip-rule="evenodd"
      d="M0 10C0 4.47715 4.47715 0 10 0C15.5228 0 20 4.47715 20 10C20 15.5228 15.5228 20 10 20C4.47715 20 0 15.5228 0 10ZM11.9767 15C11.8996 15 11.8264 14.9672 11.7734 14.9111L9.35058 12.2883V14.7245C9.35058 14.8767 9.22729 15 9.07434 15H7.35919C7.20662 15 7.08333 14.8767 7.08333 14.7245V5.2759C7.08333 5.12309 7.20662 5 7.35919 5H9.07434C9.22729 5 9.35058 5.12309 9.35058 5.2759V9.99675L11.3945 7.72415C11.4466 7.66508 11.5206 7.63195 11.6 7.63195H13.7543C13.8634 7.63195 13.9623 7.69529 14.0062 7.79497C14.0509 7.89474 14.0326 8.01073 13.9592 8.09156L11.183 11.1712L14.3085 14.5377C14.3838 14.6174 14.4034 14.7348 14.3589 14.8348C14.3153 14.9352 14.2165 15 14.1065 15H11.9767Z"
      fill="currentColor"
    />
  </g>
</svg>
