<svg
  width="32"
  height="32"
  viewBox="0 0 32 32"
  fill="none"
  xmlns="http://www.w3.org/2000/svg"
>
  <g id="test_leed (1) 1" clip-path="url(#clip0_837_31415)">
    <g id="Clip path group">
      <mask
        id="mask0_837_31415"
        style="mask-type: luminance"
        maskUnits="userSpaceOnUse"
        x="-1"
        y="0"
        width="33"
        height="32"
      >
        <g id="a">
          <path
            id="Vector"
            d="M-0.00878906 0H31.9912V32H-0.00878906V0Z"
            fill="currentColor"
          />
        </g>
      </mask>
      <g mask="url(#mask0_837_31415)">
        <g id="Group">
          <path
            id="Vector_2"
            d="M15.9682 32C24.7583 32 31.8842 24.8365 31.8842 16C31.8842 7.16345 24.7583 0 15.968 0C7.17771 0 0.0517578 7.16345 0.0517578 16C0.0517578 24.8365 7.17787 32 15.9682 32Z"
            fill="currentColor"
          />
          <path
            id="Vector_3"
            d="M27.4986 19.6408C27.7448 19.5246 30.7572 18.5916 30.0653 16.7861C29.5794 15.5162 28.6445 17.0202 27.9928 16.5301C27.7834 16.3735 27.6544 16.2488 28.5691 15.3562C29.4856 14.4602 29.7637 13.8252 29.8558 13.2745C29.9463 12.7238 29.9446 12.3027 29.5693 12.0922C29.1924 11.88 28.6965 12.4408 28.5474 11.8598C28.4552 11.5482 28.5742 11.373 28.5758 10.8156C28.5775 10.2059 27.9576 8.68335 26.5118 9.19704C25.5769 9.52883 26.0728 11.149 25.8315 11.4556C25.5836 11.7705 25.3742 10.8088 24.8481 10.6572C24.2433 10.4838 23.8194 11.048 23.8244 11.5701C23.8295 12.0939 24.1662 13.0674 24.2801 13.4429C24.3438 13.7427 24.503 14.5562 24.4024 14.7937C24.2483 15.1541 24.1176 15.0362 23.7708 14.5781C23.4659 14.1722 23.6267 14.3423 23.0889 13.6922C22.4188 12.8619 22.0117 14.0122 21.9631 14.7819C21.9145 15.5499 22.4942 18.2278 22.4858 18.5831C22.4456 20.1882 21.5576 18.349 21.5291 18.3052C20.9461 17.4126 19.8253 17.8303 20.1754 18.7886C20.8137 20.5351 21.3884 22.0408 20.7836 23.5381C20.7032 23.7385 20.5943 24.0871 20.4452 24.4341C25.3658 19.8295 26.7195 13.448 26.7212 13.4429C26.7396 13.3772 26.8569 13.3132 26.9172 13.3335C26.9792 13.3537 27.0077 13.4766 26.9892 13.5423C26.9859 13.5541 25.3809 23.0278 16.8029 27.8648C16.6119 27.9676 16.5918 27.8564 16.5532 27.6863C16.5951 26.184 16.6571 25.1634 17.21 24.8332C21.8307 22.0745 20.3296 20.808 19.3712 20.6177C18.4129 20.429 17.8667 18.8543 19.1869 18.1705C21.5124 16.8551 22.7019 12.1596 19.8135 13.1869C19.5505 13.2088 17.6506 14.2025 19.3243 11.3225C20.9092 8.44251 20.4217 5.87577 18.7765 6.99409C18.3459 7.28714 17.1245 8.58567 17.3691 6.70609C17.8064 3.85472 17.1027 2.83914 16.2718 2.6522C16.2718 2.6522 16.1846 2.63704 16.1143 2.6303L16.0389 2.63367V2.62525C15.9886 2.62188 15.806 2.65388 15.806 2.65388C14.9733 2.83914 14.273 3.85641 14.7069 6.70777C14.9515 8.58567 13.7302 7.28714 13.3013 6.99577C11.6577 5.87914 11.1702 8.4442 12.7551 11.3242C14.4288 14.2042 12.5289 13.2105 12.2659 13.1886C9.37752 12.1612 10.5654 16.8585 12.8925 18.1722C14.2144 18.856 13.6665 20.4324 12.7082 20.6194C11.7515 20.808 10.2487 22.0762 14.8695 24.8349C15.424 25.165 15.4927 26.1924 15.5329 27.6998C15.496 27.8648 15.4676 27.9692 15.2799 27.8665C6.70191 23.0295 5.09689 13.5541 5.09354 13.544C5.07511 13.4766 5.12202 13.3537 5.18233 13.3351C5.24265 13.3149 5.33814 13.421 5.35657 13.4884C5.35825 13.4951 6.71532 19.8311 11.6359 24.4375C11.4868 24.0905 11.3796 23.7419 11.2975 23.5415C10.6927 22.0442 11.2674 20.5368 11.9057 18.792C12.2558 17.8337 11.1367 17.416 10.552 18.3086C10.5235 18.3524 9.63553 20.1932 9.59532 18.5865C9.58526 18.2311 10.1666 15.5549 10.118 14.7852C10.0695 14.0156 9.66233 12.8652 8.99217 13.6956C8.45437 14.3457 8.61521 14.1756 8.31029 14.5815C7.96516 15.0396 7.8328 15.1575 7.67867 14.797C7.57814 14.5579 7.73898 13.7444 7.80097 13.4463C7.91322 13.0707 8.25165 12.0972 8.25668 11.5735C8.2617 11.0514 7.83783 10.4871 7.23301 10.6606C6.70694 10.8122 6.49751 11.7739 6.24956 11.4589C6.0083 11.1524 6.50589 9.5322 5.56935 9.20041C4.12348 8.68672 3.50191 10.2092 3.50526 10.8189C3.50526 11.3764 3.62589 11.5516 3.53375 11.8631C3.38464 12.4442 2.88704 11.8834 2.51176 12.0956C2.13479 12.3078 2.13479 12.7271 2.22359 13.2779C2.31573 13.8286 2.59385 14.4636 3.51029 15.3596C4.42673 16.2522 4.29605 16.3768 4.08663 16.5335C3.4349 17.0236 2.50003 15.5196 2.01416 16.7895C1.32223 18.5949 4.33291 19.528 4.58087 19.6442C5.22589 19.9541 5.58108 20.6615 4.69982 20.4526C4.34631 20.3701 3.80348 20.1107 3.37793 20.5857C2.25542 21.8438 5.18066 24.0349 7.12244 24.4391C9.06422 24.8434 10.8016 25.5895 11.5354 25.9246C12.2575 26.2547 15.3453 28.3836 15.5597 29.2442C15.615 29.4985 15.7474 29.6871 16.0439 29.6871C16.3404 29.6871 16.4695 29.5204 16.5231 29.2627C16.7191 28.4172 19.8186 26.2547 20.544 25.9246C21.2762 25.5895 23.0135 24.8434 24.9553 24.4391C26.8988 24.0349 29.8223 21.8438 28.7015 20.5857C28.2759 20.1107 27.7348 20.3701 27.3796 20.4526C26.4984 20.6615 26.8519 19.9541 27.4986 19.6442M16.2114 28.6126C16.2114 28.6126 16.1913 28.7878 16.054 28.7827C15.9182 28.7777 15.9249 28.6126 15.9249 28.6126C15.9249 28.6126 15.8261 22.5444 15.8261 18.3911C15.8261 14.2379 15.9249 9.70904 15.9249 9.70904C15.9249 9.70904 15.9618 9.53556 16.0757 9.53556C16.1897 9.53556 16.2098 9.70904 16.2098 9.70904C16.2098 9.70904 16.3103 14.2362 16.3103 18.3911C16.3103 22.5461 16.2098 28.6126 16.2098 28.6126"
            fill="#231F20"
          />
        </g>
      </g>
    </g>
  </g>
  <defs>
    <clipPath id="clip0_837_31415">
      <rect width="32" height="32" fill="currentColor" />
    </clipPath>
  </defs>
</svg>
