<svg
  width="20"
  height="20"
  viewBox="0 0 20 20"
  fill="none"
  xmlns="http://www.w3.org/2000/svg"
>
  <g id="LinkedIN_white">
    <path
      id="Combined-Shape"
      fill-rule="evenodd"
      clip-rule="evenodd"
      d="M0 10C0 4.47715 4.47715 0 10 0C15.5228 0 20 4.47715 20 10C20 15.5228 15.5228 20 10 20C4.47715 20 0 15.5228 0 10ZM7.48323 8.2824H5.21701V15.0914H7.48323V8.2824ZM7.63303 6.17612C7.61832 5.5085 7.1409 5 6.36565 5C5.59039 5 5.08355 5.5085 5.08355 6.17612C5.08355 6.82992 5.57541 7.35306 6.33623 7.35306H6.35071C7.1409 7.35306 7.63303 6.82992 7.63303 6.17612ZM15.6565 11.1874C15.6565 9.09595 14.5385 8.12256 13.0472 8.12256C11.844 8.12256 11.3053 8.78345 11.0046 9.24707V8.28263H8.73806C8.76793 8.92155 8.73806 15.0917 8.73806 15.0917H11.0046V11.2889C11.0046 11.0854 11.0193 10.8824 11.0792 10.7367C11.243 10.3302 11.6159 9.90927 12.242 9.90927C13.0624 9.90927 13.3903 10.5336 13.3903 11.4487V15.0915H15.6564L15.6565 11.1874Z"
      fill="currentColor"
    />
  </g>
</svg>
