<svg
  width="25"
  height="24"
  viewBox="0 0 25 24"
  fill="none"
  xmlns="http://www.w3.org/2000/svg"
>
  <path
    d="M12.5 1.5C10.3128 1.50266 8.21591 2.37271 6.66932 3.91931C5.12272 5.46591 4.25267 7.56278 4.25001 9.75C4.24743 11.5374 4.83136 13.2764 5.91223 14.7C5.91223 14.7 6.13723 14.9959 6.17338 15.0388L12.5 22.5L18.8293 15.0355C18.8626 14.9956 19.0878 14.6997 19.0878 14.6997L19.0889 14.6979C20.1691 13.2748 20.7527 11.5366 20.75 9.75C20.7473 7.56278 19.8773 5.46591 18.3307 3.91931C16.7841 2.37271 14.6872 1.50266 12.5 1.5ZM12.5 12.75C11.9067 12.75 11.3266 12.5741 10.8333 12.2444C10.34 11.9148 9.95543 11.4462 9.72837 10.8981C9.50131 10.3499 9.4419 9.74667 9.55765 9.16473C9.67341 8.58279 9.95913 8.04824 10.3787 7.62868C10.7982 7.20912 11.3328 6.9234 11.9147 6.80764C12.4967 6.69189 13.0999 6.7513 13.6481 6.97836C14.1962 7.20542 14.6648 7.58994 14.9944 8.08329C15.3241 8.57664 15.5 9.15666 15.5 9.75C15.4991 10.5454 15.1828 11.3079 14.6203 11.8703C14.0579 12.4327 13.2954 12.7491 12.5 12.75Z"
    fill="currentColor"
  />
</svg>
