<svg
  width="25"
  height="24"
  viewBox="0 0 25 24"
  fill="none"
  xmlns="http://www.w3.org/2000/svg"
>
  <path
    d="M8.42843 6.57422H7.07129V9.2885H8.42843V6.57422Z"
    fill="currentColor"
  />
  <path
    d="M8.42843 10.6445H7.07129V13.3588H8.42843V10.6445Z"
    fill="currentColor"
  />
  <path
    d="M12.5007 6.57422H11.1436V9.2885H12.5007V6.57422Z"
    fill="currentColor"
  />
  <path
    d="M12.5007 10.6445H11.1436V13.3588H12.5007V10.6445Z"
    fill="currentColor"
  />
  <path
    d="M8.42843 14.7168H7.07129V17.4311H8.42843V14.7168Z"
    fill="currentColor"
  />
  <path
    d="M12.5007 14.7168H11.1436V17.4311H12.5007V14.7168Z"
    fill="currentColor"
  />
  <path
    d="M22 10.6448C22 10.2849 21.857 9.93968 21.6025 9.68517C21.348 9.43065 21.0028 9.28767 20.6429 9.28767H16.5714V3.8591C16.5714 3.49916 16.4284 3.15396 16.1739 2.89945C15.9194 2.64494 15.5742 2.50195 15.2143 2.50195H4.35714C3.99721 2.50195 3.65201 2.64494 3.3975 2.89945C3.14298 3.15396 3 3.49916 3 3.8591V21.502H22V10.6448ZM4.35714 3.8591H15.2143V20.1448H4.35714V3.8591ZM16.5714 20.1448V10.6448H20.6429V20.1448H16.5714Z"
    fill="currentColor"
  />
</svg>
