<svg
  width="25"
  height="24"
  viewBox="0 0 25 24"
  fill="none"
  xmlns="http://www.w3.org/2000/svg"
>
  <g clip-path="url(#clip0_357_11660)">
    <path
      d="M9.5 7.50027H5.585C6.55501 6.00952 7.98081 4.87215 9.64986 4.25771C11.3189 3.64326 13.1418 3.58465 14.8469 4.09061C16.552 4.59657 18.0479 5.64 19.1117 7.06537C20.1755 8.49074 20.7501 10.2217 20.75 12.0003H22.25C22.2521 9.99439 21.6354 8.03669 20.4841 6.3941C19.3328 4.75152 17.7029 3.50401 15.8166 2.82168C13.9304 2.13934 11.8796 2.05539 9.94384 2.58128C8.00811 3.10716 6.2817 4.21728 5 5.76027V3.00027H3.5V9.00027H9.5V7.50027Z"
      fill="currentColor"
    />
    <path
      d="M15.5 16.5H19.415C18.445 17.9908 17.0192 19.1281 15.3501 19.7426C13.6811 20.357 11.8582 20.4156 10.1531 19.9097C8.448 19.4037 6.95209 18.3603 5.88832 16.9349C4.82455 15.5095 4.24989 13.7786 4.25001 12H2.75001C2.74794 14.0059 3.3646 15.9636 4.5159 17.6062C5.6672 19.2488 7.29711 20.4963 9.18337 21.1786C11.0696 21.8609 13.1204 21.9449 15.0562 21.419C16.9919 20.8931 18.7183 19.783 20 18.24V21H21.5V15H15.5V16.5Z"
      fill="currentColor"
    />
  </g>
  <defs>
    <clipPath id="clip0_357_11660">
      <rect
        width="24"
        height="24"
        fill="currentColor"
        transform="translate(0.5)"
      />
    </clipPath>
  </defs>
</svg>
