<svg width="20" height="21" viewBox="0 0 20 21" fill="none" xmlns="http://www.w3.org/2000/svg">
<g clip-path="url(#clip0_2459_20506)">
<path d="M14.3751 12.7169C13.9072 12.7193 13.4459 12.8266 13.0251 13.0311C12.6043 13.2355 12.2348 13.5318 11.9438 13.8982L7.37505 11.0419C7.54156 10.5045 7.54156 9.92932 7.37505 9.39193L11.9438 6.53567C12.4075 7.10987 13.0595 7.50141 13.7843 7.64093C14.509 7.78045 15.2598 7.65895 15.9035 7.29794C16.5473 6.93694 17.0425 6.35973 17.3014 5.66858C17.5603 4.97743 17.5662 4.21693 17.3181 3.52182C17.0701 2.82671 16.5839 2.24184 15.9459 1.87082C15.3079 1.4998 14.5591 1.36658 13.8323 1.49476C13.1054 1.62294 12.4474 2.00424 11.9748 2.57112C11.5021 3.13801 11.2454 3.85388 11.2501 4.59192C11.253 4.87141 11.2951 5.14911 11.3751 5.41692L6.8063 8.27318C6.40296 7.76541 5.85164 7.39571 5.22877 7.2153C4.60591 7.03489 3.94234 7.05272 3.33006 7.26631C2.71778 7.4799 2.18711 7.87868 1.81161 8.40736C1.43611 8.93605 1.23438 9.56846 1.23438 10.2169C1.23437 10.8654 1.43611 11.4978 1.81161 12.0265C2.18711 12.5552 2.71778 12.9539 3.33006 13.1675C3.94234 13.3811 4.60591 13.399 5.22877 13.2186C5.85164 13.0381 6.40296 12.6684 6.8063 12.1607L11.3751 15.0169C11.2951 15.2847 11.253 15.5624 11.2501 15.8419C11.2501 16.46 11.4333 17.0642 11.7767 17.5781C12.1201 18.092 12.6081 18.4925 13.1792 18.729C13.7502 18.9656 14.3785 19.0275 14.9847 18.9069C15.5909 18.7863 16.1477 18.4887 16.5848 18.0516C17.0218 17.6146 17.3194 17.0578 17.44 16.4516C17.5606 15.8454 17.4987 15.2171 17.2622 14.646C17.0257 14.075 16.6251 13.587 16.1112 13.2436C15.5973 12.9002 14.9931 12.7169 14.3751 12.7169ZM14.3751 2.71692C14.7459 2.71692 15.1084 2.82689 15.4167 3.03292C15.7251 3.23895 15.9654 3.53178 16.1073 3.87439C16.2492 4.217 16.2864 4.594 16.214 4.95772C16.1417 5.32143 15.9631 5.65553 15.7009 5.91775C15.4387 6.17997 15.1046 6.35855 14.7408 6.4309C14.3771 6.50324 14.0001 6.46611 13.6575 6.3242C13.3149 6.18228 13.0221 5.94196 12.816 5.63362C12.61 5.32528 12.5001 4.96276 12.5001 4.59192C12.5001 4.09464 12.6976 3.61773 13.0492 3.2661C13.4009 2.91447 13.8778 2.71692 14.3751 2.71692ZM4.37505 12.0919C4.00421 12.0919 3.6417 11.982 3.33336 11.7759C3.02502 11.5699 2.78469 11.2771 2.64278 10.9345C2.50087 10.5918 2.46373 10.2148 2.53608 9.85113C2.60843 9.48742 2.78701 9.15332 3.04923 8.8911C3.31145 8.62888 3.64555 8.4503 4.00926 8.37795C4.37297 8.30561 4.74997 8.34274 5.09259 8.48465C5.4352 8.62656 5.72803 8.86689 5.93406 9.17523C6.14009 9.48357 6.25005 9.84609 6.25005 10.2169C6.25005 10.7142 6.05251 11.1911 5.70088 11.5428C5.34925 11.8944 4.87233 12.0919 4.37505 12.0919ZM14.3751 17.7169C14.0042 17.7169 13.6417 17.607 13.3334 17.4009C13.025 17.1949 12.7847 16.9021 12.6428 16.5595C12.5009 16.2168 12.4637 15.8398 12.5361 15.4761C12.6084 15.1124 12.787 14.7783 13.0492 14.5161C13.3115 14.2539 13.6455 14.0753 14.0093 14.003C14.373 13.9306 14.75 13.9677 15.0926 14.1097C15.4352 14.2516 15.728 14.4919 15.9341 14.8002C16.1401 15.1086 16.2501 15.4711 16.2501 15.8419C16.2501 16.3392 16.0525 16.8161 15.7009 17.1678C15.3492 17.5194 14.8723 17.7169 14.3751 17.7169Z" fill="white"/>
</g>
<defs>
<clipPath id="clip0_2459_20506">
<rect width="20" height="20" fill="white" transform="translate(0 0.216797)"/>
</clipPath>
</defs>
</svg>
