<svg
  width="36"
  height="37"
  viewBox="0 0 36 37"
  fill="none"
  xmlns="http://www.w3.org/2000/svg"
>
  <path
    d="M32.177 10.4004H18.002V12.4254H32.177V10.4004Z"
    fill="currentColor"
  />
  <path
    d="M32.177 24.5742H18.002V26.5992H32.177V24.5742Z"
    fill="currentColor"
  />
  <path
    d="M11.9262 16.4746H5.85117C5.3143 16.474 4.79959 16.2604 4.41996 15.8808C4.04033 15.5012 3.82679 14.9865 3.82617 14.4496V8.37461C3.82679 7.83774 4.04033 7.32303 4.41996 6.9434C4.79959 6.56377 5.3143 6.35023 5.85117 6.34961H11.9262C12.463 6.35023 12.9778 6.56377 13.3574 6.9434C13.737 7.32303 13.9506 7.83774 13.9512 8.37461V14.4496C13.9506 14.9865 13.737 15.5012 13.3574 15.8808C12.9778 16.2604 12.463 16.474 11.9262 16.4746ZM5.85117 8.37461V14.4496H11.9274L11.9262 8.37461H5.85117Z"
    fill="currentColor"
  />
  <path
    d="M11.9262 30.6504H5.85117C5.3143 30.6498 4.79959 30.4362 4.41996 30.0566C4.04033 29.677 3.82679 29.1623 3.82617 28.6254V22.5504C3.82679 22.0135 4.04033 21.4988 4.41996 21.1192C4.79959 20.7396 5.3143 20.526 5.85117 20.5254H11.9262C12.463 20.526 12.9778 20.7396 13.3574 21.1192C13.737 21.4988 13.9506 22.0135 13.9512 22.5504V28.6254C13.9506 29.1623 13.737 29.677 13.3574 30.0566C12.9778 30.4362 12.463 30.6498 11.9262 30.6504ZM5.85117 22.5504V28.6254H11.9274L11.9262 22.5504H5.85117Z"
    fill="currentColor"
  />
</svg>
